SplineFontDB: 3.2
FontName: IRMomtaz
FullName: IRMomtaz
FamilyName: IRMomtaz
Weight: Book
Copyright: Copyright (c) 2022, Information Technology Organization of Iran (ito.gov.ir)
Version: 1.001
ItalicAngle: 0
UnderlinePosition: -100
UnderlineWidth: 60
Ascent: 1638
Descent: 410
InvalidEm: 0
sfntRevision: 0x00010042
LayerCount: 2
Layer: 0 1 "Back" 1
Layer: 1 1 "Fore" 0
XUID: [1021 420 722297922 3713356]
StyleMap: 0x0040
FSType: 0
OS2Version: 3
OS2_WeightWidthSlopeOnly: 0
OS2_UseTypoMetrics: 0
CreationTime: 1355089059
ModificationTime: 1662630087
PfmFamily: 17
TTFWeight: 400
TTFWidth: 5
LineGap: 100
VLineGap: 0
Panose: 2 0 5 6 0 0 0 2 0 2
OS2TypoAscent: 1950
OS2TypoAOffset: 0
OS2TypoDescent: -877
OS2TypoDOffset: 0
OS2TypoLinegap: 1500
OS2WinAscent: 1950
OS2WinAOffset: 0
OS2WinDescent: 877
OS2WinDOffset: 0
HheadAscent: 1950
HheadAOffset: 0
HheadDescent: -877
HheadDOffset: 0
OS2SubXSize: 1434
OS2SubYSize: 1331
OS2SubXOff: 0
OS2SubYOff: 293
OS2SupXSize: 1434
OS2SupYSize: 1331
OS2SupXOff: 0
OS2SupYOff: 930
OS2StrikeYSize: 50
OS2StrikeYPos: 250
OS2CapHeight: 1980
OS2XHeight: 1085
OS2FamilyClass: 2048
OS2Vendor: 'PARS'
OS2CodePages: 20000041.00000000
OS2UnicodeRanges: 00002003.00000000.00000000.00000000
Lookup: 1 1 0 "'isol' Isolated Forms in Arabic lookup 0" { "'isol' Isolated Forms in Arabic lookup 0 subtable"  } ['isol' ('arab' <'dflt' > ) ]
Lookup: 1 1 0 "'init' Initial Forms in Arabic lookup 1" { "'init' Initial Forms in Arabic lookup 1 subtable"  } ['init' ('arab' <'dflt' > ) ]
Lookup: 1 1 0 "'fina' Terminal Forms in Arabic lookup 2" { "'fina' Terminal Forms in Arabic lookup 2 subtable"  } ['fina' ('arab' <'dflt' > ) ]
Lookup: 1 1 0 "'medi' Medial Forms in Arabic lookup 3" { "'medi' Medial Forms in Arabic lookup 3 subtable"  } ['medi' ('arab' <'dflt' > ) ]
Lookup: 4 1 0 "'ccmp' Glyph Composition/Decomposition in Arabic lookup 4" { "'ccmp' Glyph Composition/Decomposition in Arabic lookup 4 subtable"  } ['ccmp' ('arab' <'dflt' > ) ]

StartChar: quotedbl
Encoding: 34 34 4
Width: 966
Flags: W
LayerCount: 2
Fore
SplineSet
221 703 m 1,0,1
 214 732 214 732 209.5 754.5 c 128,-1,2
 205 777 205 777 202 787 c 0,3,4
 175 896 175 896 159.5 974 c 128,-1,5
 144 1052 144 1052 144 1079 c 0,6,7
 144 1136 144 1136 175 1169.5 c 128,-1,8
 206 1203 206 1203 256 1203 c 0,9,10
 280 1203 280 1203 300.5 1194 c 128,-1,11
 321 1185 321 1185 336.5 1169.5 c 128,-1,12
 352 1154 352 1154 360.5 1132.5 c 128,-1,13
 369 1111 369 1111 369 1086 c 0,14,15
 369 1072 369 1072 365.5 1046 c 128,-1,16
 362 1020 362 1020 353 976 c 128,-1,17
 344 932 344 932 329 865.5 c 128,-1,18
 314 799 314 799 292 703 c 1,19,-1
 221 703 l 1,0,1
674 703 m 1,20,21
 667 730 667 730 661.5 753.5 c 128,-1,22
 656 777 656 777 654 787 c 0,23,24
 627 897 627 897 612 974.5 c 128,-1,25
 597 1052 597 1052 597 1079 c 0,26,27
 597 1136 597 1136 628 1169.5 c 128,-1,28
 659 1203 659 1203 709 1203 c 0,29,30
 733 1203 733 1203 753.5 1194 c 128,-1,31
 774 1185 774 1185 789.5 1169.5 c 128,-1,32
 805 1154 805 1154 813.5 1132.5 c 128,-1,33
 822 1111 822 1111 822 1086 c 0,34,35
 822 1072 822 1072 817.5 1043 c 128,-1,36
 813 1014 813 1014 803.5 967.5 c 128,-1,37
 794 921 794 921 779.5 855.5 c 128,-1,38
 765 790 765 790 745 703 c 1,39,-1
 674 703 l 1,20,21
EndSplineSet
EndChar

StartChar: quotesingle
Encoding: 39 39 5
Width: 484
Flags: W
LayerCount: 2
Fore
SplineSet
207 703 m 1,0,1
 200 730 200 730 195 753.5 c 128,-1,2
 190 777 190 777 188 787 c 0,3,4
 160 896 160 896 145.5 974 c 128,-1,5
 131 1052 131 1052 131 1079 c 0,6,7
 131 1136 131 1136 161.5 1169.5 c 128,-1,8
 192 1203 192 1203 242 1203 c 0,9,10
 266 1203 266 1203 286.5 1194 c 128,-1,11
 307 1185 307 1185 322.5 1169.5 c 128,-1,12
 338 1154 338 1154 346.5 1132.5 c 128,-1,13
 355 1111 355 1111 355 1086 c 0,14,15
 355 1072 355 1072 351 1045.5 c 128,-1,16
 347 1019 347 1019 338 974.5 c 128,-1,17
 329 930 329 930 314.5 863.5 c 128,-1,18
 300 797 300 797 279 703 c 1,19,-1
 207 703 l 1,0,1
EndSplineSet
EndChar

StartChar: asterisk
Encoding: 42 42 6
Width: 1126
Flags: W
LayerCount: 2
Fore
SplineSet
568 347 m 1,0,-1
 574 687 l 1,1,-1
 355 467 l 1,2,-1
 250 467 l 1,3,-1
 527 746 l 1,4,-1
 203 746 l 1,5,-1
 223 839 l 1,6,-1
 547 839 l 1,7,-1
 277 1104 l 1,8,-1
 370 1104 l 1,9,-1
 579 899 l 1,10,-1
 585 1199 l 1,11,-1
 704 1239 l 1,12,-1
 699 912 l 1,13,-1
 905 1104 l 1,14,-1
 1013 1104 l 1,15,-1
 730 839 l 1,16,-1
 1065 839 l 1,17,-1
 1043 746 l 1,18,-1
 729 746 l 1,19,-1
 1002 467 l 1,20,-1
 910 467 l 1,21,-1
 696 687 l 1,22,-1
 688 386 l 1,23,-1
 568 347 l 1,0,-1
EndSplineSet
EndChar

StartChar: plus
Encoding: 43 43 7
Width: 799
GlyphClass: 2
Flags: W
LayerCount: 2
Fore
SplineSet
340 157 m 1,0,-1
 340 397 l 1,1,-1
 100 397 l 1,2,-1
 100 537 l 1,3,-1
 340 537 l 1,4,-1
 340 777 l 1,5,-1
 480 777 l 1,6,-1
 480 537 l 1,7,-1
 720 537 l 1,8,-1
 720 397 l 1,9,-1
 480 397 l 1,10,-1
 480 157 l 1,11,-1
 340 157 l 1,0,-1
EndSplineSet
EndChar

StartChar: hyphen
Encoding: 45 45 8
Width: 1127
Flags: W
LayerCount: 2
Fore
SplineSet
170 544 m 1,0,-1
 935 544 l 1,1,-1
 935 411 l 1,2,-1
 170 411 l 1,3,-1
 170 544 l 1,0,-1
EndSplineSet
EndChar

StartChar: period
Encoding: 46 46 9
Width: 610
GlyphClass: 2
Flags: W
LayerCount: 2
Fore
SplineSet
427 324 m 256,0,1
 495 324 495 324 542.5 276.5 c 128,-1,2
 590 229 590 229 590 161 c 256,3,4
 590 93 590 93 542.5 45 c 128,-1,5
 495 -3 495 -3 427 -3 c 256,6,7
 359 -3 359 -3 311 45 c 128,-1,8
 263 93 263 93 263 161 c 256,9,10
 263 229 263 229 311 276.5 c 128,-1,11
 359 324 359 324 427 324 c 256,0,1
EndSplineSet
EndChar

StartChar: slash
Encoding: 47 47 10
Width: 646
Flags: W
LayerCount: 2
Fore
SplineSet
465 925 m 1,0,-1
 606 925 l 1,1,-1
 198 -222 l 1,2,-1
 57 -222 l 1,3,-1
 465 925 l 1,0,-1
EndSplineSet
EndChar

StartChar: less
Encoding: 60 60 11
Width: 1117
Flags: W
LayerCount: 2
Fore
SplineSet
955 58 m 1,0,-1
 150 444 l 1,1,-1
 150 534 l 1,2,-1
 955 918 l 1,3,-1
 955 784 l 1,4,-1
 331 489 l 1,5,-1
 955 192 l 1,6,-1
 955 58 l 1,0,-1
EndSplineSet
EndChar

StartChar: equal
Encoding: 61 61 12
Width: 967
Flags: W
LayerCount: 2
Fore
SplineSet
169 651 m 1,0,-1
 815 651 l 1,1,-1
 815 521 l 1,2,-1
 169 521 l 1,3,-1
 169 651 l 1,0,-1
169 379 m 1,4,-1
 815 379 l 1,5,-1
 815 249 l 1,6,-1
 169 249 l 1,7,-1
 169 379 l 1,4,-1
EndSplineSet
EndChar

StartChar: greater
Encoding: 62 62 13
Width: 1117
Flags: W
LayerCount: 2
Fore
SplineSet
966 444 m 1,0,-1
 160 58 l 1,1,-1
 160 192 l 1,2,-1
 786 489 l 1,3,-1
 160 784 l 1,4,-1
 160 918 l 1,5,-1
 966 534 l 1,6,-1
 966 444 l 1,0,-1
EndSplineSet
EndChar

StartChar: bracketleft
Encoding: 91 91 14
Width: 579
GlyphClass: 2
Flags: W
LayerCount: 2
Fore
SplineSet
181 -317 m 1,0,-1
 181 1150 l 1,1,-1
 523 1150 l 1,2,-1
 523 1114 l 1,3,-1
 484 1114 l 2,4,5
 428 1114 428 1114 409 1103 c 128,-1,6
 390 1092 390 1092 380.5 1069 c 128,-1,7
 371 1046 371 1046 371 960 c 2,8,-1
 371 -134 l 2,9,10
 371 -215 371 -215 374 -227 c 0,11,12
 382 -258 382 -258 402.5 -272 c 128,-1,13
 423 -286 423 -286 484 -286 c 2,14,-1
 523 -286 l 1,15,-1
 523 -317 l 1,16,-1
 181 -317 l 1,0,-1
EndSplineSet
EndChar

StartChar: bracketright
Encoding: 93 93 15
Width: 579
GlyphClass: 2
Flags: W
LayerCount: 2
Fore
SplineSet
397 1150 m 1,0,-1
 397 -317 l 1,1,-1
 57 -317 l 1,2,-1
 57 -285 l 1,3,-1
 95 -285 l 2,4,5
 151 -285 151 -285 170 -274 c 128,-1,6
 189 -263 189 -263 199 -240 c 128,-1,7
 209 -217 209 -217 209 -133 c 2,8,-1
 209 964 l 2,9,10
 209 1045 209 1045 206 1057 c 0,11,12
 197 1086 197 1086 176.5 1101 c 128,-1,13
 156 1116 156 1116 95 1116 c 2,14,-1
 57 1116 l 1,15,-1
 57 1150 l 1,16,-1
 397 1150 l 1,0,-1
EndSplineSet
EndChar

StartChar: grave
Encoding: 96 96 16
Width: 615
Flags: W
LayerCount: 2
Fore
SplineSet
373 935 m 1,0,-1
 88 1114 l 2,1,2
 64 1132 64 1132 49.5 1151.5 c 128,-1,3
 35 1171 35 1171 35 1194 c 0,4,5
 35 1220 35 1220 52 1236 c 128,-1,6
 69 1252 69 1252 99 1252 c 0,7,8
 118 1252 118 1252 134.5 1242.5 c 128,-1,9
 151 1233 151 1233 176 1208 c 2,10,-1
 447 935 l 1,11,-1
 373 935 l 1,0,-1
EndSplineSet
EndChar

StartChar: braceleft
Encoding: 123 123 17
Width: 685
GlyphClass: 2
Flags: W
LayerCount: 2
Fore
SplineSet
611 1177 m 1,0,-1
 611 1138 l 1,1,2
 526 1121 526 1121 485.5 1078 c 128,-1,3
 445 1035 445 1035 445 978 c 0,4,5
 445 922 445 922 465 837.5 c 128,-1,6
 485 753 485 753 485 690 c 0,7,8
 485 633 485 633 451.5 573 c 128,-1,9
 418 513 418 513 353 471 c 0,10,11
 307 441 307 441 210 414 c 1,12,13
 315 382 315 382 363 350 c 0,14,15
 425 306 425 306 456.5 247.5 c 128,-1,16
 488 189 488 189 488 137 c 0,17,18
 488 86 488 86 467 1 c 128,-1,19
 446 -84 446 -84 446 -146 c 0,20,21
 446 -207 446 -207 485 -251 c 128,-1,22
 524 -295 524 -295 611 -312 c 1,23,-1
 611 -351 l 1,24,-1
 581 -351 l 2,25,26
 494 -352 494 -352 416.5 -311 c 128,-1,27
 339 -270 339 -270 300 -206 c 128,-1,28
 261 -142 261 -142 261 -83 c 0,29,30
 261 -23 261 -23 286 78 c 0,31,32
 306 154 306 154 306 213 c 0,33,34
 306 280 306 280 264 327 c 128,-1,35
 222 374 222 374 140 388 c 1,36,-1
 140 439 l 1,37,38
 222 453 222 453 264 502 c 128,-1,39
 306 551 306 551 306 621 c 0,40,41
 306 679 306 679 287 752 c 0,42,43
 261 852 261 852 261 905 c 0,44,45
 261 960 261 960 294.5 1017 c 128,-1,46
 328 1074 328 1074 377.5 1109.5 c 128,-1,47
 427 1145 427 1145 487 1161 c 0,48,49
 532 1173 532 1173 611 1177 c 1,0,-1
EndSplineSet
EndChar

StartChar: bar
Encoding: 124 124 18
Width: 383
Flags: W
LayerCount: 2
Fore
SplineSet
135 -375 m 1,0,-1
 135 1177 l 1,1,-1
 245 1177 l 1,2,-1
 245 -375 l 1,3,-1
 135 -375 l 1,0,-1
EndSplineSet
EndChar

StartChar: asciitilde
Encoding: 126 126 19
Width: 903
Flags: W
LayerCount: 2
Fore
SplineSet
885 601 m 1,0,-1
 934 601 l 1,1,2
 929 466 929 466 864 397 c 128,-1,3
 799 328 799 328 706 328 c 0,4,5
 660 328 660 328 610 342 c 128,-1,6
 560 356 560 356 388 428 c 0,7,8
 264 480 264 480 209 480 c 0,9,10
 151 480 151 480 112.5 444.5 c 128,-1,11
 74 409 74 409 59 329 c 1,12,-1
 11 329 l 1,13,14
 17 467 17 467 79.5 534.5 c 128,-1,15
 142 602 142 602 231 602 c 0,16,17
 276 602 276 602 319 590 c 0,18,19
 405 566 405 566 555 501 c 0,20,21
 637 465 637 465 681 454 c 0,22,23
 706 447 706 447 736 447 c 0,24,25
 795 447 795 447 836.5 487 c 128,-1,26
 878 527 878 527 885 601 c 1,0,-1
EndSplineSet
EndChar

StartChar: agrave
Encoding: 224 224 20
Width: 1075
Flags: W
LayerCount: 2
Fore
SplineSet
741 331 m 1,0,1
 720 266 720 266 690.5 213 c 128,-1,2
 661 160 661 160 626 114 c 0,3,4
 519 -19 519 -19 400 -19 c 0,5,6
 208 -19 208 -19 159 214 c 0,7,8
 133 334 133 334 157 451 c 128,-1,9
 181 568 181 568 252 683 c 0,10,11
 325 801 325 801 433 860 c 128,-1,12
 541 919 541 919 684 919 c 0,13,14
 712 919 712 919 746 918.5 c 128,-1,15
 780 918 780 918 815.5 916 c 128,-1,16
 851 914 851 914 886 912 c 128,-1,17
 921 910 921 910 952 908 c 1,18,-1
 946 646 l 1,19,-1
 946 647 l 1,20,-1
 950 254 l 2,21,22
 952 209 952 209 954.5 179.5 c 128,-1,23
 957 150 957 150 958 139 c 0,24,25
 961 114 961 114 985 114 c 0,26,27
 1053 114 1053 114 1214 346 c 1,28,-1
 1218 179 l 1,29,30
 1073 -19 1073 -19 925 -19 c 0,31,32
 785 -19 785 -19 753 126 c 0,33,34
 749 146 749 146 747 182 c 128,-1,35
 745 218 745 218 745 264 c 2,36,-1
 741 331 l 1,0,1
737 758 m 1,37,38
 688 775 688 775 647 783.5 c 128,-1,39
 606 792 606 792 561 792 c 0,40,41
 497 792 497 792 453.5 749.5 c 128,-1,42
 410 707 410 707 387 625 c 0,43,44
 362 522 362 522 357 425 c 128,-1,45
 352 328 352 328 368 248 c 0,46,47
 388 146 388 146 437 146 c 0,48,49
 493 146 493 146 589 280 c 0,50,51
 637 352 637 352 674 430 c 128,-1,52
 711 508 711 508 739 599 c 1,53,-1
 737 758 l 1,37,38
662 590 m 1,54,-1
 377 769 l 2,55,56
 353 787 353 787 338.5 806.5 c 128,-1,57
 324 826 324 826 324 849 c 0,58,59
 324 875 324 875 341 891 c 128,-1,60
 358 907 358 907 388 907 c 0,61,62
 407 907 407 907 423.5 897.5 c 128,-1,63
 440 888 440 888 465 863 c 2,64,-1
 736 590 l 1,65,-1
 662 590 l 1,54,-1
EndSplineSet
EndChar

StartChar: ocircumflex.001
Encoding: 65539 -1 26
Width: 1112
Flags: W
LayerCount: 2
Fore
SplineSet
416 -19 m 0,0,1
 301 -19 301 -19 205 70 c 0,2,3
 110 160 110 160 85 288 c 0,4,5
 32 528 32 528 170 726 c 0,6,7
 307 928 307 928 522 928 c 0,8,9
 643 928 643 928 742 842 c 1,10,11
 837 753 837 753 864 626 c 0,12,13
 890 499 890 499 869 388.5 c 128,-1,14
 848 278 848 278 781 179 c 0,15,16
 711 79 711 79 619.5 30 c 128,-1,17
 528 -19 528 -19 416 -19 c 0,0,1
483 98 m 0,18,19
 536 98 536 98 573.5 133 c 128,-1,20
 611 168 611 168 637 236 c 0,21,22
 665 310 665 310 668.5 393.5 c 128,-1,23
 672 477 672 477 652 574 c 0,24,25
 602 813 602 813 466 813 c 0,26,27
 365 813 365 813 313 670 c 0,28,29
 284 595 284 595 281 510.5 c 128,-1,30
 278 426 278 426 298 332 c 0,31,32
 324 213 324 213 370 155.5 c 128,-1,33
 416 98 416 98 483 98 c 0,18,19
EndSplineSet
EndChar

StartChar: dagger
Encoding: 8224 8224 30
Width: 932
Flags: W
LayerCount: 2
Fore
SplineSet
347 -231 m 1,0,-1
 567 622 l 1,1,-1
 248 592 l 1,2,-1
 297 700 l 1,3,-1
 576 668 l 1,4,-1
 607 1066 l 1,5,-1
 755 1093 l 1,6,-1
 621 668 l 1,7,-1
 941 700 l 1,8,-1
 895 592 l 1,9,-1
 612 622 l 1,10,-1
 496 -213 l 1,11,-1
 347 -231 l 1,0,-1
EndSplineSet
EndChar

StartChar: degree
Encoding: 176 176 31
Width: 409
Flags: W
LayerCount: 2
Fore
SplineSet
395 844 m 0,0,1
 344 844 344 844 307.5 880 c 128,-1,2
 271 916 271 916 271 968 c 0,3,4
 271 1021 271 1021 307.5 1057 c 128,-1,5
 344 1093 344 1093 395 1093 c 0,6,7
 447 1093 447 1093 483 1057 c 128,-1,8
 519 1021 519 1021 519 968 c 0,9,10
 519 916 519 916 483 880 c 128,-1,11
 447 844 447 844 395 844 c 0,0,1
395 888 m 256,12,13
 427 888 427 888 450.5 912 c 128,-1,14
 474 936 474 936 474 968 c 256,15,16
 474 1000 474 1000 450.5 1024 c 128,-1,17
 427 1048 427 1048 395 1048 c 256,18,19
 363 1048 363 1048 339 1024 c 128,-1,20
 315 1000 315 1000 315 968 c 256,21,22
 315 936 315 936 339 912 c 128,-1,23
 363 888 363 888 395 888 c 256,12,13
EndSplineSet
EndChar

StartChar: bullet
Encoding: 8226 8226 32
Width: 931
Flags: W
LayerCount: 2
Fore
SplineSet
817 662 m 256,0,1
 817 517 817 517 713.5 414 c 128,-1,2
 610 311 610 311 465 311 c 256,3,4
 320 311 320 311 217 414 c 128,-1,5
 114 517 114 517 114 662 c 256,6,7
 114 807 114 807 217 910 c 128,-1,8
 320 1013 320 1013 465 1013 c 256,9,10
 610 1013 610 1013 713.5 910 c 128,-1,11
 817 807 817 807 817 662 c 256,0,1
EndSplineSet
EndChar

StartChar: registered
Encoding: 174 174 33
Width: 897
Flags: W
LayerCount: 2
Fore
SplineSet
580 445 m 0,0,1
 448 445 448 445 354.5 538.5 c 128,-1,2
 261 632 261 632 261 764 c 256,3,4
 261 896 261 896 354.5 990 c 128,-1,5
 448 1084 448 1084 580 1084 c 0,6,7
 714 1084 714 1084 807 990 c 128,-1,8
 900 896 900 896 900 764 c 256,9,10
 900 632 900 632 806.5 538.5 c 128,-1,11
 713 445 713 445 580 445 c 0,0,1
580 484 m 0,12,13
 695 484 695 484 777.5 567 c 128,-1,14
 860 650 860 650 860 764 c 256,15,16
 860 878 860 878 777.5 961 c 128,-1,17
 695 1044 695 1044 580 1044 c 0,18,19
 466 1044 466 1044 383.5 961 c 128,-1,20
 301 878 301 878 301 764 c 256,21,22
 301 650 301 650 383.5 567 c 128,-1,23
 466 484 466 484 580 484 c 0,12,13
529 737 m 1,24,-1
 501 596 l 1,25,-1
 394 596 l 1,26,-1
 403 639 l 1,27,-1
 456 639 l 1,28,-1
 511 915 l 1,29,-1
 458 915 l 1,30,-1
 466 959 l 1,31,-1
 598 959 l 2,32,33
 751 959 751 959 751 875 c 0,34,35
 751 800 751 800 650 750 c 1,36,-1
 685 639 l 1,37,-1
 747 639 l 1,38,-1
 738 596 l 1,39,-1
 641 596 l 1,40,-1
 591 737 l 1,41,-1
 529 737 l 1,24,-1
538 782 m 1,42,-1
 574 782 l 2,43,44
 697 782 697 782 697 866 c 0,45,46
 697 915 697 915 607 915 c 2,47,-1
 564 915 l 1,48,-1
 538 782 l 1,42,-1
EndSplineSet
EndChar

StartChar: copyright
Encoding: 169 169 34
Width: 1244
Flags: W
LayerCount: 2
Fore
SplineSet
725 -27 m 0,0,1
 495 -27 495 -27 330.5 137 c 128,-1,2
 166 301 166 301 166 533 c 256,3,4
 166 765 166 765 330.5 929 c 128,-1,5
 495 1093 495 1093 725 1093 c 0,6,7
 958 1093 958 1093 1122 929 c 128,-1,8
 1286 765 1286 765 1286 533 c 256,9,10
 1286 301 1286 301 1122 137 c 128,-1,11
 958 -27 958 -27 725 -27 c 0,0,1
725 18 m 0,12,13
 939 18 939 18 1090 169 c 128,-1,14
 1241 320 1241 320 1241 533 c 256,15,16
 1241 746 1241 746 1090 897 c 128,-1,17
 939 1048 939 1048 725 1048 c 0,18,19
 513 1048 513 1048 362 897 c 128,-1,20
 211 746 211 746 211 533 c 256,21,22
 211 320 211 320 362 169 c 128,-1,23
 513 18 513 18 725 18 c 0,12,13
890 246 m 1,24,25
 785 213 785 213 704 213 c 0,26,27
 580 213 580 213 508 279.5 c 128,-1,28
 436 346 436 346 436 462 c 0,29,30
 436 625 436 625 541 734.5 c 128,-1,31
 646 844 646 844 805 844 c 0,32,33
 896 844 896 844 1003 814 c 1,34,-1
 967 675 l 1,35,-1
 915 684 l 1,36,-1
 923 766 l 1,37,38
 854 798 854 798 792 798 c 0,39,40
 688 798 688 798 616 700 c 128,-1,41
 544 602 544 602 544 462 c 0,42,43
 544 271 544 271 722 271 c 0,44,45
 823 271 823 271 902 307 c 1,46,-1
 890 246 l 1,24,25
EndSplineSet
EndChar

StartChar: trademark
Encoding: 8482 8482 35
Width: 1333
Flags: W
LayerCount: 2
Fore
SplineSet
440 1021 m 1,0,-1
 307 1021 l 1,1,-1
 288 923 l 1,2,-1
 225 923 l 1,3,-1
 254 1066 l 1,4,-1
 751 1066 l 1,5,-1
 723 923 l 1,6,-1
 661 923 l 1,7,-1
 679 1021 l 1,8,-1
 546 1021 l 1,9,-1
 456 569 l 1,10,-1
 554 569 l 1,11,-1
 545 524 l 1,12,-1
 243 524 l 1,13,-1
 253 569 l 1,14,-1
 350 569 l 1,15,-1
 440 1021 l 1,0,-1
1011 569 m 1,16,-1
 942 956 l 1,17,-1
 857 524 l 1,18,-1
 688 524 l 1,19,-1
 697 569 l 1,20,-1
 794 569 l 1,21,-1
 884 1021 l 1,22,-1
 787 1021 l 1,23,-1
 796 1066 l 1,24,-1
 1036 1066 l 1,25,-1
 1092 747 l 1,26,-1
 1265 1066 l 1,27,-1
 1481 1066 l 1,28,-1
 1473 1021 l 1,29,-1
 1375 1021 l 1,30,-1
 1285 569 l 1,31,-1
 1383 569 l 1,32,-1
 1373 524 l 1,33,-1
 1178 524 l 1,34,-1
 1270 985 l 1,35,-1
 1041 569 l 1,36,-1
 1011 569 l 1,16,-1
EndSplineSet
EndChar

StartChar: logicalnot
Encoding: 172 172 39
Width: 932
Flags: W
LayerCount: 2
Fore
SplineSet
177 510 m 1,0,-1
 193 590 l 1,1,-1
 975 590 l 1,2,-1
 906 248 l 1,3,-1
 814 248 l 1,4,-1
 866 510 l 1,5,-1
 177 510 l 1,0,-1
EndSplineSet
EndChar

StartChar: florin
Encoding: 402 402 40
Width: 679
Flags: W
LayerCount: 2
Fore
SplineSet
158 -231 m 1,0,-1
 210 -18 l 1,1,-1
 286 364 l 1,2,-1
 108 364 l 1,3,-1
 117 409 l 1,4,-1
 294 409 l 1,5,-1
 298 427 l 2,6,7
 330 586 330 586 463 692.5 c 128,-1,8
 596 799 596 799 761 799 c 0,9,10
 818 799 818 799 860 784 c 1,11,-1
 764 678 l 1,12,13
 712 729 712 729 643 729 c 0,14,15
 500 729 500 729 457 512 c 2,16,-1
 436 409 l 1,17,-1
 623 409 l 1,18,-1
 614 364 l 1,19,-1
 427 364 l 1,20,-1
 313 -213 l 1,21,-1
 158 -231 l 1,0,-1
EndSplineSet
EndChar

StartChar: ellipsis
Encoding: 8230 8230 41
Width: 1827
Flags: W
LayerCount: 2
Fore
SplineSet
758 113 m 0,0,1
 758 144 758 144 809.5 245.5 c 128,-1,2
 861 347 861 347 876 355 c 0,3,4
 907 369 907 369 964.5 307.5 c 128,-1,5
 1022 246 1022 246 1026 211 c 1,6,7
 1026 166 1026 166 977.5 79.5 c 128,-1,8
 929 -7 929 -7 908 -7 c 0,9,10
 899 -7 899 -7 851 26.5 c 128,-1,11
 803 60 803 60 778 79 c 0,12,13
 758 96 758 96 758 113 c 0,0,1
1308 113 m 0,14,15
 1308 144 1308 144 1359 245.5 c 128,-1,16
 1410 347 1410 347 1426 355 c 0,17,18
 1457 369 1457 369 1514.5 307.5 c 128,-1,19
 1572 246 1572 246 1575 211 c 0,20,21
 1575 166 1575 166 1527 79.5 c 128,-1,22
 1479 -7 1479 -7 1458 -7 c 0,23,24
 1449 -7 1449 -7 1401 26.5 c 128,-1,25
 1353 60 1353 60 1328 79 c 0,26,27
 1308 96 1308 96 1308 113 c 0,14,15
211 113 m 0,28,29
 211 144 211 144 262 245.5 c 128,-1,30
 313 347 313 347 329 355 c 0,31,32
 360 369 360 369 417.5 307.5 c 128,-1,33
 475 246 475 246 478 211 c 0,34,35
 478 166 478 166 430 79.5 c 128,-1,36
 382 -7 382 -7 361 -7 c 0,37,38
 352 -7 352 -7 304 26.5 c 128,-1,39
 256 60 256 60 231 79 c 0,40,41
 211 96 211 96 211 113 c 0,28,29
EndSplineSet
EndChar

StartChar: endash
Encoding: 8211 8211 42
Width: 434
Flags: W
LayerCount: 2
Fore
SplineSet
434 154 m 1,0,-1
 0 154 l 1,1,-1
 0 234 l 1,2,-1
 434 234 l 1,3,-1
 434 154 l 1,0,-1
EndSplineSet
EndChar

StartChar: emdash
Encoding: 8212 8212 43
Width: 1862
Flags: W
LayerCount: 2
Fore
SplineSet
1866 572 m 1,0,-1
 -4 572 l 1,1,-1
 -4 732 l 1,2,-1
 1866 732 l 1,3,-1
 1866 572 l 1,0,-1
EndSplineSet
EndChar

StartChar: quotedblleft
Encoding: 8220 8220 44
Width: 762
Flags: W
LayerCount: 2
Fore
SplineSet
420 1071 m 0,0,1
 422 1154 422 1154 478 1235.5 c 128,-1,2
 534 1317 534 1317 603 1350 c 1,3,-1
 643 1276 l 1,4,5
 623 1264 623 1264 594.5 1233.5 c 128,-1,6
 566 1203 566 1203 553 1154 c 1,7,8
 638 1118 638 1118 634 1048 c 0,9,10
 634 1027 634 1027 626 1008.5 c 128,-1,11
 618 990 618 990 604 976 c 128,-1,12
 590 962 590 962 571.5 954 c 128,-1,13
 553 946 553 946 532 946 c 0,14,15
 505 946 505 946 484.5 956.5 c 128,-1,16
 464 967 464 967 449.5 984.5 c 128,-1,17
 435 1002 435 1002 427.5 1024.5 c 128,-1,18
 420 1047 420 1047 420 1071 c 0,0,1
140 1071 m 0,19,20
 141 1154 141 1154 197.5 1235.5 c 128,-1,21
 254 1317 254 1317 324 1350 c 1,22,-1
 364 1276 l 1,23,24
 344 1264 344 1264 315.5 1233.5 c 128,-1,25
 287 1203 287 1203 274 1154 c 1,26,27
 359 1118 359 1118 355 1048 c 0,28,29
 355 1027 355 1027 347 1008.5 c 128,-1,30
 339 990 339 990 324.5 976 c 128,-1,31
 310 962 310 962 291 954 c 128,-1,32
 272 946 272 946 251 946 c 0,33,34
 225 946 225 946 204.5 956.5 c 128,-1,35
 184 967 184 967 169.5 984.5 c 128,-1,36
 155 1002 155 1002 147.5 1024.5 c 128,-1,37
 140 1047 140 1047 140 1071 c 0,19,20
EndSplineSet
EndChar

StartChar: quotedblright
Encoding: 8221 8221 45
Width: 743
Flags: W
LayerCount: 2
Fore
SplineSet
363 1225 m 0,0,1
 361 1142 361 1142 305 1060.5 c 128,-1,2
 249 979 249 979 180 946 c 1,3,-1
 140 1020 l 1,4,5
 160 1032 160 1032 188.5 1062.5 c 128,-1,6
 217 1093 217 1093 230 1142 c 1,7,8
 145 1178 145 1178 149 1248 c 0,9,10
 149 1269 149 1269 157 1287.5 c 128,-1,11
 165 1306 165 1306 179 1320 c 128,-1,12
 193 1334 193 1334 211.5 1342 c 128,-1,13
 230 1350 230 1350 251 1350 c 0,14,15
 278 1350 278 1350 298.5 1339.5 c 128,-1,16
 319 1329 319 1329 333.5 1311.5 c 128,-1,17
 348 1294 348 1294 355.5 1271.5 c 128,-1,18
 363 1249 363 1249 363 1225 c 0,0,1
643 1225 m 0,19,20
 642 1142 642 1142 585.5 1060.5 c 128,-1,21
 529 979 529 979 459 946 c 1,22,-1
 419 1020 l 1,23,24
 439 1032 439 1032 467.5 1062.5 c 128,-1,25
 496 1093 496 1093 509 1142 c 1,26,27
 424 1178 424 1178 428 1248 c 0,28,29
 428 1269 428 1269 436 1287.5 c 128,-1,30
 444 1306 444 1306 458.5 1320 c 128,-1,31
 473 1334 473 1334 492 1342 c 128,-1,32
 511 1350 511 1350 532 1350 c 0,33,34
 558 1350 558 1350 578.5 1339.5 c 128,-1,35
 599 1329 599 1329 613.5 1311.5 c 128,-1,36
 628 1294 628 1294 635.5 1271.5 c 128,-1,37
 643 1249 643 1249 643 1225 c 0,19,20
EndSplineSet
EndChar

StartChar: divide
Encoding: 247 247 46
Width: 1093
Flags: W
LayerCount: 2
Fore
SplineSet
933 383 m 1,0,-1
 157 383 l 1,1,-1
 157 489 l 1,2,-1
 933 489 l 1,3,-1
 933 383 l 1,0,-1
535 249 m 256,4,5
 577 249 577 249 606.5 219.5 c 128,-1,6
 636 190 636 190 636 148 c 256,7,8
 636 106 636 106 606.5 76 c 128,-1,9
 577 46 577 46 535 46 c 256,10,11
 493 46 493 46 463 76 c 128,-1,12
 433 106 433 106 433 148 c 256,13,14
 433 190 433 190 463 219.5 c 128,-1,15
 493 249 493 249 535 249 c 256,4,5
535 839 m 256,16,17
 577 839 577 839 606.5 809.5 c 128,-1,18
 636 780 636 780 636 738 c 256,19,20
 636 696 636 696 606.5 666 c 128,-1,21
 577 636 577 636 535 636 c 256,22,23
 493 636 493 636 463 666 c 128,-1,24
 433 696 433 696 433 738 c 256,25,26
 433 780 433 780 463 809.5 c 128,-1,27
 493 839 493 839 535 839 c 256,16,17
EndSplineSet
EndChar

StartChar: lozenge
Encoding: 9674 9674 47
Width: 1118
Flags: W
LayerCount: 2
Fore
SplineSet
1003 699 m 1,0,-1
 560 197 l 1,1,-1
 117 699 l 1,2,-1
 560 1202 l 1,3,-1
 1003 699 l 1,0,-1
848 699 m 1,4,-1
 560 1036 l 1,5,-1
 271 699 l 1,6,-1
 560 364 l 1,7,-1
 848 699 l 1,4,-1
EndSplineSet
EndChar

StartChar: fraction
Encoding: 8260 8260 48
Width: 742
Flags: W
LayerCount: 2
Fore
SplineSet
740 1101 m 1,0,-1
 101 -82 l 1,1,-1
 -9 -82 l 1,2,-1
 629 1101 l 1,3,-1
 740 1101 l 1,0,-1
EndSplineSet
EndChar

StartChar: guilsinglleft
Encoding: 8249 8249 49
Width: 1117
Flags: W
LayerCount: 2
Fore
SplineSet
955 58 m 1,0,-1
 150 444 l 1,1,-1
 150 534 l 1,2,-1
 955 918 l 1,3,-1
 955 784 l 1,4,-1
 331 489 l 1,5,-1
 955 192 l 1,6,-1
 955 58 l 1,0,-1
EndSplineSet
EndChar

StartChar: daggerdbl
Encoding: 8225 8225 52
Width: 932
Flags: W
LayerCount: 2
Fore
SplineSet
349 -231 m 1,0,-1
 481 185 l 1,1,-1
 161 154 l 1,2,-1
 211 261 l 1,3,-1
 490 229 l 1,4,-1
 567 616 l 1,5,-1
 247 586 l 1,6,-1
 297 693 l 1,7,-1
 575 661 l 1,8,-1
 608 1066 l 1,9,-1
 758 1093 l 1,10,-1
 620 661 l 1,11,-1
 940 693 l 1,12,-1
 889 586 l 1,13,-1
 611 616 l 1,14,-1
 535 229 l 1,15,-1
 855 261 l 1,16,-1
 804 154 l 1,17,-1
 525 185 l 1,18,-1
 499 -213 l 1,19,-1
 349 -231 l 1,0,-1
EndSplineSet
EndChar

StartChar: middot.001
Encoding: 8729 8729 53
Width: 620
Flags: W
LayerCount: 2
Fore
SplineSet
429 516 m 1,0,-1
 190 516 l 1,1,-1
 190 789 l 1,2,-1
 429 789 l 1,3,-1
 429 516 l 1,0,-1
EndSplineSet
EndChar

StartChar: quotesinglbase
Encoding: 8218 8218 54
Width: 418
Flags: W
LayerCount: 2
Fore
SplineSet
103 128 m 1,0,-1
 247 231 l 1,1,-1
 353 90 l 1,2,3
 345 -56 345 -56 262.5 -134.5 c 128,-1,4
 180 -213 180 -213 36 -213 c 1,5,-1
 76 -168 l 1,6,7
 189 -158 189 -158 211 -18 c 1,8,-1
 103 128 l 1,0,-1
EndSplineSet
EndChar

StartChar: quotedblbase
Encoding: 8222 8222 55
Width: 684
Flags: W
LayerCount: 2
Fore
SplineSet
91 92 m 1,0,-1
 204 178 l 1,1,-1
 292 64 l 1,2,3
 270 -213 270 -213 31 -213 c 1,4,-1
 60 -168 l 1,5,6
 166 -148 166 -148 179 -16 c 1,7,-1
 91 92 l 1,0,-1
401 92 m 1,8,-1
 516 178 l 1,9,-1
 602 64 l 1,10,11
 581 -213 581 -213 341 -213 c 1,12,-1
 372 -168 l 1,13,14
 476 -148 476 -148 490 -16 c 1,15,-1
 401 92 l 1,8,-1
EndSplineSet
EndChar

StartChar: perthousand
Encoding: 8240 8240 56
Width: 1571
Flags: W
LayerCount: 2
Fore
SplineSet
385 533 m 0,0,1
 304 533 304 533 254.5 584.5 c 128,-1,2
 205 636 205 636 205 722 c 0,3,4
 205 865 205 865 286.5 965.5 c 128,-1,5
 368 1066 368 1066 483 1066 c 0,6,7
 567 1066 567 1066 617.5 1014.5 c 128,-1,8
 668 963 668 963 668 877 c 0,9,10
 668 733 668 733 585.5 633 c 128,-1,11
 503 533 503 533 385 533 c 0,0,1
311 715 m 0,12,13
 311 578 311 578 398 578 c 0,14,15
 463 578 463 578 517 671.5 c 128,-1,16
 571 765 571 765 571 881 c 0,17,18
 571 1022 571 1022 483 1022 c 0,19,20
 416 1022 416 1022 363.5 928 c 128,-1,21
 311 834 311 834 311 715 c 0,12,13
850 0 m 0,22,23
 769 0 769 0 719.5 51.5 c 128,-1,24
 670 103 670 103 670 189 c 0,25,26
 670 331 670 331 751 432 c 128,-1,27
 832 533 832 533 947 533 c 0,28,29
 1031 533 1031 533 1081.5 481.5 c 128,-1,30
 1132 430 1132 430 1132 344 c 0,31,32
 1132 200 1132 200 1049.5 100 c 128,-1,33
 967 0 967 0 850 0 c 0,22,23
776 182 m 0,34,35
 776 44 776 44 862 44 c 0,36,37
 929 44 929 44 982 138 c 128,-1,38
 1035 232 1035 232 1035 348 c 0,39,40
 1035 490 1035 490 948 490 c 0,41,42
 880 490 880 490 828 395.5 c 128,-1,43
 776 301 776 301 776 182 c 0,34,35
131 -27 m 1,44,-1
 1111 1093 l 1,45,-1
 1206 1093 l 1,46,-1
 225 -27 l 1,47,-1
 131 -27 l 1,44,-1
1376 0 m 0,48,49
 1294 0 1294 0 1244.5 51.5 c 128,-1,50
 1195 103 1195 103 1195 189 c 0,51,52
 1195 331 1195 331 1276.5 432 c 128,-1,53
 1358 533 1358 533 1473 533 c 0,54,55
 1557 533 1557 533 1607.5 481.5 c 128,-1,56
 1658 430 1658 430 1658 344 c 0,57,58
 1658 200 1658 200 1575.5 100 c 128,-1,59
 1493 0 1493 0 1376 0 c 0,48,49
1301 183 m 0,60,61
 1301 44 1301 44 1389 44 c 0,62,63
 1453 44 1453 44 1507 138 c 128,-1,64
 1561 232 1561 232 1561 347 c 0,65,66
 1561 490 1561 490 1473 490 c 0,67,68
 1406 490 1406 490 1353.5 395.5 c 128,-1,69
 1301 301 1301 301 1301 183 c 0,60,61
EndSplineSet
EndChar

StartChar: multiply
Encoding: 215 215 60
Width: 780
Flags: W
LayerCount: 2
Fore
SplineSet
141 297 m 1,0,-1
 311 467 l 1,1,-1
 141 637 l 1,2,-1
 240 736 l 1,3,-1
 410 566 l 1,4,-1
 580 736 l 1,5,-1
 679 637 l 1,6,-1
 509 467 l 1,7,-1
 679 297 l 1,8,-1
 580 198 l 1,9,-1
 410 368 l 1,10,-1
 240 198 l 1,11,-1
 141 297 l 1,0,-1
EndSplineSet
EndChar

StartChar: macron
Encoding: 175 175 61
Width: 1118
Flags: W
LayerCount: 2
Fore
SplineSet
1134 1259 m 1,0,-1
 -16 1259 l 1,1,-1
 -16 1389 l 1,2,-1
 1134 1389 l 1,3,-1
 1134 1259 l 1,0,-1
EndSplineSet
EndChar

StartChar: periodcentered
Encoding: 183 183 62
Width: 724
Flags: W
LayerCount: 2
Fore
SplineSet
482 832 m 1,0,-1
 243 832 l 1,1,-1
 243 1117 l 1,2,-1
 482 1117 l 1,3,-1
 482 832 l 1,0,-1
EndSplineSet
EndChar

StartChar: H22073
Encoding: 9633 9633 63
Width: 1237
Flags: W
LayerCount: 2
Fore
SplineSet
146 944 m 1,0,-1
 1090 944 l 1,1,-1
 1090 0 l 1,2,-1
 146 0 l 1,3,-1
 146 944 l 1,0,-1
222 868 m 1,4,-1
 222 76 l 1,5,-1
 1014 76 l 1,6,-1
 1014 868 l 1,7,-1
 222 868 l 1,4,-1
EndSplineSet
EndChar

StartChar: H18543
Encoding: 9642 9642 64
Width: 1089
Flags: W
LayerCount: 2
Fore
SplineSet
886 894 m 1,0,-1
 886 200 l 1,1,-1
 192 200 l 1,2,-1
 192 894 l 1,3,-1
 886 894 l 1,0,-1
EndSplineSet
EndChar

StartChar: H18551
Encoding: 9643 9643 65
Width: 1089
Flags: W
LayerCount: 2
Fore
SplineSet
888 930 m 1,0,-1
 888 235 l 1,1,-1
 193 235 l 1,2,-1
 193 930 l 1,3,-1
 888 930 l 1,0,-1
774 816 m 1,4,-1
 307 816 l 1,5,-1
 307 349 l 1,6,-1
 774 349 l 1,7,-1
 774 816 l 1,4,-1
EndSplineSet
EndChar

StartChar: H18533
Encoding: 9679 9679 66
Width: 1339
Flags: W
LayerCount: 2
Fore
SplineSet
204 775 m 0,0,1
 204 976 204 976 345 1117 c 128,-1,2
 486 1258 486 1258 685 1258 c 0,3,4
 885 1258 885 1258 1026 1117 c 128,-1,5
 1167 976 1167 976 1167 775 c 0,6,7
 1167 577 1167 577 1026 436 c 128,-1,8
 885 295 885 295 685 295 c 0,9,10
 486 295 486 295 345 436 c 128,-1,11
 204 577 204 577 204 775 c 0,0,1
EndSplineSet
EndChar

StartChar: openbullet
Encoding: 9702 9702 67
Width: 1089
Flags: W
LayerCount: 2
Fore
SplineSet
544 1392 m 0,0,1
 700 1392 700 1392 810.5 1281.5 c 128,-1,2
 921 1171 921 1171 921 1015 c 256,3,4
 921 859 921 859 810.5 749 c 128,-1,5
 700 639 700 639 544 639 c 256,6,7
 388 639 388 639 278 749 c 128,-1,8
 168 859 168 859 168 1015 c 256,9,10
 168 1171 168 1171 277.5 1281.5 c 128,-1,11
 387 1392 387 1392 544 1392 c 0,0,1
544 1278 m 0,12,13
 435 1278 435 1278 358.5 1200.5 c 128,-1,14
 282 1123 282 1123 282 1015 c 0,15,16
 282 906 282 906 359 829.5 c 128,-1,17
 436 753 436 753 544 753 c 256,18,19
 652 753 652 753 729.5 829.5 c 128,-1,20
 807 906 807 906 807 1015 c 0,21,22
 807 1123 807 1123 730.5 1200.5 c 128,-1,23
 654 1278 654 1278 544 1278 c 0,12,13
EndSplineSet
EndChar

StartChar: uniFFFC
Encoding: 65532 65532 68
Width: 2048
Flags: W
LayerCount: 2
Fore
SplineSet
2048 1150 m 1,0,-1
 1948 1150 l 1,1,-1
 1948 1373 l 1,2,-1
 1725 1373 l 1,3,-1
 1725 1473 l 1,4,-1
 2048 1473 l 1,5,-1
 2048 1150 l 1,0,-1
1473 1373 m 1,6,-1
 1150 1373 l 1,7,-1
 1150 1473 l 1,8,-1
 1473 1473 l 1,9,-1
 1473 1373 l 1,6,-1
2048 575 m 1,10,-1
 1948 575 l 1,11,-1
 1948 898 l 1,12,-1
 2048 898 l 1,13,-1
 2048 575 l 1,10,-1
1782 611 m 2,14,15
 1782 370 1782 370 1571 370 c 0,16,17
 1485 370 1485 370 1433 415 c 1,18,-1
 1506 494 l 1,19,20
 1531 468 1531 468 1571 468 c 0,21,22
 1666 468 1666 468 1666 606 c 2,23,-1
 1666 1090 l 1,24,-1
 1782 1090 l 1,25,-1
 1782 611 l 2,14,15
898 1373 m 1,26,-1
 575 1373 l 1,27,-1
 575 1473 l 1,28,-1
 898 1473 l 1,29,-1
 898 1373 l 1,26,-1
2048 0 m 1,30,-1
 1725 0 l 1,31,-1
 1725 100 l 1,32,-1
 1948 100 l 1,33,-1
 1948 323 l 1,34,-1
 2048 323 l 1,35,-1
 2048 0 l 1,30,-1
1423 591 m 0,36,37
 1423 382 1423 382 1149 382 c 2,38,-1
 909 382 l 1,39,-1
 909 1090 l 1,40,-1
 1144 1090 l 2,41,42
 1393 1090 1393 1090 1393 904 c 0,43,44
 1393 813 1393 813 1304 759 c 1,45,46
 1423 713 1423 713 1423 591 c 0,36,37
323 1373 m 1,47,-1
 100 1373 l 1,48,-1
 100 1150 l 1,49,-1
 0 1150 l 1,50,-1
 0 1473 l 1,51,-1
 323 1473 l 1,52,-1
 323 1373 l 1,47,-1
1473 0 m 1,53,-1
 1150 0 l 1,54,-1
 1150 100 l 1,55,-1
 1473 100 l 1,56,-1
 1473 0 l 1,53,-1
854 735 m 0,57,58
 854 562 854 562 772 466 c 128,-1,59
 690 370 690 370 537 370 c 256,60,61
 384 370 384 370 303.5 466 c 128,-1,62
 223 562 223 562 223 735 c 0,63,64
 223 910 223 910 303.5 1006 c 128,-1,65
 384 1102 384 1102 537 1102 c 256,66,67
 690 1102 690 1102 772 1006 c 128,-1,68
 854 910 854 910 854 735 c 0,57,58
100 575 m 1,69,-1
 0 575 l 1,70,-1
 0 898 l 1,71,-1
 100 898 l 1,72,-1
 100 575 l 1,69,-1
898 0 m 1,73,-1
 575 0 l 1,74,-1
 575 100 l 1,75,-1
 898 100 l 1,76,-1
 898 0 l 1,73,-1
323 0 m 1,77,-1
 0 0 l 1,78,-1
 0 323 l 1,79,-1
 100 323 l 1,80,-1
 100 100 l 1,81,-1
 323 100 l 1,82,-1
 323 0 l 1,77,-1
1277 893 m 0,83,84
 1277 992 1277 992 1114 992 c 2,85,-1
 1025 992 l 1,86,-1
 1025 798 l 1,87,-1
 1126 798 l 2,88,89
 1277 798 1277 798 1277 893 c 0,83,84
1307 591 m 0,90,91
 1307 700 1307 700 1136 700 c 2,92,-1
 1025 700 l 1,93,-1
 1025 480 l 1,94,-1
 1149 480 l 2,95,96
 1307 480 1307 480 1307 591 c 0,90,91
738 735 m 0,97,98
 738 1004 738 1004 537 1004 c 0,99,100
 339 1004 339 1004 339 735 c 0,101,102
 339 468 339 468 537 468 c 0,103,104
 738 468 738 468 738 735 c 0,97,98
EndSplineSet
EndChar

StartChar: zerowidthnonjoiner
Encoding: 8204 8204 88
Width: 0
GlyphClass: 2
Flags: W
LayerCount: 2
Fore
SplineSet
36 1289 m 1,0,-1
 36 -275 l 1,1,-1
 -36 -275 l 1,2,-1
 -36 1289 l 1,3,-1
 36 1289 l 1,0,-1
EndSplineSet
EndChar

StartChar: zerowidthjoiner
Encoding: 8205 8205 89
Width: 0
GlyphClass: 2
Flags: W
LayerCount: 2
Fore
SplineSet
36 -275 m 1,0,-1
 -36 -275 l 1,1,-1
 -36 1114 l 1,2,-1
 -170 978 l 1,3,-1
 -219 1027 l 1,4,-1
 -48 1196 l 1,5,-1
 -219 1364 l 1,6,-1
 -170 1413 l 1,7,-1
 0 1242 l 1,8,-1
 170 1413 l 1,9,-1
 219 1364 l 1,10,-1
 48 1196 l 1,11,-1
 219 1027 l 1,12,-1
 170 978 l 1,13,-1
 36 1114 l 1,14,-1
 36 -275 l 1,0,-1
EndSplineSet
EndChar

StartChar: lefttorightmark
Encoding: 8206 8206 90
Width: 0
GlyphClass: 2
Flags: W
LayerCount: 2
Fore
SplineSet
430 1198 m 1,0,-1
 213 984 l 1,1,-1
 164 1033 l 1,2,-1
 301 1163 l 1,3,-1
 35 1163 l 1,4,-1
 35 -275 l 1,5,-1
 -36 -275 l 1,6,-1
 -36 1234 l 1,7,-1
 301 1234 l 1,8,-1
 164 1364 l 1,9,-1
 213 1413 l 1,10,-1
 430 1198 l 1,0,-1
EndSplineSet
EndChar

StartChar: righttoleftmark
Encoding: 8207 8207 91
Width: 0
GlyphClass: 2
Flags: W
LayerCount: 2
Fore
SplineSet
35 -275 m 1,0,-1
 -36 -275 l 1,1,-1
 -36 1163 l 1,2,-1
 -302 1163 l 1,3,-1
 -165 1033 l 1,4,-1
 -214 984 l 1,5,-1
 -431 1198 l 1,6,-1
 -214 1413 l 1,7,-1
 -165 1364 l 1,8,-1
 -302 1234 l 1,9,-1
 35 1234 l 1,10,-1
 35 -275 l 1,0,-1
EndSplineSet
EndChar

StartChar: afii57388.001
Encoding: 1644 1644 92
Width: 353
GlyphClass: 2
Flags: W
LayerCount: 2
Fore
SplineSet
210 654 m 0,0,1
 200 627 200 627 185 603 c 0,2,3
 180 597 180 597 173.5 593.5 c 128,-1,4
 167 590 167 590 162 590 c 128,-1,5
 157 590 157 590 154.5 593 c 128,-1,6
 152 596 152 596 155 603 c 0,7,8
 187 660 187 660 202.5 713.5 c 128,-1,9
 218 767 218 767 218 800 c 1,10,11
 194 806 194 806 179 816 c 128,-1,12
 164 826 164 826 155 837.5 c 128,-1,13
 146 849 146 849 143 859 c 128,-1,14
 140 869 140 869 140 874 c 0,15,16
 140 890 140 890 145.5 907 c 128,-1,17
 151 924 151 924 160.5 937.5 c 128,-1,18
 170 951 170 951 183.5 959.5 c 128,-1,19
 197 968 197 968 213 968 c 0,20,21
 272 968 272 968 272 874 c 0,22,23
 272 859 272 859 268 835 c 128,-1,24
 264 811 264 811 256 781.5 c 128,-1,25
 248 752 248 752 236.5 719.5 c 128,-1,26
 225 687 225 687 210 654 c 0,0,1
EndSplineSet
EndChar

StartChar: afii57409
Encoding: 1569 1569 93
Width: 581
GlyphClass: 2
Flags: W
AnchorPoint: "Anchor-3" -15 -435 basechar 0
AnchorPoint: "Anchor-2" -45 705 basechar 0
LayerCount: 2
Fore
SplineSet
511 232 m 0,0,1
 531 229 531 229 448 95 c 1,2,3
 369 77 369 77 295 47.5 c 128,-1,4
 221 18 221 18 193 -4 c 0,5,6
 183 -16 183 -16 199 49 c 1,7,-1
 283 111 l 1,8,9
 192 143 192 143 186.5 166 c 128,-1,10
 181 189 181 189 181 212 c 0,11,12
 181 281 181 281 240 368.5 c 128,-1,13
 299 456 299 456 362 456 c 0,14,15
 420 456 420 456 428 400 c 1,16,17
 424 311 424 311 387 286 c 1,18,19
 350 327 350 327 319 328 c 0,20,21
 277 326 277 326 260 291 c 1,22,23
 260 260 260 260 326 245 c 0,24,25
 372 238 372 238 418.5 235 c 128,-1,26
 465 232 465 232 511 232 c 0,0,1
EndSplineSet
EndChar

StartChar: afii57440
Encoding: 1600 1600 94
Width: 518
GlyphClass: 2
Flags: W
LayerCount: 2
Fore
SplineSet
-40 0 m 1,0,-1
 -40 410 l 1,1,-1
 551 410 l 1,2,-1
 551 0 l 1,3,-1
 -40 0 l 1,0,-1
EndSplineSet
EndChar

StartChar: afii57453
Encoding: 1613 1613 95
Width: 0
GlyphClass: 4
Flags: W
AnchorPoint: "Anchor-3" 0 0 mark 0
AnchorPoint: "Anchor-1" 0 0 mark 0
LayerCount: 2
Fore
SplineSet
200 136 m 1,0,1
 200 38 200 38 149 8 c 2,2,-1
 -209 -193 l 1,3,4
 -209 -138 -209 -138 -191.5 -110 c 128,-1,5
 -174 -82 -174 -82 -112 -44 c 2,6,-1
 200 136 l 1,0,1
200 332 m 1,7,8
 200 234 200 234 149 204 c 2,9,-1
 -209 3 l 1,10,11
 -209 58 -209 58 -191.5 86 c 128,-1,12
 -174 114 -174 114 -112 152 c 2,13,-1
 200 332 l 1,7,8
EndSplineSet
EndChar

StartChar: afii57381
Encoding: 1642 1642 96
Width: 1351
GlyphClass: 2
Flags: W
LayerCount: 2
Fore
SplineSet
216 1018 m 0,0,1
 218 1163 218 1163 361 1187 c 0,2,3
 439 1199 439 1199 507 1141.5 c 128,-1,4
 575 1084 575 1084 570 1008 c 0,5,6
 568 938 568 938 520 892 c 128,-1,7
 472 846 472 846 402 842 c 0,8,9
 326 838 326 838 271 890.5 c 128,-1,10
 216 943 216 943 216 1018 c 0,0,1
1002 1199 m 1,11,-1
 1177 1199 l 1,12,-1
 359 -103 l 1,13,-1
 184 -103 l 1,14,-1
 1002 1199 l 1,11,-1
812 98 m 0,15,16
 816 244 816 244 958 265 c 0,17,18
 1039 277 1039 277 1104 219.5 c 128,-1,19
 1169 162 1169 162 1166 82 c 0,20,21
 1164 12 1164 12 1116 -35 c 128,-1,22
 1068 -82 1068 -82 1000 -84 c 0,23,24
 924 -86 924 -86 868 -29 c 128,-1,25
 812 28 812 28 812 98 c 0,15,16
EndSplineSet
EndChar

StartChar: afii57461
Encoding: 1643 1643 97
Width: 536
GlyphClass: 2
Flags: W
LayerCount: 2
Fore
SplineSet
518 521 m 1,0,-1
 115 -382 l 1,1,-1
 19 -352 l 1,2,-1
 425 551 l 1,3,-1
 518 521 l 1,0,-1
EndSplineSet
EndChar

StartChar: afii63167
Encoding: 1645 1645 98
Width: 1118
GlyphClass: 2
Flags: W
LayerCount: 2
Fore
SplineSet
694 729 m 1,0,-1
 1057 733 l 1,1,-1
 1057 610 l 1,2,-1
 702 612 l 1,3,-1
 971 352 l 1,4,-1
 883 264 l 1,5,-1
 616 539 l 1,6,-1
 623 168 l 1,7,-1
 498 168 l 1,8,-1
 502 539 l 1,9,-1
 236 264 l 1,10,-1
 147 352 l 1,11,-1
 422 614 l 1,12,-1
 63 610 l 1,13,-1
 63 733 l 1,14,-1
 420 729 l 1,15,-1
 170 975 l 1,16,-1
 258 1065 l 1,17,-1
 502 817 l 1,18,-1
 498 1176 l 1,19,-1
 623 1176 l 1,20,-1
 616 813 l 1,21,-1
 860 1065 l 1,22,-1
 948 975 l 1,23,-1
 694 729 l 1,0,-1
EndSplineSet
EndChar

StartChar: afii57459
Encoding: 65543 -1 99
Width: 709
GlyphClass: 2
Flags: W
LayerCount: 2
Fore
SplineSet
654 587 m 0,0,1
 649 103 649 103 577 0 c 1,2,-1
 -30 0 l 1,3,-1
 -30 410 l 1,4,-1
 494 410 l 1,5,6
 490 563 490 563 450 626 c 1,7,-1
 385 548 l 1,8,9
 356 520 356 520 319 507 c 128,-1,10
 282 494 282 494 251 494 c 0,11,12
 172 494 172 494 112 552 c 128,-1,13
 52 610 52 610 52 688 c 1,14,15
 74 805 74 805 127 911.5 c 128,-1,16
 180 1018 180 1018 199 1042 c 0,17,18
 242 1098 242 1098 302 1138 c 1,19,20
 352 1164 352 1164 383 1164 c 0,21,22
 416 1164 416 1164 455 1142.5 c 128,-1,23
 494 1121 494 1121 535 1042 c 1,24,25
 594 914 594 914 626 772 c 0,26,27
 654 649 654 649 654 587 c 0,0,1
388 797 m 1,28,29
 361 880 361 880 302 901 c 0,30,31
 271 911 271 911 238.5 888 c 128,-1,32
 206 865 206 865 206 846 c 0,33,34
 206 821 206 821 243 801.5 c 128,-1,35
 280 782 280 782 319 782 c 1,36,37
 345 786 345 786 361 789.5 c 128,-1,38
 377 793 377 793 388 797 c 1,28,29
EndSplineSet
EndChar

StartChar: afii57543
Encoding: 65544 -1 100
Width: 666
Flags: W
LayerCount: 2
Fore
SplineSet
689 410 m 1,0,-1
 689 0 l 1,1,-1
 554 0 l 1,2,3
 462 22 462 22 428 150 c 1,4,5
 370 19 370 19 355 0 c 1,6,-1
 -20 0 l 1,7,-1
 -20 410 l 1,8,-1
 342 410 l 1,9,10
 331 516 331 516 290 638 c 1,11,-1
 445 865 l 1,12,13
 454 848 454 848 463 823 c 128,-1,14
 472 798 472 798 480 768 c 128,-1,15
 488 738 488 738 494 705.5 c 128,-1,16
 500 673 500 673 504 642 c 0,17,18
 504 633 504 633 505.5 609.5 c 128,-1,19
 507 586 507 586 506.5 553.5 c 128,-1,20
 506 521 506 521 502 483.5 c 128,-1,21
 498 446 498 446 487 410 c 1,22,-1
 534 410 l 1,23,-1
 689 410 l 1,0,-1
EndSplineSet
EndChar

StartChar: afii57534
Encoding: 1749 1749 101
Width: 760
GlyphClass: 2
Flags: W
LayerCount: 2
Fore
SplineSet
727 539 m 0,0,1
 727 430 727 430 698 342 c 0,2,3
 650 211 650 211 612 148 c 0,4,5
 588 101 588 101 514 56 c 0,6,7
 420 0 420 0 337 0 c 0,8,9
 187 0 187 0 149 103 c 0,10,11
 122 172 122 172 155 298 c 0,12,13
 182 401 182 401 204 457 c 0,14,15
 260 610 260 610 322 696 c 1,16,17
 322 762 322 762 382.5 849 c 128,-1,18
 443 936 443 936 474 964 c 1,19,20
 492 929 492 929 539 889 c 0,21,22
 727 727 727 727 727 539 c 0,0,1
548 420 m 1,23,24
 536 448 536 448 521 472 c 0,25,26
 476 546 476 546 377 602 c 1,27,28
 300 494 300 494 300 467 c 0,29,30
 300 445 300 445 314 423 c 128,-1,31
 328 401 328 401 354 391 c 1,32,-1
 379 386 l 1,33,-1
 406 386 l 2,34,35
 438 386 438 386 486 398 c 128,-1,36
 534 410 534 410 548 420 c 1,23,24
EndSplineSet
EndChar

StartChar: afii64240
Encoding: 65546 -1 103
Width: 551
Flags: W
LayerCount: 2
Fore
SplineSet
388 105 m 1,0,1
 345 44 345 44 302 1 c 1,2,-1
 221 53 l 2,3,4
 167 87 167 87 100 146 c 1,5,6
 151 225 151 225 182 261 c 2,7,-1
 259 355 l 1,8,9
 296 298 296 298 375 245 c 2,10,-1
 461 189 l 1,11,-1
 388 105 l 1,0,1
EndSplineSet
EndChar

StartChar: afii64241
Encoding: 65547 -1 104
Width: 756
Flags: W
LayerCount: 2
Fore
SplineSet
631 107 m 2,0,1
 574 37 574 37 545 3 c 1,2,-1
 474 51 l 2,3,4
 377 115 377 115 359 135 c 1,5,-1
 289 54 l 1,6,-1
 246 3 l 1,7,-1
 168 54 l 2,8,9
 106 96 106 96 47 145 c 1,10,11
 66 191 66 191 128 265 c 2,12,-1
 203 352 l 1,13,14
 246 300 246 300 316 255 c 1,15,-1
 380 209 l 1,16,17
 406 247 406 247 451 298 c 2,18,-1
 499 352 l 1,19,20
 533 311 533 311 619 250 c 2,21,-1
 701 193 l 1,22,-1
 631 107 l 2,0,1
EndSplineSet
EndChar

StartChar: afii63954
Encoding: 65548 -1 105
Width: 753
Flags: W
LayerCount: 2
Fore
SplineSet
459 398 m 1,0,1
 419 340 419 340 379 300 c 1,2,-1
 304 350 l 2,3,4
 254 381 254 381 192 435 c 1,5,6
 238 510 238 510 267 543 c 2,7,-1
 339 630 l 1,8,9
 373 578 373 578 446 528 c 2,10,-1
 527 476 l 1,11,-1
 459 398 l 1,0,1
612 100 m 2,12,13
 558 36 558 36 532 3 c 1,14,-1
 466 48 l 2,15,16
 376 108 376 108 359 126 c 1,17,-1
 294 50 l 1,18,-1
 254 3 l 1,19,-1
 181 50 l 2,20,21
 123 89 123 89 69 136 c 1,22,23
 87 178 87 178 144 248 c 2,24,-1
 214 327 l 1,25,26
 254 279 254 279 318 237 c 2,27,-1
 379 195 l 1,28,29
 402 231 402 231 445 277 c 2,30,-1
 489 327 l 1,31,32
 521 289 521 289 601 233 c 2,33,-1
 677 181 l 1,34,-1
 612 100 l 2,12,13
EndSplineSet
EndChar

StartChar: afii57382
Encoding: 65549 -1 106
Width: 722
Flags: W
LayerCount: 2
Fore
SplineSet
258 -414 m 1,0,1
 299 -356 299 -356 339 -315 c 1,2,-1
 416 -365 l 2,3,4
 467 -397 467 -397 531 -453 c 1,5,6
 483 -528 483 -528 453 -562 c 2,7,-1
 380 -651 l 1,8,9
 345 -597 345 -597 270 -547 c 2,10,-1
 189 -494 l 1,11,-1
 258 -414 l 1,0,1
101 -111 m 2,12,13
 156 -44 156 -44 184 -11 c 1,14,-1
 251 -57 l 2,15,16
 343 -118 343 -118 360 -136 c 1,17,-1
 426 -60 l 1,18,-1
 467 -11 l 1,19,-1
 541 -60 l 2,20,21
 600 -100 600 -100 656 -147 c 1,22,23
 638 -190 638 -190 578 -260 c 2,24,-1
 508 -342 l 1,25,26
 467 -294 467 -294 401 -250 c 2,27,-1
 339 -207 l 1,28,29
 316 -243 316 -243 272 -291 c 2,30,-1
 227 -342 l 1,31,32
 195 -304 195 -304 113 -245 c 2,33,-1
 36 -192 l 1,34,-1
 101 -111 l 2,12,13
EndSplineSet
EndChar

StartChar: afii64242
Encoding: 65550 -1 107
Width: 784
Flags: W
LayerCount: 2
Fore
SplineSet
-28 410 m 1,0,-1
 547 410 l 1,1,2
 542 517 542 517 462 642 c 1,3,4
 545 973 545 973 587 940 c 0,5,6
 613 918 613 918 662 809 c 0,7,8
 715 683 715 683 718 481 c 0,9,10
 718 406 718 406 701.5 335.5 c 128,-1,11
 685 265 685 265 654.5 169 c 128,-1,12
 624 73 624 73 600 0 c 1,13,-1
 -28 0 l 1,14,-1
 -28 410 l 1,0,-1
EndSplineSet
EndChar

StartChar: afii57373
Encoding: 65551 -1 112
Width: 0
Flags: W
LayerCount: 2
Fore
SplineSet
451 1805 m 0,0,1
 471 1802 471 1802 397 1702 c 1,2,3
 318 1684 318 1684 261 1653 c 128,-1,4
 204 1622 204 1622 163 1582 c 0,5,6
 153 1570 153 1570 151 1608 c 1,7,-1
 230 1700 l 1,8,-1
 175 1719 l 2,9,10
 146 1727 146 1727 139 1742.5 c 128,-1,11
 132 1758 132 1758 132 1781 c 0,12,13
 132 1850 132 1850 183.5 1932 c 128,-1,14
 235 2014 235 2014 298 2014 c 0,15,16
 356 2014 356 2014 364 1958 c 1,17,18
 364 1884 364 1884 327 1859 c 1,19,20
 290 1900 290 1900 259 1901 c 0,21,22
 217 1899 217 1899 200 1864 c 1,23,24
 200 1833 200 1833 266 1818 c 0,25,26
 312 1811 312 1811 358.5 1808 c 128,-1,27
 405 1805 405 1805 451 1805 c 0,0,1
EndSplineSet
EndChar

StartChar: afii57374
Encoding: 65552 -1 113
Width: 797
GlyphClass: 2
Flags: W
LayerCount: 2
Fore
SplineSet
391 0 m 1,0,-1
 330 56 l 1,1,-1
 253 0 l 1,2,-1
 -26 0 l 1,3,-1
 -26 410 l 1,4,-1
 121 410 l 1,5,-1
 119 430 l 1,6,-1
 116 455 l 2,7,8
 116 474 116 474 128 506 c 1,9,10
 168 577 168 577 244 678 c 0,11,12
 337 804 337 804 428 880 c 0,13,14
 498 935 498 935 571 926 c 0,15,16
 637 918 637 918 670 809 c 0,17,18
 691 734 691 734 691 644 c 0,19,20
 691 584 691 584 682 568 c 2,21,-1
 617 410 l 1,22,-1
 851 410 l 1,23,-1
 851 0 l 1,24,-1
 391 0 l 1,0,-1
508 443 m 1,25,26
 511 526 511 526 480 572 c 1,27,28
 455 619 455 619 419 619 c 0,29,30
 394 619 394 619 331.5 579 c 128,-1,31
 269 539 269 539 269 516 c 0,32,33
 269 450 269 450 428 410 c 1,34,35
 476 415 476 415 508 443 c 1,25,26
EndSplineSet
EndChar

StartChar: afii57375
Encoding: 1619 1619 114
Width: 868
GlyphClass: 2
Flags: W
LayerCount: 2
Fore
SplineSet
746 1840 m 1,0,1
 714 1770 714 1770 646 1705 c 0,2,3
 552 1622 552 1622 458 1622 c 0,4,5
 392 1622 392 1622 341 1652 c 2,6,-1
 278 1687 l 1,7,8
 262 1674 262 1674 191 1549 c 1,9,-1
 156 1576 l 1,10,11
 193 1687 193 1687 217 1744 c 0,12,13
 259 1840 259 1840 274 1844 c 1,14,15
 282 1855 282 1855 331 1822 c 1,16,17
 424 1770 424 1770 458 1774 c 1,18,19
 604 1772 604 1772 746 1894 c 1,20,-1
 754 1856 l 1,21,-1
 746 1840 l 1,22,-1
 746 1840 l 1,0,1
EndSplineSet
EndChar

StartChar: afii57391
Encoding: 59450 59450 115
Width: 1024
GlyphClass: 2
Flags: W
LayerCount: 2
Fore
SplineSet
1024 0 m 1,0,-1
 -70 0 l 1,1,-1
 -70 188 l 1,2,-1
 1024 188 l 1,3,-1
 1024 0 l 1,0,-1
EndSplineSet
EndChar

StartChar: afii57471
Encoding: 65553 -1 116
Width: 1332
Flags: W
LayerCount: 2
Fore
SplineSet
416 0 m 2,0,1
 220 0 220 0 162 174 c 0,2,3
 149 210 149 210 145.5 250 c 128,-1,4
 142 290 142 290 140 329 c 0,5,6
 139 408 139 408 157 515 c 0,7,8
 178 623 178 623 206 704.5 c 128,-1,9
 234 786 234 786 268 838 c 0,10,11
 274 848 274 848 282 851.5 c 128,-1,12
 290 855 290 855 297 853 c 128,-1,13
 304 851 304 851 307 844 c 128,-1,14
 310 837 310 837 307 827 c 0,15,16
 287 697 287 697 294 587 c 0,17,18
 298 503 298 503 349 456 c 0,19,20
 401 410 401 410 482 410 c 2,21,-1
 997 410 l 1,22,23
 986 516 986 516 946 638 c 1,24,-1
 1100 865 l 1,25,26
 1110 848 1110 848 1119 823 c 128,-1,27
 1128 798 1128 798 1136 768 c 128,-1,28
 1144 738 1144 738 1150 705.5 c 128,-1,29
 1156 673 1156 673 1159 642 c 0,30,31
 1159 633 1159 633 1160.5 609.5 c 128,-1,32
 1162 586 1162 586 1161.5 553.5 c 128,-1,33
 1161 521 1161 521 1157 483.5 c 128,-1,34
 1153 446 1153 446 1142 410 c 1,35,-1
 1343 410 l 1,36,-1
 1343 0 l 1,37,-1
 1210 0 l 1,38,39
 1117 22 1117 22 1084 150 c 1,40,41
 1025 19 1025 19 1010 0 c 1,42,-1
 416 0 l 2,0,1
EndSplineSet
EndChar

StartChar: afii52258
Encoding: 65554 -1 117
Width: 1768
GlyphClass: 2
Flags: W
LayerCount: 2
Fore
SplineSet
445 0 m 2,0,1
 248 0 248 0 191 174 c 0,2,3
 178 210 178 210 174 250 c 128,-1,4
 170 290 170 290 169 329 c 0,5,6
 168 408 168 408 186 515 c 0,7,8
 206 623 206 623 235 704 c 0,9,10
 263 786 263 786 296 838 c 0,11,12
 302 848 302 848 310.5 851.5 c 128,-1,13
 319 855 319 855 325.5 853 c 128,-1,14
 332 851 332 851 335.5 844 c 128,-1,15
 339 837 339 837 336 827 c 0,16,17
 316 697 316 697 323 587 c 0,18,19
 326 503 326 503 378 456 c 0,20,21
 430 410 430 410 511 410 c 2,22,-1
 1092 410 l 1,23,-1
 1090 430 l 1,24,-1
 1087 455 l 2,25,26
 1087 474 1087 474 1099 506 c 1,27,28
 1139 577 1139 577 1214 678 c 0,29,30
 1308 804 1308 804 1399 880 c 0,31,32
 1469 935 1469 935 1542 926 c 0,33,34
 1608 918 1608 918 1640 809 c 0,35,36
 1662 734 1662 734 1662 644 c 0,37,38
 1662 584 1662 584 1652 568 c 2,39,-1
 1588 410 l 1,40,-1
 1822 410 l 1,41,-1
 1822 0 l 1,42,-1
 1362 0 l 1,43,-1
 1301 56 l 1,44,-1
 1224 0 l 1,45,-1
 445 0 l 2,0,1
1478 443 m 1,46,47
 1482 526 1482 526 1451 572 c 1,48,49
 1426 619 1426 619 1390 619 c 0,50,51
 1364 619 1364 619 1302 579 c 128,-1,52
 1240 539 1240 539 1240 516 c 0,53,54
 1240 450 1240 450 1399 410 c 1,55,56
 1447 415 1447 415 1478 443 c 1,46,47
EndSplineSet
EndChar

StartChar: afii62889
Encoding: 65555 -1 123
Width: 1175
Flags: W
LayerCount: 2
Fore
SplineSet
1025 0 m 1,0,1
 1020 -37 1020 -37 975.5 -139 c 128,-1,2
 931 -241 931 -241 880.5 -308.5 c 128,-1,3
 830 -376 830 -376 788 -403 c 1,4,5
 659 -460 659 -460 443 -446 c 1,6,7
 275 -420 275 -420 202 -310 c 0,8,9
 140 -216 140 -216 140 -59 c 0,10,11
 140 -10 140 -10 148 55 c 128,-1,12
 156 120 156 120 167 167 c 128,-1,13
 178 214 178 214 205 284 c 128,-1,14
 232 354 232 354 278 424 c 128,-1,15
 324 494 324 494 347 499 c 0,16,17
 361 501 361 501 362 493 c 128,-1,18
 363 485 363 485 359 476 c 0,19,20
 324 413 324 413 304 319.5 c 128,-1,21
 284 226 284 226 286 128 c 0,22,23
 286 64 286 64 316 11 c 128,-1,24
 346 -42 346 -42 421.5 -74 c 128,-1,25
 497 -106 497 -106 577 -106 c 0,26,27
 691 -106 691 -106 788 -84 c 0,28,29
 853 -68 853 -68 882.5 -54 c 128,-1,30
 912 -40 912 -40 912 -12 c 0,31,32
 912 5 912 5 910 10 c 1,33,-1
 794 0 l 2,34,35
 786 0 786 0 760 -2 c 0,36,37
 647 -7 647 -7 603.5 41.5 c 128,-1,38
 560 90 560 90 547 169 c 1,39,40
 545 206 545 206 545 228 c 0,41,42
 548 378 548 378 585.5 503.5 c 128,-1,43
 623 629 623 629 643 676 c 0,44,45
 668 745 668 745 721 807 c 128,-1,46
 774 869 774 869 856 875 c 1,47,48
 902 872 902 872 937 835.5 c 128,-1,49
 972 799 972 799 995.5 735 c 128,-1,50
 1019 671 1019 671 1040.5 557 c 128,-1,51
 1062 443 1062 443 1062 410 c 1,52,-1
 1202 410 l 1,53,-1
 1202 0 l 1,54,-1
 1025 0 l 1,0,1
884 410 m 1,55,56
 883 432 883 432 852 483.5 c 128,-1,57
 821 535 821 535 788 546 c 1,58,59
 774 546 774 546 749.5 524.5 c 128,-1,60
 725 503 725 503 724 487 c 0,61,62
 721 466 721 466 758.5 438 c 128,-1,63
 796 410 796 410 884 410 c 1,55,56
EndSplineSet
EndChar

StartChar: afii62887
Encoding: 65556 -1 124
Width: 1261
Flags: W
LayerCount: 2
Fore
SplineSet
347 0 m 2,0,1
 150 0 150 0 92 174 c 0,2,3
 80 210 80 210 76 250 c 128,-1,4
 72 290 72 290 71 329 c 0,5,6
 70 408 70 408 88 515 c 0,7,8
 108 623 108 623 136 704.5 c 128,-1,9
 164 786 164 786 198 838 c 0,10,11
 204 848 204 848 212.5 851.5 c 128,-1,12
 221 855 221 855 227.5 853 c 128,-1,13
 234 851 234 851 237.5 844 c 128,-1,14
 241 837 241 837 238 827 c 0,15,16
 217 697 217 697 224 587 c 0,17,18
 228 503 228 503 280 456 c 0,19,20
 331 410 331 410 413 410 c 2,21,-1
 1056 410 l 1,22,23
 1051 517 1051 517 971 642 c 1,24,25
 1054 973 1054 973 1096 940 c 0,26,27
 1122 918 1122 918 1171 809 c 0,28,29
 1224 683 1224 683 1226 481 c 0,30,31
 1226 406 1226 406 1210 335.5 c 128,-1,32
 1194 265 1194 265 1163.5 169 c 128,-1,33
 1133 73 1133 73 1109 0 c 1,34,-1
 347 0 l 2,0,1
EndSplineSet
EndChar

StartChar: afii62888
Encoding: 1697 1697 125
Width: 1327
GlyphClass: 2
Flags: W
LayerCount: 2
Fore
SplineSet
1272 587 m 0,0,1
 1267 103 1267 103 1195 0 c 1,2,-1
 413 0 l 2,3,4
 216 0 216 0 158 174 c 0,5,6
 146 210 146 210 142 250 c 128,-1,7
 138 290 138 290 137 329 c 0,8,9
 136 408 136 408 154 515 c 0,10,11
 174 623 174 623 202 704.5 c 128,-1,12
 230 786 230 786 264 838 c 0,13,14
 270 848 270 848 278.5 851.5 c 128,-1,15
 287 855 287 855 293.5 853 c 128,-1,16
 300 851 300 851 303.5 844 c 128,-1,17
 307 837 307 837 304 827 c 0,18,19
 283 697 283 697 290 587 c 0,20,21
 294 503 294 503 346 456 c 0,22,23
 397 410 397 410 479 410 c 2,24,-1
 1112 410 l 1,25,26
 1108 563 1108 563 1068 626 c 1,27,-1
 1003 548 l 1,28,29
 974 520 974 520 937 506 c 0,30,31
 900 494 900 494 869 494 c 0,32,33
 790 494 790 494 730 552 c 256,34,35
 670 610 670 610 670 688 c 1,36,37
 692 805 692 805 745 911 c 0,38,39
 798 1018 798 1018 817 1042 c 0,40,41
 860 1098 860 1098 920 1138 c 1,42,43
 970 1164 970 1164 1001 1164 c 0,44,45
 1034 1164 1034 1164 1074 1142 c 0,46,47
 1112 1121 1112 1121 1153 1042 c 1,48,49
 1212 914 1212 914 1244 772 c 0,50,51
 1272 649 1272 649 1272 587 c 0,0,1
1006 797 m 1,52,53
 979 880 979 880 920 901 c 0,54,55
 889 911 889 911 857 888 c 0,56,57
 824 865 824 865 824 846 c 0,58,59
 824 821 824 821 862 802 c 0,60,61
 898 782 898 782 937 782 c 1,62,63
 963 786 963 786 979 789.5 c 128,-1,64
 995 793 995 793 1006 797 c 1,52,53
EndSplineSet
Substitution2: "'medi' Medial Forms in Arabic lookup 3 subtable" afii57374
Substitution2: "'fina' Terminal Forms in Arabic lookup 2 subtable" afii52258
Substitution2: "'init' Initial Forms in Arabic lookup 1 subtable" afii57459
EndChar

StartChar: afii57567
Encoding: 1705 1705 132
Width: 1469
GlyphClass: 2
Flags: W
AnchorPoint: "Anchor-3" 675 -540 basechar 0
AnchorPoint: "Anchor-2" 555 1125 basechar 0
LayerCount: 2
Fore
SplineSet
370 0 m 2,0,1
 173 0 173 0 115 174 c 0,2,3
 102 210 102 210 98.5 250 c 128,-1,4
 95 290 95 290 94 329 c 0,5,6
 92 408 92 408 110 515 c 0,7,8
 131 623 131 623 160 704 c 0,9,10
 187 786 187 786 221 838 c 0,11,12
 227 848 227 848 235.5 851.5 c 128,-1,13
 244 855 244 855 250.5 853 c 128,-1,14
 257 851 257 851 260 844 c 128,-1,15
 263 837 263 837 260 827 c 0,16,17
 240 697 240 697 247 587 c 0,18,19
 251 503 251 503 302 456 c 0,20,21
 354 410 354 410 436 410 c 2,22,-1
 1178 410 l 1,23,24
 1085 516 1085 516 940 629 c 1,25,26
 916 584 916 584 910 593 c 2,27,-1
 836 696 l 1,28,-1
 770 784 l 1,29,-1
 740 828 l 1,30,31
 736 846 736 846 782.5 1010.5 c 128,-1,32
 829 1175 829 1175 841 1217 c 1,33,-1
 1436 1403 l 1,34,-1
 1387 1126 l 1,35,-1
 974 966 l 1,36,-1
 1099 840 l 2,37,38
 1186 755 1186 755 1286 629 c 0,39,40
 1392 497 1392 497 1423 430 c 1,41,42
 1367 73 1367 73 1352 28 c 0,43,44
 1346 10 1346 10 1338 5 c 128,-1,45
 1330 0 1330 0 1318 0 c 2,46,-1
 370 0 l 2,0,1
EndSplineSet
Substitution2: "'medi' Medial Forms in Arabic lookup 3 subtable" afii52306
Substitution2: "'fina' Terminal Forms in Arabic lookup 2 subtable" afii62964
Substitution2: "'init' Initial Forms in Arabic lookup 1 subtable" afii52305
EndChar

StartChar: afii62964
Encoding: 64399 64399 133
Width: 1459
GlyphClass: 2
Flags: W
AnchorPoint: "Anchor-3" 540 -525 basechar 0
AnchorPoint: "Anchor-2" 480 1245 basechar 0
LayerCount: 2
Fore
SplineSet
320 0 m 2,0,1
 124 0 124 0 66 174 c 0,2,3
 53 210 53 210 49.5 250 c 128,-1,4
 46 290 46 290 44 329 c 0,5,6
 43 408 43 408 61 515 c 0,7,8
 82 623 82 623 110 704 c 0,9,10
 138 786 138 786 172 838 c 0,11,12
 178 848 178 848 186 851.5 c 128,-1,13
 194 855 194 855 201 853 c 128,-1,14
 208 851 208 851 211 844 c 128,-1,15
 214 837 214 837 211 827 c 0,16,17
 191 697 191 697 198 587 c 0,18,19
 202 503 202 503 253 456 c 0,20,21
 305 410 305 410 386 410 c 2,22,-1
 1012 410 l 1,23,-1
 749 706 l 1,24,-1
 650 814 l 1,25,-1
 734 1142 l 1,26,-1
 758 1236 l 1,27,-1
 1412 1445 l 1,28,29
 1415 1421 1415 1421 1382 1290.5 c 128,-1,30
 1349 1160 1349 1160 1344 1147 c 1,31,-1
 852 971 l 1,32,-1
 1349 410 l 1,33,-1
 1508 410 l 1,34,-1
 1508 0 l 1,35,-1
 1297 0 l 2,36,37
 1274 0 1274 0 1231 73 c 2,38,-1
 1140 228 l 1,39,-1
 1093 115 l 2,40,41
 1054 17 1054 17 1030 0 c 1,42,-1
 320 0 l 2,0,1
EndSplineSet
EndChar

StartChar: afii52305
Encoding: 64400 64400 134
Width: 776
GlyphClass: 2
Flags: W
AnchorPoint: "Anchor-3" 210 -510 basechar 0
AnchorPoint: "Anchor-2" 255 1515 basechar 0
LayerCount: 2
Fore
SplineSet
691 1126 m 1,0,-1
 278 966 l 1,1,-1
 403 840 l 2,2,3
 490 755 490 755 590 629 c 0,4,5
 696 497 696 497 727 430 c 1,6,7
 671 73 671 73 656 28 c 0,8,9
 650 10 650 10 642 5 c 128,-1,10
 634 0 634 0 622 0 c 2,11,-1
 -14 0 l 1,12,-1
 -14 410 l 1,13,-1
 482 410 l 1,14,15
 389 516 389 516 244 629 c 1,16,17
 220 584 220 584 214 593 c 2,18,-1
 140 696 l 1,19,-1
 74 784 l 1,20,-1
 44 828 l 1,21,22
 40 846 40 846 86.5 1010.5 c 128,-1,23
 133 1175 133 1175 145 1217 c 1,24,-1
 740 1403 l 1,25,-1
 691 1126 l 1,0,-1
EndSplineSet
EndChar

StartChar: afii52306
Encoding: 64401 64401 135
Width: 809
GlyphClass: 2
Flags: W
AnchorPoint: "Anchor-3" 240 -495 basechar 0
AnchorPoint: "Anchor-2" 330 1440 basechar 0
LayerCount: 2
Fore
SplineSet
647 0 m 2,0,1
 624 0 624 0 581 73 c 2,2,-1
 490 228 l 1,3,-1
 443 115 l 2,4,5
 403 17 403 17 379 0 c 1,6,-1
 -52 0 l 1,7,-1
 -52 410 l 1,8,-1
 361 410 l 1,9,-1
 98 706 l 1,10,-1
 0 814 l 1,11,-1
 84 1142 l 1,12,-1
 108 1236 l 1,13,-1
 762 1445 l 1,14,15
 764 1421 764 1421 731 1290.5 c 128,-1,16
 698 1160 698 1160 694 1147 c 1,17,-1
 202 971 l 1,18,-1
 698 410 l 1,19,-1
 858 410 l 1,20,-1
 858 0 l 1,21,-1
 647 0 l 2,0,1
EndSplineSet
EndChar

StartChar: afii57509
Encoding: 1711 1711 136
Width: 1508
GlyphClass: 2
Flags: W
AnchorPoint: "Anchor-3" 615 -525 basechar 0
AnchorPoint: "Anchor-2" 510 1185 basechar 0
LayerCount: 2
Fore
SplineSet
370 0 m 2,0,1
 173 0 173 0 115 174 c 0,2,3
 102 210 102 210 98.5 250 c 128,-1,4
 95 290 95 290 94 329 c 0,5,6
 92 408 92 408 110 515 c 0,7,8
 131 623 131 623 160 704 c 0,9,10
 187 786 187 786 221 838 c 0,11,12
 227 848 227 848 235.5 851.5 c 128,-1,13
 244 855 244 855 250.5 853 c 128,-1,14
 257 851 257 851 260 844 c 128,-1,15
 263 837 263 837 260 827 c 0,16,17
 240 697 240 697 247 587 c 0,18,19
 251 503 251 503 302 456 c 0,20,21
 354 410 354 410 436 410 c 2,22,-1
 1178 410 l 1,23,24
 1085 516 1085 516 940 629 c 1,25,26
 916 584 916 584 910 593 c 2,27,-1
 836 696 l 1,28,-1
 770 784 l 1,29,-1
 740 828 l 1,30,31
 736 846 736 846 782.5 1010.5 c 128,-1,32
 829 1175 829 1175 841 1217 c 1,33,-1
 1436 1403 l 1,34,-1
 1387 1126 l 1,35,-1
 974 966 l 1,36,-1
 1099 840 l 2,37,38
 1186 755 1186 755 1286 629 c 0,39,40
 1392 497 1392 497 1423 430 c 1,41,42
 1367 73 1367 73 1352 28 c 0,43,44
 1346 10 1346 10 1338 5 c 128,-1,45
 1330 0 1330 0 1318 0 c 2,46,-1
 370 0 l 2,0,1
919 1438 m 1,47,-1
 1445 1614 l 1,48,-1
 1423 1482 l 1,49,-1
 874 1302 l 1,50,-1
 919 1438 l 1,47,-1
EndSplineSet
Substitution2: "'medi' Medial Forms in Arabic lookup 3 subtable" afii62966
Substitution2: "'fina' Terminal Forms in Arabic lookup 2 subtable" afii62967
Substitution2: "'init' Initial Forms in Arabic lookup 1 subtable" afii62965
EndChar

StartChar: afii62967
Encoding: 64403 64403 137
Width: 1459
GlyphClass: 2
Flags: W
AnchorPoint: "Anchor-3" 510 -510 basechar 0
AnchorPoint: "Anchor-2" 450 1215 basechar 0
LayerCount: 2
Fore
SplineSet
320 0 m 2,0,1
 124 0 124 0 66 174 c 0,2,3
 53 210 53 210 49.5 250 c 128,-1,4
 46 290 46 290 44 329 c 0,5,6
 43 408 43 408 61 515 c 0,7,8
 82 623 82 623 110 704 c 0,9,10
 138 786 138 786 172 838 c 0,11,12
 178 848 178 848 186 851.5 c 128,-1,13
 194 855 194 855 201 853 c 128,-1,14
 208 851 208 851 211 844 c 128,-1,15
 214 837 214 837 211 827 c 0,16,17
 191 697 191 697 198 587 c 0,18,19
 202 503 202 503 253 456 c 0,20,21
 305 410 305 410 386 410 c 2,22,-1
 1012 410 l 1,23,-1
 749 706 l 1,24,-1
 650 814 l 1,25,-1
 734 1142 l 1,26,-1
 758 1236 l 1,27,-1
 1412 1445 l 1,28,29
 1415 1421 1415 1421 1382 1290.5 c 128,-1,30
 1349 1160 1349 1160 1344 1147 c 1,31,-1
 852 971 l 1,32,-1
 1349 410 l 1,33,-1
 1508 410 l 1,34,-1
 1508 0 l 1,35,-1
 1297 0 l 2,36,37
 1274 0 1274 0 1231 73 c 2,38,-1
 1140 228 l 1,39,-1
 1093 115 l 2,40,41
 1054 17 1054 17 1030 0 c 1,42,-1
 320 0 l 2,0,1
817 1453 m 1,43,-1
 1434 1655 l 1,44,-1
 1412 1523 l 1,45,-1
 778 1318 l 1,46,-1
 817 1453 l 1,43,-1
EndSplineSet
EndChar

StartChar: afii62965
Encoding: 64404 64404 138
Width: 776
GlyphClass: 2
Flags: W
AnchorPoint: "Anchor-3" 240 -525 basechar 0
AnchorPoint: "Anchor-2" 345 1680 basechar 0
LayerCount: 2
Fore
SplineSet
691 1126 m 1,0,-1
 278 966 l 1,1,-1
 403 840 l 2,2,3
 490 755 490 755 590 629 c 0,4,5
 696 497 696 497 727 430 c 1,6,7
 671 73 671 73 656 28 c 0,8,9
 650 10 650 10 642 5 c 128,-1,10
 634 0 634 0 622 0 c 2,11,-1
 -14 0 l 1,12,-1
 -14 410 l 1,13,-1
 482 410 l 1,14,15
 389 516 389 516 244 629 c 1,16,17
 220 584 220 584 214 593 c 2,18,-1
 140 696 l 1,19,-1
 74 784 l 1,20,-1
 44 828 l 1,21,22
 40 846 40 846 86.5 1010.5 c 128,-1,23
 133 1175 133 1175 145 1217 c 1,24,-1
 740 1403 l 1,25,-1
 691 1126 l 1,0,-1
211 1438 m 1,26,-1
 737 1614 l 1,27,-1
 715 1482 l 1,28,-1
 166 1302 l 1,29,-1
 211 1438 l 1,26,-1
EndSplineSet
EndChar

StartChar: afii62966
Encoding: 64405 64405 139
Width: 809
GlyphClass: 2
Flags: W
AnchorPoint: "Anchor-3" 255 -525 basechar 0
AnchorPoint: "Anchor-2" 360 1650 basechar 0
LayerCount: 2
Fore
SplineSet
647 0 m 2,0,1
 624 0 624 0 581 73 c 2,2,-1
 490 228 l 1,3,-1
 443 115 l 2,4,5
 403 17 403 17 379 0 c 1,6,-1
 -52 0 l 1,7,-1
 -52 410 l 1,8,-1
 361 410 l 1,9,-1
 98 706 l 1,10,-1
 0 814 l 1,11,-1
 84 1142 l 1,12,-1
 108 1236 l 1,13,-1
 762 1445 l 1,14,15
 764 1421 764 1421 731 1290.5 c 128,-1,16
 698 1160 698 1160 694 1147 c 1,17,-1
 202 971 l 1,18,-1
 698 410 l 1,19,-1
 858 410 l 1,20,-1
 858 0 l 1,21,-1
 647 0 l 2,0,1
167 1453 m 1,22,-1
 784 1655 l 1,23,-1
 762 1523 l 1,24,-1
 127 1318 l 1,25,-1
 167 1453 l 1,22,-1
EndSplineSet
EndChar

StartChar: afii57555
Encoding: 1740 1740 140
Width: 1158
GlyphClass: 2
Flags: W
AnchorPoint: "Anchor-3" 540 -750 basechar 0
AnchorPoint: "Anchor-2" 450 990 basechar 0
LayerCount: 2
Fore
SplineSet
1130 973 m 0,0,1
 1130 943 1130 943 1109 828 c 2,2,-1
 1090 725 l 1,3,4
 1073 704 1073 704 1069 713 c 0,5,6
 1052 772 1052 772 1036 794 c 0,7,8
 1015 828 1015 828 971 828 c 0,9,10
 888 828 888 828 795.5 740 c 128,-1,11
 703 652 703 652 703 570 c 0,12,13
 703 535 703 535 752 509 c 0,14,15
 770 499 770 499 858.5 491.5 c 128,-1,16
 947 484 947 484 1022 468 c 1,17,18
 1129 437 1129 437 1114 329 c 0,19,20
 1111 290 1111 290 1072 147.5 c 128,-1,21
 1033 5 1033 5 1001 -35 c 1,22,23
 930 -140 930 -140 764 -232 c 0,24,25
 612 -314 612 -314 468 -317 c 1,26,27
 325 -314 325 -314 231.5 -198 c 128,-1,28
 138 -82 138 -82 138 101 c 0,29,30
 138 131 138 131 141.5 192 c 128,-1,31
 145 253 145 253 184 417.5 c 128,-1,32
 223 582 223 582 253 644 c 1,33,34
 292 704 292 704 293 600 c 1,35,36
 248 391 248 391 254 259.5 c 128,-1,37
 260 128 260 128 321 87.5 c 128,-1,38
 382 47 382 47 480 47 c 0,39,40
 560 47 560 47 707 77 c 128,-1,41
 854 107 854 107 930 150 c 0,42,43
 973 178 973 178 919 187 c 0,44,45
 895 191 895 191 862.5 194 c 128,-1,46
 830 197 830 197 794 199 c 128,-1,47
 758 201 758 201 721 203.5 c 128,-1,48
 684 206 684 206 652 210 c 1,49,50
 568 234 568 234 553 290 c 1,51,52
 544 378 544 378 565 472 c 0,53,54
 625 732 625 732 750 907 c 0,55,56
 799 973 799 973 875.5 1035.5 c 128,-1,57
 952 1098 952 1098 1015 1098 c 0,58,59
 1064 1098 1064 1098 1097 1061.5 c 128,-1,60
 1130 1025 1130 1025 1130 973 c 0,0,1
EndSplineSet
Substitution2: "'medi' Medial Forms in Arabic lookup 3 subtable" afii62832
Substitution2: "'fina' Terminal Forms in Arabic lookup 2 subtable" afii52364
Substitution2: "'init' Initial Forms in Arabic lookup 1 subtable" uniFBFE
EndChar

StartChar: afii52364
Encoding: 64509 64509 141
Width: 1169
GlyphClass: 2
Flags: W
AnchorPoint: "Anchor-3" 555 -945 basechar 0
AnchorPoint: "Anchor-2" 660 630 basechar 0
LayerCount: 2
Fore
SplineSet
553 -432 m 0,0,1
 140 -432 140 -432 140 -66 c 0,2,3
 140 79 140 79 186 187 c 0,4,5
 221 270 221 270 298 373 c 0,6,7
 372 469 372 469 436 514 c 0,8,9
 447 521 447 521 452.5 520 c 128,-1,10
 458 519 458 519 459 514 c 128,-1,11
 460 509 460 509 457 502 c 128,-1,12
 454 495 454 495 450 490 c 0,13,14
 328 307 328 307 328 172 c 0,15,16
 328 76 328 76 370 10 c 0,17,18
 379 -10 379 -10 415 -44 c 0,19,20
 494 -118 494 -118 617 -115 c 2,21,-1
 720 -113 l 1,22,23
 792 -106 792 -106 827 -101 c 0,24,25
 914 -89 914 -89 954 -68 c 1,26,27
 961 -17 961 -17 932 2 c 1,28,29
 844 40 844 40 760.5 55.5 c 128,-1,30
 677 71 677 71 677 79 c 2,31,-1
 677 91 l 2,32,33
 677 138 677 138 729.5 270 c 128,-1,34
 782 402 782 402 804 410 c 1,35,-1
 1188 410 l 1,36,-1
 1188 0 l 1,37,-1
 1158 0 l 1,38,-1
 1040 66 l 1,39,40
 1079 -5 1079 -5 1079 -35 c 0,41,42
 1079 -148 1079 -148 964 -310 c 1,43,44
 924 -344 924 -344 792.5 -388 c 128,-1,45
 661 -432 661 -432 553 -432 c 0,0,1
EndSplineSet
EndChar

StartChar: afii62945
Encoding: 65557 -1 147
Width: 1900
GlyphClass: 3
Flags: W
LayerCount: 2
Fore
SplineSet
774 0 m 2,0,1
 757 0 757 0 750 5 c 0,2,3
 710 73 710 73 692 127 c 1,4,5
 676 211 676 211 654 275 c 1,6,-1
 617 164 l 1,7,-1
 584 89 l 1,8,9
 568 66 568 66 558 64 c 1,10,-1
 544 54 l 1,11,-1
 526 49 l 1,12,-1
 511 52 l 1,13,14
 347 96 347 96 256 110 c 2,15,-1
 194 120 l 1,16,-1
 148 125 l 1,17,18
 157 199 157 199 167 263 c 0,19,20
 206 481 206 481 263 563 c 1,21,22
 307 605 307 605 329 629 c 1,23,-1
 430 710 l 1,24,-1
 560 806 l 1,25,-1
 551 846 l 1,26,-1
 544 870 l 1,27,-1
 540 880 l 1,28,29
 592 973 592 973 614 1022 c 0,30,31
 666 1121 666 1121 668 1123 c 0,32,33
 676 1123 676 1123 680 1116 c 2,34,-1
 685 1109 l 1,35,-1
 718 956 l 1,36,-1
 793 474 l 1,37,38
 804 434 804 434 811 415 c 128,-1,39
 818 396 818 396 835 394 c 2,40,-1
 884 394 l 1,41,-1
 884 396 l 1,42,-1
 1054 396 l 1,43,-1
 1064 398 l 1,44,-1
 1067 410 l 1,45,46
 1067 481 1067 481 1054 605 c 0,47,48
 1054 614 1054 614 1039 727 c 0,49,50
 1020 900 1020 900 1020 892 c 2,51,-1
 1076 1027 l 2,52,53
 1133 1160 1133 1160 1154 1177 c 1,54,55
 1172 1163 1172 1163 1184 1109 c 1,56,-1
 1241 396 l 1,57,-1
 1421 396 l 1,58,-1
 1421 394 l 1,59,-1
 1534 394 l 1,60,-1
 1548 396 l 1,61,-1
 1550 403 l 1,62,-1
 1550 533 l 2,63,64
 1550 556 1550 556 1545.5 596 c 128,-1,65
 1541 636 1541 636 1541 649 c 2,66,-1
 1534 764 l 1,67,68
 1522 840 1522 840 1513 875 c 2,69,-1
 1504 917 l 2,70,71
 1496 949 1496 949 1484 964 c 2,72,-1
 1462 1006 l 1,73,-1
 1450 1049 l 1,74,-1
 1595 1310 l 1,75,76
 1602 1268 1602 1268 1637 1210 c 0,77,78
 1654 1182 1654 1182 1696 1118 c 1,79,80
 1757 1044 1757 1044 1846 976 c 1,81,-1
 1696 786 l 2,82,83
 1696 791 1696 791 1710 656 c 2,84,-1
 1726 521 l 1,85,-1
 1733 396 l 1,86,-1
 1733 342 l 1,87,-1
 1726 305 l 2,88,89
 1708 194 1708 194 1703 145 c 0,90,91
 1691 73 1691 73 1674 32 c 0,92,93
 1658 0 1658 0 1622 0 c 2,94,-1
 1273 0 l 1,95,-1
 1273 2 l 1,96,-1
 1163 2 l 2,97,98
 1145 2 1145 2 1128 68 c 2,99,-1
 1109 143 l 1,100,-1
 1086 76 l 1,101,-1
 1069 28 l 2,102,103
 1057 2 1057 2 1027 2 c 2,104,-1
 988 2 l 1,105,-1
 988 0 l 1,106,-1
 774 0 l 2,0,1
629 427 m 1,107,108
 629 467 629 467 617 523 c 2,109,-1
 592 634 l 1,110,-1
 577 612 l 1,111,-1
 556 580 l 2,112,113
 544 563 544 563 518 539 c 2,114,-1
 464 497 l 1,115,-1
 420 467 l 1,116,117
 425 452 425 452 484 438 c 1,118,-1
 546 430 l 1,119,-1
 629 427 l 1,107,108
EndSplineSet
EndChar

StartChar: afii64184
Encoding: 65010 65010 148
Width: 1900
GlyphClass: 3
Flags: W
AnchorPoint: "Anchor-1" 1530 -450 baselig 0
AnchorPoint: "Anchor-0" 1575 1350 baselig 0
AnchorPoint: "Anchor-1" 1035 -495 baselig 1
AnchorPoint: "Anchor-0" 1065 1170 baselig 1
AnchorPoint: "Anchor-1" 510 -465 baselig 2
AnchorPoint: "Anchor-0" 345 1125 baselig 2
LayerCount: 2
Fore
SplineSet
774 0 m 2,0,1
 757 0 757 0 750 5 c 0,2,3
 710 73 710 73 692 127 c 1,4,5
 676 211 676 211 654 275 c 1,6,-1
 617 164 l 1,7,-1
 584 89 l 1,8,9
 568 66 568 66 558 64 c 1,10,-1
 544 54 l 1,11,-1
 526 49 l 1,12,-1
 511 52 l 1,13,14
 347 96 347 96 256 110 c 2,15,-1
 194 120 l 1,16,-1
 148 125 l 1,17,18
 157 199 157 199 167 263 c 0,19,20
 206 481 206 481 263 563 c 1,21,22
 307 605 307 605 329 629 c 1,23,-1
 430 710 l 1,24,-1
 560 806 l 1,25,-1
 551 846 l 1,26,-1
 544 870 l 1,27,-1
 540 880 l 1,28,29
 592 973 592 973 614 1022 c 0,30,31
 666 1121 666 1121 668 1123 c 0,32,33
 676 1123 676 1123 680 1116 c 2,34,-1
 685 1109 l 1,35,-1
 718 956 l 1,36,-1
 793 474 l 1,37,38
 804 434 804 434 811 415 c 128,-1,39
 818 396 818 396 835 394 c 2,40,-1
 884 394 l 1,41,-1
 884 396 l 1,42,-1
 1054 396 l 1,43,-1
 1064 398 l 1,44,-1
 1067 410 l 1,45,46
 1067 481 1067 481 1054 605 c 0,47,48
 1054 614 1054 614 1039 727 c 0,49,50
 1020 900 1020 900 1020 892 c 2,51,-1
 1076 1027 l 2,52,53
 1133 1160 1133 1160 1154 1177 c 1,54,55
 1172 1163 1172 1163 1184 1109 c 1,56,-1
 1241 396 l 1,57,-1
 1421 396 l 1,58,-1
 1421 394 l 1,59,-1
 1534 394 l 1,60,-1
 1548 396 l 1,61,-1
 1550 403 l 1,62,-1
 1550 533 l 2,63,64
 1550 556 1550 556 1545.5 596 c 128,-1,65
 1541 636 1541 636 1541 649 c 2,66,-1
 1534 764 l 1,67,68
 1522 840 1522 840 1513 875 c 2,69,-1
 1504 917 l 2,70,71
 1496 949 1496 949 1484 964 c 2,72,-1
 1462 1006 l 1,73,-1
 1450 1049 l 1,74,-1
 1595 1310 l 1,75,76
 1602 1268 1602 1268 1637 1210 c 0,77,78
 1654 1182 1654 1182 1696 1118 c 1,79,80
 1757 1044 1757 1044 1846 976 c 1,81,-1
 1696 786 l 2,82,83
 1696 791 1696 791 1710 656 c 2,84,-1
 1726 521 l 1,85,-1
 1733 396 l 1,86,-1
 1733 342 l 1,87,-1
 1726 305 l 2,88,89
 1708 194 1708 194 1703 145 c 0,90,91
 1691 73 1691 73 1674 32 c 0,92,93
 1658 0 1658 0 1622 0 c 2,94,-1
 1273 0 l 1,95,-1
 1273 2 l 1,96,-1
 1163 2 l 2,97,98
 1145 2 1145 2 1128 68 c 2,99,-1
 1109 143 l 1,100,-1
 1086 76 l 1,101,-1
 1069 28 l 2,102,103
 1057 2 1057 2 1027 2 c 2,104,-1
 988 2 l 1,105,-1
 988 0 l 1,106,-1
 774 0 l 2,0,1
629 427 m 1,107,108
 629 467 629 467 617 523 c 2,109,-1
 592 634 l 1,110,-1
 577 612 l 1,111,-1
 556 580 l 2,112,113
 544 563 544 563 518 539 c 2,114,-1
 464 497 l 1,115,-1
 420 467 l 1,116,117
 425 452 425 452 484 438 c 1,118,-1
 546 430 l 1,119,-1
 629 427 l 1,107,108
1069 1259 m 1,120,121
 1034 1205 1034 1205 992 1196 c 0,122,123
 938 1184 938 1184 902 1234 c 0,124,125
 868 1276 868 1276 868 1332 c 0,126,127
 868 1369 868 1369 882 1411 c 1,128,-1
 910 1421 l 2,129,130
 922 1423 922 1423 924 1403 c 0,131,132
 929 1308 929 1308 971 1295 c 0,133,134
 1032 1276 1032 1276 1032 1393 c 0,135,136
 1032 1423 1032 1423 1025 1454 c 1,137,-1
 1076 1482 l 1,138,139
 1091 1351 1091 1351 1140 1351 c 0,140,141
 1184 1351 1184 1351 1184 1440 c 0,142,143
 1184 1470 1184 1470 1180 1512 c 1,144,145
 1184 1519 1184 1519 1217 1536 c 1,146,147
 1241 1492 1241 1492 1246 1433 c 0,148,149
 1255 1362 1255 1362 1231 1310 c 0,150,151
 1201 1243 1201 1243 1135 1243 c 0,152,153
 1105 1243 1105 1243 1069 1259 c 1,120,121
1015 1529 m 1,154,155
 1006 1728 1006 1728 995 1808 c 1,156,-1
 1051 1904 l 1,157,158
 1067 1726 1067 1726 1074 1637 c 1,159,-1
 1015 1529 l 1,154,155
EndSplineSet
Ligature2: "'rlig' Required Ligatures in Arabic lookup 5 subtable" afii62817 afii62818 uniFC63 afii62828
Ligature2: "'rlig' Required Ligatures in Arabic lookup 5 subtable" afii62817 afii62818 afii57457 uni0670 afii62828
EndChar

StartChar: afii57415.001
Encoding: 1575 1575 162
Width: 474
GlyphClass: 2
Flags: W
AnchorPoint: "Anchor-3" 330 -435 basechar 0
AnchorPoint: "Anchor-2" 270 1425 basechar 0
LayerCount: 2
Fore
SplineSet
419 516 m 0,0,1
 426 288 426 288 361 164 c 0,2,3
 302 49 302 49 256 -32 c 1,4,-1
 239 -19 l 1,5,6
 239 42 239 42 231 131.5 c 128,-1,7
 223 221 223 221 216 295 c 0,8,9
 156 868 156 868 155 966 c 1,10,-1
 347 1348 l 1,11,12
 352 1335 352 1335 358 1286.5 c 128,-1,13
 364 1238 364 1238 371 1167 c 128,-1,14
 378 1096 378 1096 384.5 1009.5 c 128,-1,15
 391 923 391 923 397.5 835 c 128,-1,16
 404 747 404 747 409.5 663.5 c 128,-1,17
 415 580 415 580 419 516 c 0,0,1
EndSplineSet
Substitution2: "'fina' Terminal Forms in Arabic lookup 2 subtable" afii62760
EndChar

StartChar: afii62760.001
Encoding: 65558 -1 163
Width: 566
GlyphClass: 2
Flags: W
LayerCount: 2
Fore
SplineSet
126 1076 m 1,0,1
 138 1093 138 1093 199 1176 c 128,-1,2
 260 1259 260 1259 312 1322 c 1,3,4
 326 1313 326 1313 340 1271 c 0,5,6
 347 1238 347 1238 376 713 c 0,7,8
 394 445 394 445 396 438 c 0,9,10
 397 410 397 410 413 410 c 2,11,-1
 584 410 l 1,12,-1
 584 0 l 1,13,-1
 330 0 l 2,14,15
 324 0 324 0 307 7 c 0,16,17
 256 30 256 30 223 98 c 0,18,19
 197 155 197 155 179 258 c 1,20,-1
 167 410 l 1,21,22
 133 1025 133 1025 126 1076 c 1,0,1
EndSplineSet
EndChar

StartChar: afii57421
Encoding: 1581 1581 182
Width: 1192
GlyphClass: 2
Flags: W
AnchorPoint: "Anchor-3" 585 -1065 basechar 0
AnchorPoint: "Anchor-2" 630 1215 basechar 0
LayerCount: 2
Fore
SplineSet
955 625 m 1,0,1
 849 607 849 607 742 575 c 0,2,3
 692 559 692 559 660.5 545.5 c 128,-1,4
 629 532 629 532 610 522 c 0,5,6
 486 454 486 454 379 316.5 c 128,-1,7
 272 179 272 179 269 28 c 1,8,9
 286 -92 286 -92 389 -161 c 1,10,11
 575 -277 575 -277 793 -282 c 1,12,13
 1139 -281 1139 -281 1194 -271 c 1,14,15
 1211 -276 1211 -276 1192 -300 c 0,16,17
 1027 -488 1027 -488 995 -510 c 1,18,19
 818 -574 818 -574 619 -574 c 0,20,21
 476 -572 476 -572 410 -544.5 c 128,-1,22
 344 -517 344 -517 305 -486 c 0,23,24
 203 -397 203 -397 172.5 -292.5 c 128,-1,25
 142 -188 142 -188 142.5 -65 c 128,-1,26
 143 58 143 58 178.5 177 c 128,-1,27
 214 296 214 296 334 454 c 0,28,29
 444 594 444 594 523 665 c 1,30,31
 505 668 505 668 478 672 c 128,-1,32
 451 676 451 676 420 678.5 c 128,-1,33
 389 681 389 681 357 680.5 c 128,-1,34
 325 680 325 680 298 674 c 0,35,36
 247 668 247 668 161 588 c 0,37,38
 158 585 158 585 151.5 585 c 128,-1,39
 145 585 145 585 145 590 c 0,40,41
 149 766 149 766 194 859 c 0,42,43
 233 932 233 932 284.5 959 c 128,-1,44
 336 986 336 986 378 989 c 0,45,46
 432 992 432 992 563.5 949 c 128,-1,47
 695 906 695 906 842 906 c 1,48,49
 962 900 962 900 1056 918 c 0,50,51
 1074 925 1074 925 1020 784 c 128,-1,52
 966 643 966 643 955 625 c 1,0,1
EndSplineSet
Substitution2: "'medi' Medial Forms in Arabic lookup 3 subtable" afii62775
Substitution2: "'fina' Terminal Forms in Arabic lookup 2 subtable" afii62776
Substitution2: "'init' Initial Forms in Arabic lookup 1 subtable" afii62774
EndChar

StartChar: afii62776
Encoding: 65186 65186 183
Width: 1205
GlyphClass: 2
Flags: W
AnchorPoint: "Anchor-3" 630 -1035 basechar 0
AnchorPoint: "Anchor-2" 675 1215 basechar 0
LayerCount: 2
Fore
SplineSet
824 0 m 2,0,1
 743 0 743 0 701 71 c 128,-1,2
 659 142 659 142 659 258 c 1,3,4
 665 382 665 382 680 458 c 0,5,6
 692 521 692 521 702 556 c 1,7,8
 686 551 686 551 674 545 c 0,9,10
 642 532 642 532 623 522 c 0,11,12
 499 454 499 454 392.5 316.5 c 128,-1,13
 286 179 286 179 282 28 c 1,14,15
 299 -92 299 -92 402 -161 c 1,16,17
 588 -277 588 -277 806 -282 c 1,18,19
 1152 -281 1152 -281 1207 -271 c 1,20,21
 1224 -276 1224 -276 1205 -300 c 0,22,23
 1040 -488 1040 -488 1008 -510 c 1,24,25
 832 -574 832 -574 632 -574 c 0,26,27
 490 -572 490 -572 424 -544.5 c 128,-1,28
 358 -517 358 -517 318 -486 c 0,29,30
 216 -397 216 -397 185.5 -292.5 c 128,-1,31
 155 -188 155 -188 155.5 -65 c 128,-1,32
 156 58 156 58 191.5 177 c 128,-1,33
 227 296 227 296 347 454 c 0,34,35
 457 594 457 594 536 665 c 1,36,37
 519 668 519 668 491.5 672 c 128,-1,38
 464 676 464 676 433 678.5 c 128,-1,39
 402 681 402 681 370 680.5 c 128,-1,40
 338 680 338 680 311 674 c 0,41,42
 260 668 260 668 174 588 c 0,43,44
 171 585 171 585 164.5 585 c 128,-1,45
 158 585 158 585 158 590 c 0,46,47
 162 766 162 766 208 859 c 0,48,49
 246 932 246 932 297.5 959 c 128,-1,50
 349 986 349 986 391 989 c 0,51,52
 445 992 445 992 576.5 949 c 128,-1,53
 708 906 708 906 856 906 c 1,54,55
 976 900 976 900 1069 918 c 0,56,57
 1087 925 1087 925 1033 784 c 128,-1,58
 979 643 979 643 968 625 c 1,59,60
 927 618 927 618 887 609.5 c 128,-1,61
 847 601 847 601 805 589 c 1,62,63
 793 528 793 528 803 475 c 0,64,65
 812 420 812 420 893 410 c 1,66,-1
 1217 410 l 1,67,-1
 1217 0 l 1,68,-1
 824 0 l 2,0,1
EndSplineSet
EndChar

StartChar: afii62774
Encoding: 65187 65187 184
Width: 1108
GlyphClass: 2
Flags: W
AnchorPoint: "Anchor-3" 495 -435 basechar 0
AnchorPoint: "Anchor-2" 540 1110 basechar 0
LayerCount: 2
Fore
SplineSet
648 347 m 0,0,1
 581 307 581 307 527.5 260 c 128,-1,2
 474 213 474 213 420 164 c 0,3,4
 260 29 260 29 188 10 c 0,5,6
 134 -1 134 -1 80 0 c 2,7,-1
 -16 0 l 1,8,-1
 -16 410 l 1,9,-1
 162 410 l 2,10,11
 193 409 193 409 297.5 421.5 c 128,-1,12
 402 434 402 434 479.5 465.5 c 128,-1,13
 557 497 557 497 594 526 c 1,14,15
 412 607 412 607 296 611 c 1,16,17
 188 608 188 608 104 563 c 0,18,19
 94 555 94 555 89 559 c 128,-1,20
 84 563 84 563 85 568 c 0,21,22
 85 577 85 577 105.5 637.5 c 128,-1,23
 126 698 126 698 181 802 c 1,24,25
 206 840 206 840 230 867 c 128,-1,26
 254 894 254 894 289 910 c 128,-1,27
 324 926 324 926 353 929 c 0,28,29
 389 932 389 932 428 924.5 c 128,-1,30
 467 917 467 917 504.5 902.5 c 128,-1,31
 542 888 542 888 578 869.5 c 128,-1,32
 614 851 614 851 645.5 833.5 c 128,-1,33
 677 816 677 816 702 802 c 128,-1,34
 727 788 727 788 744 782 c 0,35,36
 829 748 829 748 967 746 c 0,37,38
 1037 746 1037 746 1086 760 c 1,39,-1
 1032 479 l 1,40,41
 1009 479 1009 479 937.5 463.5 c 128,-1,42
 866 448 866 448 778.5 410.5 c 128,-1,43
 691 373 691 373 648 347 c 0,0,1
EndSplineSet
EndChar

StartChar: afii62775
Encoding: 65188 65188 185
Width: 1088
GlyphClass: 2
Flags: W
AnchorPoint: "Anchor-3" 390 -570 basechar 0
AnchorPoint: "Anchor-2" 420 1155 basechar 0
LayerCount: 2
Fore
SplineSet
410 164 m 0,0,1
 251 29 251 29 179 10 c 0,2,3
 125 -1 125 -1 71 0 c 2,4,-1
 -25 0 l 1,5,-1
 -25 410 l 1,6,-1
 152 410 l 2,7,8
 184 409 184 409 288 421.5 c 128,-1,9
 392 434 392 434 469.5 465.5 c 128,-1,10
 547 497 547 497 584 526 c 1,11,12
 402 607 402 607 287 611 c 1,13,14
 179 608 179 608 95 563 c 0,15,16
 85 555 85 555 79.5 559 c 128,-1,17
 74 563 74 563 76 568 c 0,18,19
 76 577 76 577 96 637.5 c 128,-1,20
 116 698 116 698 172 802 c 0,21,22
 197 840 197 840 221 867 c 128,-1,23
 245 894 245 894 279.5 911 c 128,-1,24
 314 928 314 928 343 928 c 0,25,26
 380 931 380 931 418.5 923.5 c 128,-1,27
 457 916 457 916 495 901.5 c 128,-1,28
 533 887 533 887 568.5 869 c 128,-1,29
 604 851 604 851 635.5 833.5 c 128,-1,30
 667 816 667 816 692 802 c 128,-1,31
 717 788 717 788 734 782 c 0,32,33
 820 748 820 748 958 746 c 0,34,35
 1027 746 1027 746 1076 760 c 1,36,-1
 1022 479 l 1,37,38
 1000 479 1000 479 928.5 463.5 c 128,-1,39
 857 448 857 448 812 430 c 128,-1,40
 767 412 767 412 764 410 c 2,41,-1
 1111 410 l 1,42,-1
 1111 0 l 1,43,-1
 796 0 l 2,44,45
 738 0 738 0 688 34 c 128,-1,46
 638 68 638 68 629 197 c 2,47,-1
 618 334 l 1,48,49
 558 296 558 296 509.5 252.5 c 128,-1,50
 461 209 461 209 410 164 c 0,0,1
EndSplineSet
EndChar

StartChar: afii57423
Encoding: 1583 1583 190
Width: 786
GlyphClass: 2
Flags: W
AnchorPoint: "Anchor-3" 405 -525 basechar 0
AnchorPoint: "Anchor-2" 450 1185 basechar 0
LayerCount: 2
Fore
SplineSet
600 410 m 1,0,1
 563 617 563 617 352 706 c 1,2,3
 358 734 358 734 380.5 832.5 c 128,-1,4
 403 931 403 931 438 1039 c 1,5,6
 516 1022 516 1022 610 887 c 0,7,8
 730 713 730 713 743 378 c 1,9,10
 743 227 743 227 729 158 c 128,-1,11
 715 89 715 89 710 73 c 0,12,13
 680 0 680 0 654 0 c 2,14,-1
 347 0 l 2,15,16
 280 -2 280 -2 226.5 15 c 128,-1,17
 173 32 173 32 155 101 c 0,18,19
 148 128 148 128 145.5 155 c 128,-1,20
 143 182 143 182 142 209 c 0,21,22
 137 256 137 256 137 347 c 128,-1,23
 137 438 137 438 144 472 c 1,24,25
 157 488 157 488 167 469 c 0,26,27
 192 418 192 418 293 410 c 1,28,-1
 600 410 l 1,0,1
EndSplineSet
Substitution2: "'fina' Terminal Forms in Arabic lookup 2 subtable" afii62780
PairPos2: "'kern' Horizontal Kerning in Arabic lookup 0 subtable" afii57422 dx=0 dy=0 dh=0 dv=0 dx=0 dy=0 dh=-80 dv=0
PairPos2: "'kern' Horizontal Kerning in Arabic lookup 0 subtable" afii57421 dx=0 dy=0 dh=0 dv=0 dx=0 dy=0 dh=-80 dv=0
PairPos2: "'kern' Horizontal Kerning in Arabic lookup 0 subtable" afii57420 dx=0 dy=0 dh=0 dv=0 dx=0 dy=0 dh=-80 dv=0
PairPos2: "'kern' Horizontal Kerning in Arabic lookup 0 subtable" afii57507 dx=0 dy=0 dh=0 dv=0 dx=0 dy=0 dh=-80 dv=0
EndChar

StartChar: afii62780
Encoding: 65194 65194 191
Width: 1020
GlyphClass: 2
Flags: W
AnchorPoint: "Anchor-3" 345 -525 basechar 0
AnchorPoint: "Anchor-2" 660 1275 basechar 0
LayerCount: 2
Fore
SplineSet
851 0 m 2,0,1
 828 0 828 0 809 91 c 2,2,-1
 792 169 l 1,3,-1
 745 59 l 2,4,5
 720 0 720 0 696 0 c 2,6,-1
 278 0 l 2,7,8
 248 0 248 0 223.5 6 c 128,-1,9
 199 12 199 12 190 30 c 0,10,11
 148 85 148 85 144 190 c 0,12,13
 145 245 145 245 156.5 323 c 128,-1,14
 168 401 168 401 200 504 c 0,15,16
 229 598 229 598 253 638 c 0,17,18
 262 650 262 650 269.5 653 c 128,-1,19
 277 656 277 656 282.5 653 c 128,-1,20
 288 650 288 650 291 643 c 128,-1,21
 294 636 294 636 293 629 c 0,22,23
 284 562 284 562 283 499 c 0,24,25
 283 449 283 449 307.5 429.5 c 128,-1,26
 332 410 332 410 371 410 c 2,27,-1
 722 410 l 1,28,29
 722 455 722 455 631 856 c 1,30,-1
 752 1165 l 1,31,32
 790 1046 790 1046 827.5 849 c 128,-1,33
 865 652 865 652 888.5 531 c 128,-1,34
 912 410 912 410 924 410 c 2,35,-1
 1042 410 l 1,36,-1
 1042 0 l 1,37,-1
 851 0 l 2,0,1
EndSplineSet
PairPos2: "'kern' Horizontal Kerning in Arabic lookup 0 subtable" afii57422 dx=0 dy=0 dh=0 dv=0 dx=0 dy=0 dh=-80 dv=0
PairPos2: "'kern' Horizontal Kerning in Arabic lookup 0 subtable" afii57421 dx=0 dy=0 dh=0 dv=0 dx=0 dy=0 dh=-80 dv=0
PairPos2: "'kern' Horizontal Kerning in Arabic lookup 0 subtable" afii57420 dx=0 dy=0 dh=0 dv=0 dx=0 dy=0 dh=-80 dv=0
PairPos2: "'kern' Horizontal Kerning in Arabic lookup 0 subtable" afii57507 dx=0 dy=0 dh=0 dv=0 dx=0 dy=0 dh=-80 dv=0
EndChar

StartChar: afii57425
Encoding: 1585 1585 194
Width: 790
GlyphClass: 2
Flags: W
AnchorPoint: "Anchor-3" 375 -840 basechar 0
AnchorPoint: "Anchor-2" 480 990 basechar 0
LayerCount: 2
Fore
SplineSet
767 366 m 0,0,1
 775 315 775 315 775 251 c 128,-1,2
 775 187 775 187 761 118 c 0,3,4
 737 19 737 19 623.5 -185 c 128,-1,5
 510 -389 510 -389 391 -389 c 0,6,7
 302 -389 302 -389 175 -312.5 c 128,-1,8
 48 -236 48 -236 -50 -122 c 1,9,10
 -47 -102 -47 -102 -34 -103 c 1,11,12
 0 -117 0 -117 24.5 -126 c 128,-1,13
 49 -135 49 -135 67.5 -140.5 c 128,-1,14
 86 -146 86 -146 101.5 -149 c 128,-1,15
 117 -152 117 -152 133 -155 c 0,16,17
 163 -160 163 -160 197 -160 c 0,18,19
 293 -160 293 -160 424 -54 c 0,20,21
 487 -2 487 -2 526.5 42 c 128,-1,22
 566 86 566 86 586 125 c 0,23,24
 600 146 600 146 605.5 164.5 c 128,-1,25
 611 183 611 183 611.5 198.5 c 128,-1,26
 612 214 612 214 608.5 226 c 128,-1,27
 605 238 605 238 602 245 c 0,28,29
 547 342 547 342 415 480 c 1,30,31
 445 587 445 587 481 677 c 128,-1,32
 517 767 517 767 520 767 c 0,33,34
 541 760 541 760 576 722 c 0,35,36
 746 526 746 526 767 366 c 0,0,1
EndSplineSet
Substitution2: "'fina' Terminal Forms in Arabic lookup 2 subtable" afii62782
PairPos2: "'kern' Horizontal Kerning in Arabic lookup 0 subtable" afii57415 dx=0 dy=0 dh=0 dv=0 dx=0 dy=0 dh=-50 dv=0
PairPos2: "'kern' Horizontal Kerning in Arabic lookup 0 subtable" uni0675 dx=0 dy=0 dh=0 dv=0 dx=0 dy=0 dh=-50 dv=0
PairPos2: "'kern' Horizontal Kerning in Arabic lookup 0 subtable" uni0672 dx=0 dy=0 dh=0 dv=0 dx=0 dy=0 dh=-50 dv=0
PairPos2: "'kern' Horizontal Kerning in Arabic lookup 0 subtable" afii57446 dx=0 dy=0 dh=0 dv=0 dx=0 dy=0 dh=50 dv=0
PairPos2: "'kern' Horizontal Kerning in Arabic lookup 0 subtable" afii57442 dx=0 dy=0 dh=0 dv=0 dx=0 dy=0 dh=50 dv=0
PairPos2: "'kern' Horizontal Kerning in Arabic lookup 0 subtable" afii57411 dx=0 dy=0 dh=0 dv=0 dx=0 dy=0 dh=-50 dv=0
EndChar

StartChar: afii62782
Encoding: 65198 65198 195
Width: 911
GlyphClass: 2
Flags: W
AnchorPoint: "Anchor-3" 330 -840 basechar 0
AnchorPoint: "Anchor-2" 570 915 basechar 0
LayerCount: 2
Fore
SplineSet
832 0 m 2,0,1
 794 0 794 0 739 49 c 1,2,3
 703 -113 703 -113 658 -192 c 1,4,5
 613 -280 613 -280 567.5 -335.5 c 128,-1,6
 522 -391 522 -391 512 -398 c 0,7,8
 458 -443 458 -443 392 -443 c 0,9,10
 329 -443 329 -443 174 -352 c 1,11,12
 4 -246 4 -246 -35 -169 c 1,13,14
 -28 -150 -28 -150 -16 -150 c 1,15,16
 50 -197 50 -197 176 -197 c 0,17,18
 282 -197 282 -197 385 -115 c 0,19,20
 470 -49 470 -49 530 24 c 0,21,22
 589 91 589 91 592 148 c 0,23,24
 592 197 592 197 556 286 c 0,25,26
 523 362 523 362 463 460 c 1,27,28
 508 551 508 551 558 639 c 128,-1,29
 608 727 608 727 611 727 c 2,30,-1
 650 649 l 2,31,32
 685 580 685 580 721 520.5 c 128,-1,33
 757 461 757 461 798 430 c 0,34,35
 807 422 807 422 819 416 c 128,-1,36
 831 410 831 410 842 410 c 2,37,-1
 948 410 l 1,38,-1
 948 0 l 1,39,-1
 832 0 l 2,0,1
EndSplineSet
PairPos2: "'kern' Horizontal Kerning in Arabic lookup 0 subtable" afii57415 dx=0 dy=0 dh=0 dv=0 dx=0 dy=0 dh=-100 dv=0
PairPos2: "'kern' Horizontal Kerning in Arabic lookup 0 subtable" afii62817 dx=0 dy=0 dh=0 dv=0 dx=0 dy=0 dh=-70 dv=0
PairPos2: "'kern' Horizontal Kerning in Arabic lookup 0 subtable" afii57443 dx=0 dy=0 dh=0 dv=0 dx=0 dy=0 dh=-70 dv=0
PairPos2: "'kern' Horizontal Kerning in Arabic lookup 0 subtable" afii57422 dx=0 dy=0 dh=0 dv=0 dx=0 dy=0 dh=50 dv=0
PairPos2: "'kern' Horizontal Kerning in Arabic lookup 0 subtable" afii57421 dx=0 dy=0 dh=0 dv=0 dx=0 dy=0 dh=50 dv=0
PairPos2: "'kern' Horizontal Kerning in Arabic lookup 0 subtable" afii57420 dx=0 dy=0 dh=0 dv=0 dx=0 dy=0 dh=50 dv=0
PairPos2: "'kern' Horizontal Kerning in Arabic lookup 0 subtable" afii57507 dx=0 dy=0 dh=0 dv=0 dx=0 dy=0 dh=50 dv=0
EndChar

StartChar: afii57427
Encoding: 1587 1587 198
Width: 1649
GlyphClass: 2
Flags: W
AnchorPoint: "Anchor-3" 480 -885 basechar 0
AnchorPoint: "Anchor-2" 555 900 basechar 0
LayerCount: 2
Fore
SplineSet
890 -180 m 0,0,1
 869 -248 869 -248 817 -312 c 1,2,-1
 785 -344 l 2,3,4
 761 -368 761 -368 702 -408 c 1,5,-1
 648 -432 l 1,6,7
 554 -462 554 -462 449 -462 c 0,8,9
 353 -462 353 -462 276 -430 c 1,10,11
 235 -408 235 -408 219 -397 c 128,-1,12
 203 -386 203 -386 173.5 -348 c 128,-1,13
 144 -310 144 -310 127 -260 c 0,14,15
 114 -226 114 -226 112 -169 c 0,16,17
 109 -89 109 -89 117.5 -24 c 128,-1,18
 126 41 126 41 164 164 c 0,19,20
 210 305 210 305 304 408 c 1,21,22
 325 424 325 424 337 415 c 128,-1,23
 349 406 349 406 338 383 c 0,24,25
 270 276 270 276 257 143 c 1,26,27
 257 59 257 59 282 19 c 0,28,29
 282 12 282 12 299 -5 c 0,30,31
 306 -14 306 -14 338 -44 c 0,32,33
 395 -96 395 -96 520 -96 c 0,34,35
 542 -96 542 -96 559 -94 c 0,36,37
 601 -94 601 -94 667 -76 c 0,38,39
 780 -47 780 -47 810 2 c 1,40,-1
 820 30 l 1,41,42
 820 73 820 73 785.5 178 c 128,-1,43
 751 283 751 283 690 391 c 1,44,45
 793 622 793 622 817 661 c 1,46,47
 847 644 847 644 960 380 c 1,48,49
 1040 386 1040 386 1073 420 c 1,50,51
 1108 448 1108 448 1164 590 c 1,52,-1
 1312 685 l 1,53,54
 1298 518 1298 518 1240 403 c 1,55,56
 1302 373 1302 373 1457 366 c 1,57,-1
 1402 499 l 1,58,-1
 1508 788 l 1,59,60
 1574 750 1574 750 1595 568 c 0,61,62
 1600 506 1600 506 1597 426.5 c 128,-1,63
 1594 347 1594 347 1585 314 c 0,64,65
 1540 120 1540 120 1493 10 c 1,66,67
 1441 12 1441 12 1397 17 c 2,68,-1
 1309 28 l 2,69,70
 1223 37 1223 37 1134 71 c 1,71,72
 1120 54 1120 54 1058.5 39.5 c 128,-1,73
 997 25 997 25 942 24 c 1,74,75
 933 -27 933 -27 920 -78 c 128,-1,76
 907 -129 907 -129 890 -180 c 0,0,1
EndSplineSet
Substitution2: "'medi' Medial Forms in Arabic lookup 3 subtable" afii62785
Substitution2: "'fina' Terminal Forms in Arabic lookup 2 subtable" afii62786
Substitution2: "'init' Initial Forms in Arabic lookup 1 subtable" afii62784
EndChar

StartChar: afii62786
Encoding: 65202 65202 199
Width: 1787
GlyphClass: 2
Flags: W
AnchorPoint: "Anchor-3" 450 -870 basechar 0
AnchorPoint: "Anchor-2" 615 885 basechar 0
LayerCount: 2
Fore
SplineSet
1812 0 m 1,0,-1
 1714 0 l 2,1,2
 1618 0 1618 0 1568 89 c 1,3,4
 1554 30 1554 30 1498 -10 c 1,5,-1
 1494 -10 l 1,6,7
 1409 0 1409 0 1313 12 c 128,-1,8
 1217 24 1217 24 1151 52 c 1,9,10
 1146 40 1146 40 1088.5 20 c 128,-1,11
 1031 0 1031 0 973 0 c 1,12,13
 944 -152 944 -152 886 -251 c 0,14,15
 870 -280 870 -280 819 -336 c 128,-1,16
 768 -392 768 -392 673 -431 c 1,17,18
 581 -462 581 -462 475 -462 c 0,19,20
 382 -462 382 -462 300 -430 c 1,21,22
 253 -402 253 -402 244 -392 c 0,23,24
 185 -349 185 -349 154 -260 c 0,25,26
 139 -218 139 -218 139 -169 c 0,27,28
 139 7 139 7 192 164 c 0,29,30
 234 293 234 293 330 408 c 0,31,32
 343 419 343 419 352 421 c 128,-1,33
 361 423 361 423 365 418.5 c 128,-1,34
 369 414 369 414 368.5 404.5 c 128,-1,35
 368 395 368 395 364 383 c 2,36,-1
 308 265 l 2,37,38
 286 214 286 214 283 143 c 0,39,40
 284 47 284 47 305 19 c 1,41,42
 354 -96 354 -96 541 -96 c 0,43,44
 628 -94 628 -94 717 -70.5 c 128,-1,45
 806 -47 806 -47 844 2 c 1,46,47
 841 89 841 89 813 172.5 c 128,-1,48
 785 256 785 256 713 368 c 1,49,-1
 844 638 l 1,50,51
 860 629 860 629 900 563 c 128,-1,52
 940 497 940 497 994 364 c 1,53,54
 1062 368 1062 368 1094 397.5 c 128,-1,55
 1126 427 1126 427 1182 570 c 1,56,-1
 1330 666 l 1,57,58
 1318 504 1318 504 1259 383 c 1,59,60
 1318 354 1318 354 1472 347 c 1,61,62
 1480 376 1480 376 1474 448 c 0,63,64
 1469 485 1469 485 1469 492 c 0,65,66
 1561 685 1561 685 1568 688 c 1,67,68
 1601 614 1601 614 1622 511 c 0,69,70
 1640 426 1640 426 1674.5 418 c 128,-1,71
 1709 410 1709 410 1735 410 c 2,72,-1
 1812 410 l 1,73,-1
 1812 0 l 1,0,-1
EndSplineSet
EndChar

StartChar: afii62784
Encoding: 65203 65203 200
Width: 1054
GlyphClass: 2
Flags: W
AnchorPoint: "Anchor-3" 435 -585 basechar 0
AnchorPoint: "Anchor-2" 480 945 basechar 0
LayerCount: 2
Fore
SplineSet
497 401 m 1,0,1
 532 427 532 427 586 570 c 1,2,-1
 736 666 l 1,3,4
 726 514 726 514 664 383 c 1,5,6
 706 364 706 364 754 358 c 128,-1,7
 802 352 802 352 881 347 c 1,8,-1
 827 479 l 1,9,-1
 932 769 l 1,10,11
 967 748 967 748 995 649 c 0,12,13
 1018 560 1018 560 1018 469.5 c 128,-1,14
 1018 379 1018 379 1003 295 c 0,15,16
 960 98 960 98 917 -12 c 1,17,18
 865 -10 865 -10 748.5 4.5 c 128,-1,19
 632 19 632 19 558 52 c 1,20,21
 536 28 536 28 406 10 c 0,22,23
 293 -5 293 -5 239 -2 c 0,24,25
 217 0 217 0 217 10 c 0,26,27
 217 19 217 19 219.5 41.5 c 128,-1,28
 222 64 222 64 222 76 c 1,29,30
 212 64 212 64 173 40 c 0,31,32
 114 0 114 0 74 0 c 2,33,-1
 -24 0 l 1,34,-1
 -24 410 l 1,35,-1
 116 410 l 2,36,37
 158 410 158 410 202 462 c 0,38,39
 244 506 244 506 258 551 c 1,40,-1
 403 626 l 1,41,42
 403 563 403 563 320 361 c 1,43,44
 452 356 452 356 497 401 c 1,0,1
EndSplineSet
EndChar

StartChar: afii62785
Encoding: 65204 65204 201
Width: 1206
GlyphClass: 2
Flags: W
AnchorPoint: "Anchor-3" 555 -585 basechar 0
AnchorPoint: "Anchor-2" 645 975 basechar 0
LayerCount: 2
Fore
SplineSet
1223 0 m 1,0,-1
 1124 0 l 2,1,2
 1026 0 1026 0 982 89 c 1,3,4
 962 28 962 28 907 -10 c 1,5,-1
 905 -10 l 1,6,7
 820 -4 820 -4 725 9 c 128,-1,8
 630 22 630 22 564 52 c 1,9,10
 546 28 546 28 416 10 c 0,11,12
 306 -5 306 -5 252 -2 c 0,13,14
 227 0 227 0 227 10 c 0,15,16
 227 19 227 19 228 41.5 c 128,-1,17
 229 64 229 64 229 73 c 1,18,19
 133 10 133 10 108.5 5 c 128,-1,20
 84 0 84 0 79 0 c 2,21,-1
 -17 0 l 1,22,-1
 -17 410 l 1,23,-1
 121 410 l 2,24,25
 163 410 163 410 210 462 c 0,26,27
 252 506 252 506 266 551 c 1,28,-1
 409 626 l 1,29,30
 409 563 409 563 325 361 c 1,31,32
 461 356 461 356 503 401 c 1,33,34
 539 427 539 427 593 570 c 1,35,-1
 740 666 l 1,36,37
 736 521 736 521 672 383 c 1,38,39
 731 354 731 354 883 347 c 1,40,41
 890 376 890 376 885.5 430 c 128,-1,42
 881 484 881 484 881 491 c 0,43,44
 972 685 972 685 982 688 c 1,45,46
 1026 544 1026 544 1056 460 c 0,47,48
 1074 420 1074 420 1097 415 c 128,-1,49
 1120 410 1120 410 1146 410 c 2,50,-1
 1223 410 l 1,51,-1
 1223 0 l 1,0,-1
EndSplineSet
EndChar

StartChar: afii57429
Encoding: 1589 1589 206
Width: 1897
GlyphClass: 2
Flags: W
AnchorPoint: "Anchor-3" 495 -975 basechar 0
AnchorPoint: "Anchor-2" 630 900 basechar 0
LayerCount: 2
Fore
SplineSet
906 565 m 0,0,1
 961 462 961 462 979 416 c 1,2,3
 1326 678 1326 678 1438 737 c 0,4,5
 1576 814 1576 814 1630 806 c 1,6,7
 1723 784 1723 784 1788 692 c 128,-1,8
 1853 600 1853 600 1853 494 c 0,9,10
 1853 450 1853 450 1848 418 c 0,11,12
 1842 377 1842 377 1816 272 c 0,13,14
 1772 115 1772 115 1747 46 c 0,15,16
 1730 -1 1730 -1 1708 0 c 2,17,-1
 959 0 l 1,18,19
 954 -52 954 -52 941 -96 c 0,20,21
 896 -256 896 -256 806 -347 c 0,22,23
 769 -383 769 -383 722 -408 c 2,24,-1
 671 -432 l 1,25,26
 577 -462 577 -462 472 -462 c 0,27,28
 376 -462 376 -462 300 -432 c 1,29,30
 258 -410 258 -410 237 -393 c 128,-1,31
 216 -376 216 -376 181 -317 c 0,32,33
 148 -259 148 -259 138 -169 c 1,34,35
 137 -79 137 -79 146 -2 c 0,36,37
 178 236 178 236 324 408 c 0,38,39
 340 423 340 423 349 425 c 128,-1,40
 358 427 358 427 361 421 c 128,-1,41
 364 415 364 415 363 404 c 128,-1,42
 362 393 362 393 359 383 c 2,43,-1
 308 265 l 2,44,45
 283 204 283 204 282 143 c 1,46,47
 288 64 288 64 307 23 c 0,48,49
 326 -17 326 -17 359 -44 c 0,50,51
 415 -96 415 -96 541 -96 c 0,52,53
 564 -97 564 -97 614 -90 c 0,54,55
 666 -84 666 -84 691 -76 c 0,56,57
 812 -47 812 -47 841 30 c 1,58,59
 841 59 841 59 816 156 c 0,60,61
 792 253 792 253 703 413 c 1,62,-1
 760 539 l 2,63,64
 821 676 821 676 830 680 c 1,65,66
 848 673 848 673 906 565 c 0,0,1
1642 410 m 1,67,68
 1625 481 1625 481 1575.5 517 c 128,-1,69
 1526 553 1526 553 1470 553 c 2,70,-1
 1442 551 l 1,71,72
 1325 533 1325 533 1169 410 c 1,73,-1
 1642 410 l 1,67,68
EndSplineSet
Substitution2: "'medi' Medial Forms in Arabic lookup 3 subtable" afii62791
Substitution2: "'fina' Terminal Forms in Arabic lookup 2 subtable" afii62792
Substitution2: "'init' Initial Forms in Arabic lookup 1 subtable" afii62790
EndChar

StartChar: afii62792
Encoding: 65210 65210 207
Width: 1895
GlyphClass: 2
Flags: W
AnchorPoint: "Anchor-3" 465 -885 basechar 0
AnchorPoint: "Anchor-2" 615 870 basechar 0
LayerCount: 2
Fore
SplineSet
878 565 m 0,0,1
 934 462 934 462 952 416 c 1,2,3
 1298 678 1298 678 1410 737 c 0,4,5
 1548 814 1548 814 1602 806 c 1,6,7
 1696 784 1696 784 1760.5 692 c 128,-1,8
 1825 600 1825 600 1825 494 c 0,9,10
 1825 450 1825 450 1820 418 c 2,11,-1
 1819 410 l 1,12,-1
 1927 410 l 1,13,-1
 1927 0 l 1,14,-1
 1780 0 l 1,15,-1
 1730 78 l 1,16,17
 1724 60 1724 60 1720 46 c 0,18,19
 1703 -1 1703 -1 1680 0 c 2,20,-1
 931 0 l 1,21,22
 926 -52 926 -52 913 -96 c 0,23,24
 869 -256 869 -256 779 -347 c 0,25,26
 742 -383 742 -383 695 -408 c 2,27,-1
 643 -432 l 1,28,29
 550 -462 550 -462 444 -462 c 0,30,31
 348 -462 348 -462 272 -432 c 1,32,33
 230 -410 230 -410 209 -393 c 128,-1,34
 188 -376 188 -376 154 -317 c 0,35,36
 120 -259 120 -259 110 -169 c 1,37,38
 109 -79 109 -79 119 -2 c 0,39,40
 150 236 150 236 296 408 c 0,41,42
 312 423 312 423 321 425 c 128,-1,43
 330 427 330 427 333.5 421 c 128,-1,44
 337 415 337 415 336 404 c 128,-1,45
 335 393 335 393 331 383 c 2,46,-1
 281 265 l 2,47,48
 256 204 256 204 254 143 c 1,49,50
 260 64 260 64 280 23 c 0,51,52
 299 -17 299 -17 331 -44 c 0,53,54
 388 -96 388 -96 514 -96 c 0,55,56
 536 -97 536 -97 587 -90 c 0,57,58
 638 -84 638 -84 664 -76 c 0,59,60
 785 -47 785 -47 814 30 c 1,61,62
 814 59 814 59 788 156 c 0,63,64
 764 253 764 253 676 413 c 1,65,-1
 732 539 l 2,66,67
 793 676 793 676 803 680 c 1,68,69
 821 673 821 673 878 565 c 0,0,1
1614 410 m 1,70,71
 1597 481 1597 481 1548 517 c 128,-1,72
 1499 553 1499 553 1442 553 c 1,73,-1
 1415 551 l 1,74,75
 1297 533 1297 533 1141 410 c 1,76,-1
 1614 410 l 1,70,71
EndSplineSet
EndChar

StartChar: afii62790
Encoding: 65211 65211 208
Width: 1277
GlyphClass: 2
Flags: W
AnchorPoint: "Anchor-3" 390 -675 basechar 0
AnchorPoint: "Anchor-2" 480 1035 basechar 0
LayerCount: 2
Fore
SplineSet
1025 410 m 1,0,1
 1008 481 1008 481 959 517 c 128,-1,2
 910 553 910 553 853 553 c 1,3,-1
 826 551 l 1,4,5
 708 533 708 533 552 410 c 1,6,-1
 1025 410 l 1,0,1
154 410 m 1,7,8
 146 530 146 530 133 593 c 1,9,-1
 274 772 l 1,10,11
 288 736 288 736 296 699 c 128,-1,12
 304 662 304 662 306 624 c 0,13,14
 308 545 308 545 290 410 c 1,15,-1
 354 410 l 1,16,17
 708 678 708 678 821 737 c 0,18,19
 959 814 959 814 1013 806 c 1,20,21
 1106 784 1106 784 1171 692 c 128,-1,22
 1236 600 1236 600 1236 494 c 0,23,24
 1236 450 1236 450 1231 418 c 0,25,26
 1225 377 1225 377 1199 272 c 0,27,28
 1156 115 1156 115 1130 46 c 0,29,30
 1114 -1 1114 -1 1091 0 c 2,31,-1
 323 0 l 2,32,33
 306 0 306 0 288 30 c 2,34,-1
 234 127 l 1,35,-1
 203 35 l 1,36,-1
 194 10 l 2,37,38
 192 0 192 0 178 0 c 2,39,-1
 -22 0 l 1,40,-1
 -22 410 l 1,41,-1
 154 410 l 1,7,8
EndSplineSet
EndChar

StartChar: afii62791
Encoding: 65212 65212 209
Width: 1300
GlyphClass: 2
Flags: W
AnchorPoint: "Anchor-3" 555 -600 basechar 0
AnchorPoint: "Anchor-2" 555 1035 basechar 0
LayerCount: 2
Fore
SplineSet
152 410 m 1,0,1
 145 530 145 530 132 593 c 1,2,-1
 272 772 l 1,3,4
 286 736 286 736 294.5 699 c 128,-1,5
 303 662 303 662 305 624 c 0,6,7
 307 545 307 545 289 410 c 1,8,-1
 353 410 l 1,9,10
 707 678 707 678 820 737 c 0,11,12
 958 814 958 814 1012 806 c 1,13,14
 1105 784 1105 784 1170 692 c 128,-1,15
 1235 600 1235 600 1235 494 c 0,16,17
 1235 450 1235 450 1230 418 c 0,18,19
 1230 414 1230 414 1230 410 c 1,20,-1
 1342 410 l 1,21,-1
 1342 0 l 1,22,-1
 1194 0 l 1,23,-1
 1141 78 l 1,24,25
 1135 60 1135 60 1129 46 c 0,26,27
 1112 -1 1112 -1 1090 0 c 2,28,-1
 322 0 l 2,29,30
 305 0 305 0 287 30 c 2,31,-1
 233 127 l 1,32,-1
 202 35 l 1,33,-1
 193 10 l 2,34,35
 191 0 191 0 176 0 c 2,36,-1
 -23 0 l 1,37,-1
 -23 410 l 1,38,-1
 152 410 l 1,0,1
1024 410 m 1,39,40
 1007 481 1007 481 957.5 517 c 128,-1,41
 908 553 908 553 852 553 c 2,42,-1
 824 551 l 1,43,44
 707 533 707 533 551 410 c 1,45,-1
 1024 410 l 1,39,40
EndSplineSet
EndChar

StartChar: afii57431
Encoding: 1591 1591 214
Width: 1366
GlyphClass: 2
Flags: W
AnchorPoint: "Anchor-3" 630 -480 basechar 0
AnchorPoint: "Anchor-2" 915 1200 basechar 0
LayerCount: 2
Fore
SplineSet
386 607 m 1,0,1
 378 924 378 924 365 1006 c 0,2,3
 353 1057 353 1057 324 1088 c 0,4,5
 281 1129 281 1129 296 1165 c 2,6,-1
 430 1414 l 1,7,8
 446 1339 446 1339 519 1244.5 c 128,-1,9
 592 1150 592 1150 670 1096 c 1,10,-1
 534 898 l 1,11,12
 534 760 534 760 515 595 c 1,13,-1
 498 518 l 1,14,15
 761 725 761 725 840 764 c 1,16,17
 979 842 979 842 1054 859 c 1,18,-1
 1068 860 l 1,19,20
 1132 860 1132 860 1226 737 c 128,-1,21
 1320 614 1320 614 1324 539 c 0,22,23
 1324 499 1324 499 1307 418 c 1,24,-1
 1232 148 l 2,25,26
 1196 30 1196 30 1176 12 c 0,27,28
 1166 2 1166 2 1157 0 c 2,29,-1
 382 0 l 1,30,-1
 347 4 l 1,31,32
 246 37 246 37 194 142 c 0,33,34
 150 232 150 232 150 348 c 0,35,36
 150 414 150 414 163 463 c 1,37,38
 173 481 173 481 187 461 c 0,39,40
 206 430 206 430 235 416 c 0,41,42
 290 389 290 389 352 406 c 1,43,-1
 395 434 l 1,44,-1
 386 607 l 1,0,1
1021 419 m 1,45,46
 990 487 990 487 948 526 c 1,47,48
 916 563 916 563 866 568 c 1,49,50
 793 568 793 568 712 508 c 128,-1,51
 631 448 631 448 596 410 c 1,52,-1
 962 410 l 1,53,-1
 1021 419 l 1,45,46
EndSplineSet
Substitution2: "'medi' Medial Forms in Arabic lookup 3 subtable" afii62797
Substitution2: "'fina' Terminal Forms in Arabic lookup 2 subtable" afii62798
Substitution2: "'init' Initial Forms in Arabic lookup 1 subtable" afii62796
EndChar

StartChar: afii62798
Encoding: 65218 65218 215
Width: 1445
GlyphClass: 2
Flags: W
AnchorPoint: "Anchor-3" 675 -525 basechar 0
AnchorPoint: "Anchor-2" 945 1185 basechar 0
LayerCount: 2
Fore
SplineSet
1295 0 m 1,0,-1
 1240 89 l 1,1,2
 1216 25 1216 25 1201 12 c 0,3,4
 1192 2 1192 2 1182 0 c 2,5,-1
 374 0 l 1,6,-1
 374 2 l 1,7,-1
 334 6 l 1,8,9
 233 31 233 31 181 136 c 0,10,11
 137 226 137 226 137 342 c 0,12,13
 137 408 137 408 150 457 c 1,14,15
 160 475 160 475 174 455 c 0,16,17
 193 424 193 424 222 410 c 0,18,19
 277 383 277 383 338 400 c 1,20,-1
 420 443 l 1,21,-1
 412 607 l 1,22,23
 403 924 403 924 390 1006 c 0,24,25
 378 1057 378 1057 349 1088 c 0,26,27
 306 1129 306 1129 322 1165 c 2,28,-1
 455 1414 l 1,29,30
 472 1339 472 1339 544.5 1244.5 c 128,-1,31
 617 1150 617 1150 695 1096 c 1,32,-1
 559 898 l 1,33,34
 559 760 559 760 540 595 c 1,35,-1
 523 518 l 1,36,37
 786 725 786 725 865 764 c 1,38,39
 1004 842 1004 842 1079 859 c 1,40,-1
 1093 860 l 1,41,42
 1157 860 1157 860 1251 737 c 128,-1,43
 1345 614 1345 614 1349 539 c 0,44,45
 1349 499 1349 499 1332 418 c 1,46,-1
 1331 410 l 1,47,-1
 1489 410 l 1,48,-1
 1489 0 l 1,49,-1
 1295 0 l 1,0,-1
1046 419 m 0,50,51
 1015 487 1015 487 973 526 c 1,52,53
 941 563 941 563 892 568 c 1,54,55
 818 568 818 568 737 508 c 128,-1,56
 656 448 656 448 622 410 c 1,57,-1
 988 410 l 2,58,59
 1048 409 1048 409 1046 419 c 0,50,51
EndSplineSet
EndChar

StartChar: afii62796
Encoding: 65219 65219 216
Width: 1156
GlyphClass: 2
Flags: W
AnchorPoint: "Anchor-3" 420 -510 basechar 0
AnchorPoint: "Anchor-2" 705 1140 basechar 0
LayerCount: 2
Fore
SplineSet
811 419 m 0,0,1
 780 487 780 487 738 526 c 1,2,3
 706 563 706 563 656 568 c 1,4,5
 583 568 583 568 502 508 c 128,-1,6
 421 448 421 448 386 410 c 1,7,-1
 752 410 l 2,8,9
 812 409 812 409 811 419 c 0,0,1
-17 410 m 1,10,-1
 154 410 l 1,11,-1
 185 434 l 1,12,-1
 176 607 l 1,13,14
 168 924 168 924 155 1006 c 0,15,16
 143 1057 143 1057 114 1088 c 0,17,18
 71 1129 71 1129 86 1165 c 2,19,-1
 220 1414 l 1,20,21
 236 1339 236 1339 309 1244.5 c 128,-1,22
 382 1150 382 1150 460 1096 c 1,23,-1
 324 898 l 1,24,25
 324 760 324 760 305 595 c 1,26,-1
 288 518 l 1,27,28
 551 725 551 725 630 764 c 1,29,30
 769 842 769 842 844 859 c 1,31,-1
 858 860 l 1,32,33
 922 860 922 860 1016 737 c 128,-1,34
 1110 614 1110 614 1114 539 c 0,35,36
 1114 499 1114 499 1097 418 c 1,37,-1
 1022 148 l 2,38,39
 986 30 986 30 966 12 c 0,40,41
 956 2 956 2 947 0 c 2,42,-1
 -17 0 l 1,43,-1
 -17 410 l 1,10,-1
EndSplineSet
EndChar

StartChar: afii62797
Encoding: 65220 65220 217
Width: 1210
GlyphClass: 2
Flags: W
AnchorPoint: "Anchor-3" 540 -525 basechar 0
AnchorPoint: "Anchor-2" 750 1170 basechar 0
LayerCount: 2
Fore
SplineSet
1060 0 m 1,0,-1
 1004 89 l 1,1,2
 980 25 980 25 966 12 c 0,3,4
 956 2 956 2 947 0 c 2,5,-1
 -17 0 l 1,6,-1
 -17 410 l 1,7,-1
 154 410 l 1,8,-1
 185 434 l 1,9,-1
 176 607 l 1,10,11
 168 924 168 924 155 1006 c 0,12,13
 143 1057 143 1057 114 1088 c 0,14,15
 71 1129 71 1129 86 1165 c 2,16,-1
 220 1414 l 1,17,18
 236 1339 236 1339 309 1244.5 c 128,-1,19
 382 1150 382 1150 460 1096 c 1,20,-1
 324 898 l 1,21,22
 324 760 324 760 305 595 c 1,23,-1
 288 518 l 1,24,25
 551 725 551 725 630 764 c 1,26,27
 769 842 769 842 844 859 c 1,28,-1
 858 860 l 1,29,30
 922 860 922 860 1016 737 c 128,-1,31
 1110 614 1110 614 1114 539 c 0,32,33
 1114 499 1114 499 1097 418 c 1,34,-1
 1096 410 l 1,35,-1
 1254 410 l 1,36,-1
 1254 0 l 1,37,-1
 1060 0 l 1,0,-1
811 419 m 0,38,39
 780 487 780 487 738 526 c 1,40,41
 706 563 706 563 656 568 c 1,42,43
 583 568 583 568 502 508 c 128,-1,44
 421 448 421 448 386 410 c 1,45,-1
 752 410 l 2,46,47
 812 409 812 409 811 419 c 0,38,39
EndSplineSet
EndChar

StartChar: afii57433
Encoding: 1593 1593 222
Width: 964
GlyphClass: 2
Flags: W
AnchorPoint: "Anchor-3" 570 -1185 basechar 0
AnchorPoint: "Anchor-2" 420 1275 basechar 0
LayerCount: 2
Fore
SplineSet
1056 -396 m 2,0,1
 1056 -437 1056 -437 992 -522.5 c 128,-1,2
 928 -608 928 -608 859 -636 c 0,3,4
 755 -683 755 -683 578 -683 c 0,5,6
 508 -683 508 -683 445 -674 c 0,7,8
 250 -642 250 -642 188 -452 c 0,9,10
 162 -373 162 -373 164 -220 c 0,11,12
 167 -83 167 -83 225.5 80.5 c 128,-1,13
 284 244 284 244 331 298 c 1,14,-1
 245 356 l 2,15,16
 173 400 173 400 170 522 c 1,17,-1
 180 602 l 2,18,19
 205 786 205 786 303.5 947 c 128,-1,20
 402 1108 402 1108 467 1108 c 0,21,22
 599 1100 599 1100 732 859 c 0,23,24
 737 848 737 848 738.5 838.5 c 128,-1,25
 740 829 740 829 732 829 c 2,26,-1
 625 835 l 1,27,28
 530 835 530 835 472 824 c 0,29,30
 395 811 395 811 356 760 c 0,31,32
 341 738 341 738 341 714 c 0,33,34
 341 674 341 674 370.5 642 c 128,-1,35
 400 610 400 610 440 610 c 0,36,37
 553 610 553 610 628 648 c 2,38,-1
 767 718 l 2,39,40
 809 738 809 738 863 738 c 2,41,-1
 884 738 l 1,42,43
 884 698 884 698 863 583 c 0,44,45
 839 457 839 457 826 442 c 1,46,47
 676 374 676 374 536 257 c 0,48,49
 362 109 362 109 341 -17 c 1,50,-1
 341 -41 l 1,51,-1
 338 -59 l 1,52,53
 338 -180 338 -180 438 -266 c 0,54,55
 553 -361 553 -361 710 -372 c 0,56,57
 784 -375 784 -375 857 -377 c 128,-1,58
 930 -379 930 -379 1002 -382 c 0,59,60
 1054 -384 1054 -384 1056 -389 c 2,61,-1
 1056 -396 l 2,0,1
EndSplineSet
Substitution2: "'medi' Medial Forms in Arabic lookup 3 subtable" afii62803
Substitution2: "'fina' Terminal Forms in Arabic lookup 2 subtable" afii62804
Substitution2: "'init' Initial Forms in Arabic lookup 1 subtable" afii62802
EndChar

StartChar: afii62804
Encoding: 65226 65226 223
Width: 966
GlyphClass: 2
Flags: W
AnchorPoint: "Anchor-3" 510 -1140 basechar 0
AnchorPoint: "Anchor-2" 450 1260 basechar 0
LayerCount: 2
Fore
SplineSet
720 496 m 0,0,1
 711 470 711 470 711 453.5 c 128,-1,2
 711 437 711 437 718.5 427 c 128,-1,3
 726 417 726 417 738.5 413.5 c 128,-1,4
 751 410 751 410 768 410 c 2,5,-1
 992 410 l 1,6,-1
 992 0 l 1,7,-1
 647 0 l 2,8,9
 601 0 601 0 493 313 c 1,10,11
 464 294 464 294 422 257 c 1,12,-1
 328 142 l 1,13,14
 271 55 271 55 271 -19 c 0,15,16
 271 -67 271 -67 296 -125 c 0,17,18
 352 -252 352 -252 491 -330 c 0,19,20
 576 -378 576 -378 656 -383 c 2,21,-1
 938 -400 l 2,22,23
 986 -402 986 -402 979 -402 c 1,24,-1
 982 -410 l 1,25,26
 982 -452 982 -452 863 -577 c 128,-1,27
 744 -702 744 -702 676 -727 c 1,28,29
 578 -725 578 -725 491 -707 c 0,30,31
 324 -678 324 -678 234 -556 c 1,32,33
 140 -413 140 -413 140 -133 c 0,34,35
 140 28 140 28 227 234 c 1,36,37
 314 428 314 428 398 503 c 1,38,39
 390 529 390 529 354.5 570.5 c 128,-1,40
 319 612 319 612 277 617 c 1,41,-1
 148 617 l 1,42,43
 174 714 174 714 253 924 c 1,44,45
 377 1025 377 1025 504 1025 c 0,46,47
 739 1025 739 1025 808 718 c 1,48,49
 780 635 780 635 720 496 c 0,0,1
EndSplineSet
EndChar

StartChar: afii62802
Encoding: 65227 65227 224
Width: 997
GlyphClass: 2
Flags: W
AnchorPoint: "Anchor-3" 375 -540 basechar 0
AnchorPoint: "Anchor-2" 390 1200 basechar 0
LayerCount: 2
Fore
SplineSet
965 432 m 1,0,1
 965 408 965 408 913 244 c 0,2,3
 854 52 854 52 850 42 c 0,4,5
 844 28 844 28 836.5 24 c 128,-1,6
 829 20 829 20 821 19 c 2,7,-1
 174 0 l 1,8,-1
 -23 0 l 1,9,-1
 -23 410 l 1,10,-1
 142 410 l 1,11,-1
 139 450 l 1,12,13
 139 546 139 546 152 577 c 0,14,15
 188 656 188 656 263 745 c 0,16,17
 410 922 410 922 505 946 c 1,18,19
 600 965 600 965 680 898 c 1,20,21
 772 814 772 814 835 642 c 0,22,23
 840 624 840 624 844 605.5 c 128,-1,24
 848 587 848 587 848 569 c 0,25,26
 850 556 850 556 845 551.5 c 128,-1,27
 840 547 840 547 835 551 c 0,28,29
 819 565 819 565 803.5 579 c 128,-1,30
 788 593 788 593 772 607 c 0,31,32
 692 676 692 676 540 676 c 0,33,34
 388 672 388 672 324 623 c 1,35,-1
 395 539 l 2,36,37
 474 443 474 443 505 425 c 1,38,-1
 965 432 l 1,0,1
EndSplineSet
EndChar

StartChar: afii62803
Encoding: 65228 65228 225
Width: 701
GlyphClass: 2
Flags: W
AnchorPoint: "Anchor-3" 330 -480 basechar 0
AnchorPoint: "Anchor-2" 315 1065 basechar 0
LayerCount: 2
Fore
SplineSet
418 0 m 1,0,-1
 410 19 l 1,1,2
 374 131 374 131 356 155 c 1,3,-1
 302 0 l 1,4,-1
 -52 0 l 1,5,-1
 -52 410 l 1,6,-1
 269 410 l 1,7,8
 260 434 260 434 241 457 c 2,9,-1
 224 476 l 2,10,11
 192 514 192 514 155 516 c 2,12,-1
 116 518 l 1,13,-1
 70 518 l 1,14,-1
 35 516 l 1,15,16
 59 610 59 610 82 661 c 2,17,-1
 136 806 l 1,18,19
 248 894 248 894 366 894 c 0,20,21
 581 894 581 894 647 610 c 1,22,23
 625 539 625 539 605 490 c 2,24,-1
 576 410 l 1,25,-1
 755 410 l 1,26,-1
 755 0 l 1,27,-1
 418 0 l 1,0,-1
EndSplineSet
EndChar

StartChar: afii57443
Encoding: 1603 1603 238
Width: 1555
GlyphClass: 2
Flags: W
AnchorPoint: "Anchor-3" 720 -585 basechar 0
AnchorPoint: "Anchor-2" 675 1365 basechar 0
LayerCount: 2
Fore
SplineSet
1435 413 m 1,0,-1
 1435 356 l 1,1,2
 1421 228 1421 228 1406 152 c 128,-1,3
 1391 76 1391 76 1384 59 c 0,4,5
 1362 0 1362 0 1320 0 c 2,6,-1
 366 0 l 2,7,8
 268 0 268 0 220 6 c 128,-1,9
 172 12 172 12 157 89 c 1,10,11
 138 268 138 268 139 340.5 c 128,-1,12
 140 413 140 413 148 455 c 0,13,14
 155 476 155 476 164 457 c 0,15,16
 181 415 181 415 307 413 c 2,17,-1
 1250 410 l 1,18,-1
 1206 914 l 1,19,-1
 1196 956 l 2,20,21
 1189 990 1189 990 1175 1006 c 2,22,-1
 1126 1067 l 1,23,-1
 1290 1367 l 1,24,25
 1313 1283 1313 1283 1398 1168 c 0,26,27
 1459 1086 1459 1086 1553 1020 c 1,28,-1
 1398 823 l 1,29,-1
 1426 546 l 1,30,-1
 1435 413 l 1,0,-1
928 1243 m 1,31,32
 928 1223 928 1223 910 1168 c 2,33,-1
 895 1126 l 1,34,-1
 870 1076 l 1,35,-1
 786 1045 l 2,36,37
 700 1014 700 1014 698 995 c 1,38,39
 710 981 710 981 736 973 c 128,-1,40
 762 965 762 965 785 967 c 0,41,42
 840 973 840 973 863.5 941.5 c 128,-1,43
 887 910 887 910 864 834 c 0,44,45
 840 754 840 754 798.5 707.5 c 128,-1,46
 757 661 757 661 677 640 c 1,47,-1
 622 634 l 1,48,49
 581 634 581 634 521 658.5 c 128,-1,50
 461 683 461 683 484 686 c 0,51,52
 590 707 590 707 633.5 732 c 128,-1,53
 677 757 677 757 689 785 c 1,54,-1
 665 782 l 2,55,56
 640 782 640 782 610.5 794 c 128,-1,57
 581 806 581 806 560 826 c 128,-1,58
 539 846 539 846 533 877 c 1,59,-1
 535 889 l 2,60,61
 550 955 550 955 638 1056 c 128,-1,62
 726 1157 726 1157 826 1220 c 1,63,-1
 869 1236 l 1,64,-1
 916 1246 l 1,65,-1
 928 1243 l 1,31,32
EndSplineSet
Substitution2: "'medi' Medial Forms in Arabic lookup 3 subtable" afii52306
Substitution2: "'fina' Terminal Forms in Arabic lookup 2 subtable" afii62816
Substitution2: "'init' Initial Forms in Arabic lookup 1 subtable" afii52305
EndChar

StartChar: afii62816
Encoding: 65242 65242 239
Width: 1463
GlyphClass: 2
Flags: W
AnchorPoint: "Anchor-3" 630 -555 basechar 0
AnchorPoint: "Anchor-2" 615 1335 basechar 0
LayerCount: 2
Fore
SplineSet
1226 0 m 2,0,1
 1205 0 1205 0 1188 68 c 2,2,-1
 1168 145 l 1,3,-1
 1148 76 l 2,4,5
 1130 0 1130 0 1085 0 c 2,6,-1
 408 0 l 2,7,8
 206 0 206 0 155 174 c 1,9,-1
 143 244 l 1,10,-1
 138 319 l 2,11,12
 126 518 126 518 215 734 c 1,13,14
 220 762 220 762 227 767 c 1,15,16
 232 781 232 781 239 791 c 2,17,-1
 264 838 l 1,18,-1
 278 846 l 1,19,-1
 288 848 l 1,20,-1
 298 840 l 1,21,-1
 302 826 l 1,22,-1
 298 764 l 2,23,24
 295 727 295 727 288 706 c 1,25,-1
 281 600 l 1,26,-1
 281 582 l 1,27,28
 288 509 288 509 344.5 459.5 c 128,-1,29
 401 410 401 410 475 410 c 2,30,-1
 1116 410 l 1,31,-1
 1121 413 l 1,32,-1
 1123 427 l 1,33,34
 1123 553 1123 553 1089 795 c 128,-1,35
 1055 1037 1055 1037 1055 1020 c 1,36,-1
 1116 1163 l 2,37,38
 1177 1302 1177 1302 1195 1315 c 1,39,40
 1212 1302 1212 1302 1226 1246 c 1,41,-1
 1308 410 l 1,42,-1
 1495 410 l 1,43,-1
 1495 0 l 1,44,-1
 1226 0 l 2,0,1
901 1243 m 1,45,46
 901 1223 901 1223 883 1168 c 2,47,-1
 869 1126 l 1,48,-1
 844 1076 l 1,49,-1
 760 1045 l 2,50,51
 673 1014 673 1014 672 995 c 1,52,53
 684 981 684 981 709.5 973 c 128,-1,54
 735 965 735 965 758 967 c 0,55,56
 814 973 814 973 837 941.5 c 128,-1,57
 860 910 860 910 838 834 c 0,58,59
 814 754 814 754 772.5 707.5 c 128,-1,60
 731 661 731 661 650 640 c 1,61,-1
 595 634 l 1,62,63
 554 634 554 634 494 658.5 c 128,-1,64
 434 683 434 683 457 686 c 0,65,66
 564 707 564 707 607 732 c 128,-1,67
 650 757 650 757 662 785 c 1,68,-1
 638 782 l 2,69,70
 613 782 613 782 583.5 794 c 128,-1,71
 554 806 554 806 533 826 c 128,-1,72
 512 846 512 846 506 877 c 1,73,-1
 509 889 l 2,74,75
 523 955 523 955 611.5 1056 c 128,-1,76
 700 1157 700 1157 799 1220 c 1,77,-1
 842 1236 l 1,78,-1
 889 1246 l 1,79,-1
 901 1243 l 1,45,46
EndSplineSet
EndChar

StartChar: afii57444
Encoding: 1604 1604 242
Width: 1061
GlyphClass: 2
Flags: W
AnchorPoint: "Anchor-3" 495 -930 basechar 0
AnchorPoint: "Anchor-2" 420 1110 basechar 0
LayerCount: 2
Fore
SplineSet
932 418 m 1,0,-1
 942 148 l 2,1,2
 942 131 942 131 940 122 c 0,3,4
 916 2 916 2 874 -115 c 128,-1,5
 832 -232 832 -232 743 -322 c 0,6,7
 637 -432 637 -432 498 -432 c 0,8,9
 433 -430 433 -430 394 -424 c 128,-1,10
 355 -418 355 -418 313 -401 c 1,11,12
 257 -371 257 -371 236 -355 c 0,13,14
 205 -334 205 -334 166.5 -269 c 128,-1,15
 128 -204 128 -204 124 -124 c 1,16,17
 124 50 124 50 172 196 c 128,-1,18
 220 342 220 342 317 455 c 0,19,20
 326 464 326 464 334 464.5 c 128,-1,21
 342 465 342 465 346.5 460 c 128,-1,22
 351 455 351 455 351.5 446 c 128,-1,23
 352 437 352 437 348 427 c 0,24,25
 265 265 265 265 267.5 179.5 c 128,-1,26
 270 94 270 94 295 55 c 128,-1,27
 320 16 320 16 348 -4 c 1,28,29
 402 -53 402 -53 522 -52 c 0,30,31
 595 -52 595 -52 679 -11 c 128,-1,32
 763 30 763 30 778 68 c 1,33,-1
 778 98 l 2,34,35
 778 143 778 143 773 211 c 0,36,37
 750 523 750 523 735.5 651 c 128,-1,38
 721 779 721 779 712 858 c 2,39,-1
 704 917 l 1,40,41
 688 997 688 997 660 1019 c 0,42,43
 652 1027 652 1027 645 1035.5 c 128,-1,44
 638 1044 638 1044 633.5 1053 c 128,-1,45
 629 1062 629 1062 628.5 1073 c 128,-1,46
 628 1084 628 1084 635 1096 c 2,47,-1
 782 1367 l 1,48,49
 792 1327 792 1327 817 1278 c 0,50,51
 911 1102 911 1102 1048 1020 c 1,52,-1
 898 811 l 1,53,-1
 932 418 l 1,0,-1
EndSplineSet
Substitution2: "'medi' Medial Forms in Arabic lookup 3 subtable" afii62818
Substitution2: "'fina' Terminal Forms in Arabic lookup 2 subtable" afii62819
Substitution2: "'init' Initial Forms in Arabic lookup 1 subtable" afii62817
EndChar

StartChar: afii62817
Encoding: 65247 65247 243
Width: 607
GlyphClass: 2
Flags: W
AnchorPoint: "Anchor-3" 240 -495 basechar 0
AnchorPoint: "Anchor-2" 285 1410 basechar 0
LayerCount: 2
Fore
SplineSet
420 823 m 1,0,1
 431 720 431 720 441.5 618 c 128,-1,2
 452 516 452 516 456 413 c 1,3,4
 437 127 437 127 397 35 c 1,5,6
 376 0 376 0 341 0 c 2,7,-1
 -23 0 l 1,8,-1
 -23 410 l 1,9,-1
 266 410 l 1,10,11
 265 582 265 582 245 802 c 0,12,13
 240 877 240 877 225.5 934.5 c 128,-1,14
 211 992 211 992 199 1006 c 2,15,-1
 148 1069 l 1,16,-1
 312 1367 l 1,17,18
 334 1278 334 1278 420 1168 c 0,19,20
 491 1076 491 1076 575 1020 c 1,21,-1
 420 823 l 1,0,1
EndSplineSet
EndChar

StartChar: afii62818
Encoding: 65248 65248 244
Width: 460
GlyphClass: 2
Flags: W
AnchorPoint: "Anchor-3" 135 -525 basechar 0
AnchorPoint: "Anchor-2" 150 1410 basechar 0
LayerCount: 2
Fore
SplineSet
239 0 m 2,0,1
 218 0 218 0 202 68 c 2,2,-1
 182 145 l 1,3,-1
 157 76 l 1,4,5
 140 0 140 0 96 0 c 2,6,-1
 -52 0 l 1,7,-1
 -52 410 l 1,8,-1
 128 410 l 1,9,-1
 136 413 l 1,10,-1
 138 427 l 1,11,12
 138 546 138 546 82 924 c 0,13,14
 68 1018 68 1018 68 1020 c 0,15,16
 187 1302 187 1302 209 1315 c 1,17,18
 227 1315 227 1315 239 1246 c 1,19,-1
 319 410 l 1,20,-1
 509 410 l 1,21,-1
 509 0 l 1,22,-1
 239 0 l 2,0,1
EndSplineSet
EndChar

StartChar: afii57445
Encoding: 1605 1605 245
Width: 1254
GlyphClass: 2
Flags: W
AnchorPoint: "Anchor-3" 570 -570 basechar 0
AnchorPoint: "Anchor-2" 600 915 basechar 0
LayerCount: 2
Fore
SplineSet
690 151 m 2,0,1
 678 86 678 86 646 -42 c 0,2,3
 626 -114 626 -114 568 -136 c 0,4,5
 488 -164 488 -164 312 -190 c 0,6,7
 307 -190 307 -190 238 -199.5 c 128,-1,8
 169 -209 169 -209 106 -214 c 0,9,10
 64 -218 64 -218 43 -211 c 128,-1,11
 22 -204 22 -204 24 -185 c 0,12,13
 29 -149 29 -149 54 -124 c 0,14,15
 145 -47 145 -47 231 13 c 128,-1,16
 317 73 317 73 406 133 c 1,17,18
 622 293 622 293 622 302 c 1,19,20
 612 310 612 310 599 319 c 1,21,-1
 635 394 l 2,22,23
 653 432 653 432 685 514 c 0,24,25
 762 706 762 706 901 809 c 0,26,27
 992 872 992 872 1064 872 c 0,28,29
 1093 872 1093 872 1105 826 c 2,30,-1
 1201 394 l 1,31,32
 1201 342 1201 342 1148.5 201.5 c 128,-1,33
 1096 61 1096 61 1058 -7 c 1,34,35
 904 76 904 76 821.5 133.5 c 128,-1,36
 739 191 739 191 702 208 c 1,37,-1
 690 151 l 2,0,1
1009 391 m 1,38,39
 1009 408 1009 408 1000 441 c 128,-1,40
 991 474 991 474 973 530.5 c 128,-1,41
 955 587 955 587 914 587 c 0,42,43
 863 587 863 587 840 541 c 1,44,-1
 914 469 l 1,45,-1
 1009 391 l 1,38,39
EndSplineSet
Substitution2: "'medi' Medial Forms in Arabic lookup 3 subtable" afii62821
Substitution2: "'fina' Terminal Forms in Arabic lookup 2 subtable" afii62822
Substitution2: "'init' Initial Forms in Arabic lookup 1 subtable" afii62820
EndChar

StartChar: afii62822
Encoding: 65250 65250 246
Width: 1424
GlyphClass: 2
Flags: W
AnchorPoint: "Anchor-3" 840 -660 basechar 0
AnchorPoint: "Anchor-2" 855 990 basechar 0
LayerCount: 2
Fore
SplineSet
738 563 m 0,0,1
 748 595 748 595 785 641.5 c 128,-1,2
 822 688 822 688 901 742 c 1,3,4
 986 806 986 806 1068 806 c 0,5,6
 1085 806 1085 806 1106 792.5 c 128,-1,7
 1127 779 1127 779 1127 762 c 2,8,-1
 1127 727 l 2,9,10
 1127 634 1127 634 1171 539 c 0,11,12
 1211 452 1211 452 1260 410 c 1,13,-1
 1446 410 l 1,14,-1
 1446 0 l 1,15,-1
 1297 0 l 2,16,17
 1272 0 1272 0 1246 20 c 128,-1,18
 1220 40 1220 40 1211 54 c 2,19,-1
 1196 76 l 1,20,21
 1188 -24 1188 -24 1112 -108 c 1,22,23
 1061 -91 1061 -91 1001 -38 c 0,24,25
 942 13 942 13 739 214 c 1,26,-1
 727 157 l 2,27,28
 715 92 715 92 683 -36 c 0,29,30
 664 -108 664 -108 605 -130 c 0,31,32
 526 -158 526 -158 349 -184 c 0,33,34
 344 -184 344 -184 275 -193.5 c 128,-1,35
 206 -203 206 -203 143 -208 c 0,36,37
 101 -212 101 -212 80 -205 c 128,-1,38
 59 -198 59 -198 61 -179 c 0,39,40
 66 -143 66 -143 91 -118 c 0,41,42
 182 -41 182 -41 268 19 c 128,-1,43
 354 79 354 79 443 139 c 1,44,45
 594 251 594 251 638 290 c 128,-1,46
 682 329 682 329 690 347 c 1,47,48
 700 406 700 406 738 563 c 0,0,1
1058 359 m 1,49,50
 1019 481 1019 481 1016 493 c 0,51,52
 994 552 994 552 960 552 c 0,53,54
 923 552 923 552 889 508 c 1,55,56
 890 498 890 498 910.5 477.5 c 128,-1,57
 931 457 931 457 958 433.5 c 128,-1,58
 985 410 985 410 1013 389.5 c 128,-1,59
 1041 369 1041 369 1058 359 c 1,49,50
EndSplineSet
EndChar

StartChar: afii62820
Encoding: 65251 65251 247
Width: 752
GlyphClass: 2
Flags: W
AnchorPoint: "Anchor-3" 240 -510 basechar 0
AnchorPoint: "Anchor-2" 375 1110 basechar 0
LayerCount: 2
Fore
SplineSet
722 422 m 2,0,1
 725 396 725 396 712 335 c 0,2,3
 690 256 690 256 658 181 c 128,-1,4
 626 106 626 106 583 30 c 1,5,6
 514 56 514 56 248 228 c 1,7,-1
 206 98 l 2,8,9
 192 52 192 52 168 14 c 1,10,11
 157 5 157 5 152 2 c 2,12,-1
 131 0 l 1,13,-1
 -34 0 l 1,14,-1
 -34 410 l 1,15,-1
 170 410 l 1,16,-1
 220 539 l 2,17,18
 246 614 246 614 281 666 c 0,19,20
 342 767 342 767 426.5 830.5 c 128,-1,21
 511 894 511 894 586 894 c 0,22,23
 613 894 613 894 630 848 c 1,24,-1
 684 629 l 1,25,-1
 715 494 l 1,26,-1
 720 455 l 1,27,-1
 722 422 l 2,0,1
532 354 m 2,28,29
 532 359 532 359 526.5 372.5 c 128,-1,30
 521 386 521 386 521 391 c 2,31,-1
 492 487 l 2,32,33
 487 506 487 506 474.5 526 c 128,-1,34
 462 546 462 546 436 546 c 0,35,36
 391 546 391 546 364 497 c 1,37,-1
 532 354 l 2,28,29
EndSplineSet
EndChar

StartChar: afii57446
Encoding: 1606 1606 248
Width: 1002
GlyphClass: 2
Flags: W
AnchorPoint: "Anchor-3" 480 -915 basechar 0
AnchorPoint: "Anchor-2" 465 975 basechar 0
LayerCount: 2
Fore
SplineSet
484 -450 m 0,0,1
 366 -452 366 -452 304 -426 c 128,-1,2
 242 -400 242 -400 191 -353 c 1,3,4
 139 -292 139 -292 127 -245.5 c 128,-1,5
 115 -199 115 -199 113 -150 c 0,6,7
 110 -56 110 -56 120 22 c 0,8,9
 136 143 136 143 192 268 c 1,10,11
 250 383 250 383 296 430 c 0,12,13
 314 444 314 444 324.5 446 c 128,-1,14
 335 448 335 448 339 442.5 c 128,-1,15
 343 437 343 437 341 426.5 c 128,-1,16
 339 416 339 416 332 406 c 0,17,18
 258 241 258 241 254 167 c 1,19,20
 254 76 254 76 277.5 31 c 128,-1,21
 301 -14 301 -14 378 -48 c 0,22,23
 442 -73 442 -73 510 -77 c 1,24,25
 684 -62 684 -62 750 -39 c 128,-1,26
 816 -16 816 -16 828 14 c 1,27,28
 835 47 835 47 784 180 c 0,29,30
 714 349 714 349 680 434 c 1,31,-1
 739 553 l 2,32,33
 803 678 803 678 835 698 c 1,34,35
 852 683 852 683 884 605 c 0,36,37
 970 389 970 389 970 155 c 0,38,39
 970 71 970 71 953 0 c 0,40,41
 920 -120 920 -120 892 -192.5 c 128,-1,42
 864 -265 864 -265 852 -283 c 1,43,44
 786 -344 786 -344 687.5 -397 c 128,-1,45
 589 -450 589 -450 484 -450 c 0,0,1
612 583 m 1,46,47
 569 522 569 522 526 479 c 1,48,-1
 445 531 l 2,49,50
 391 565 391 565 324 624 c 1,51,52
 375 703 375 703 406 739 c 2,53,-1
 483 833 l 1,54,55
 520 776 520 776 599 723 c 2,56,-1
 685 667 l 1,57,-1
 612 583 l 1,46,47
EndSplineSet
Substitution2: "'medi' Medial Forms in Arabic lookup 3 subtable" afii62824
Substitution2: "'fina' Terminal Forms in Arabic lookup 2 subtable" afii62825
Substitution2: "'init' Initial Forms in Arabic lookup 1 subtable" afii62823
EndChar

StartChar: afii62825
Encoding: 65254 65254 249
Width: 1106
GlyphClass: 2
Flags: W
AnchorPoint: "Anchor-3" 555 -915 basechar 0
AnchorPoint: "Anchor-2" 525 1035 basechar 0
LayerCount: 2
Fore
SplineSet
992 0 m 1,0,1
 988 -52 988 -52 974 -96 c 0,2,3
 931 -256 931 -256 875 -312 c 2,4,-1
 840 -347 l 2,5,6
 803 -383 803 -383 756 -408 c 2,7,-1
 704 -432 l 1,8,9
 611 -462 611 -462 505 -462 c 0,10,11
 409 -462 409 -462 334 -432 c 1,12,13
 292 -410 292 -410 271 -393 c 128,-1,14
 250 -376 250 -376 215.5 -317.5 c 128,-1,15
 181 -259 181 -259 172 -169 c 1,16,17
 170 -79 170 -79 180 -2 c 0,18,19
 211 236 211 236 358 408 c 0,20,21
 374 423 374 423 383 425 c 128,-1,22
 392 427 392 427 395 421 c 128,-1,23
 398 415 398 415 397 404 c 128,-1,24
 396 393 396 393 392 383 c 2,25,-1
 342 265 l 2,26,27
 317 204 317 204 316 143 c 1,28,29
 322 64 322 64 341 23.5 c 128,-1,30
 360 -17 360 -17 392 -44 c 0,31,32
 449 -96 449 -96 575 -96 c 0,33,34
 598 -97 598 -97 649 -90.5 c 128,-1,35
 700 -84 700 -84 725 -76 c 0,36,37
 846 -47 846 -47 875 30 c 1,38,39
 875 59 875 59 850.5 156 c 128,-1,40
 826 253 826 253 737 413 c 1,41,-1
 793 539 l 2,42,43
 854 676 854 676 864 680 c 1,44,45
 882 673 882 673 939.5 565 c 128,-1,46
 997 457 997 457 1014 410 c 1,47,-1
 1124 410 l 1,48,-1
 1124 0 l 1,49,-1
 992 0 l 1,0,1
672 620 m 1,50,51
 629 559 629 559 586 516 c 1,52,-1
 505 568 l 2,53,54
 451 602 451 602 384 661 c 1,55,56
 435 740 435 740 466 776 c 2,57,-1
 543 870 l 1,58,59
 580 813 580 813 659 760 c 2,60,-1
 745 704 l 1,61,-1
 672 620 l 1,50,51
EndSplineSet
EndChar

StartChar: afii62828
Encoding: 65258 65258 253
Width: 983
GlyphClass: 2
Flags: W
AnchorPoint: "Anchor-3" 420 -465 basechar 0
AnchorPoint: "Anchor-2" 495 1305 basechar 0
LayerCount: 2
Fore
SplineSet
791 0 m 2,0,1
 764 0 764 0 750 22 c 128,-1,2
 736 44 736 44 730 71 c 0,3,4
 685 214 685 214 666 288 c 1,5,-1
 626 172 l 1,6,-1
 594 91 l 1,7,8
 581 72 581 72 563.5 61 c 128,-1,9
 546 50 546 50 516 54 c 1,10,11
 356 101 356 101 251 115 c 2,12,-1
 184 125 l 1,13,-1
 137 131 l 1,14,15
 155 272 155 272 181 389 c 0,16,17
 211 516 211 516 258 584 c 0,18,19
 282 622 282 622 326 656 c 2,20,-1
 434 742 l 1,21,-1
 570 846 l 1,22,-1
 548 917 l 1,23,24
 558 938 558 938 602 1023.5 c 128,-1,25
 646 1109 646 1109 680 1175 c 1,26,27
 732 1108 732 1108 814 494 c 0,28,29
 818 460 818 460 825.5 436.5 c 128,-1,30
 833 413 833 413 856 410 c 2,31,-1
 1015 410 l 1,32,-1
 1015 0 l 1,33,-1
 791 0 l 2,0,1
600 664 m 1,34,35
 586 637 586 637 565.5 612 c 128,-1,36
 545 587 545 587 523 563 c 0,37,38
 501 540 501 540 475 522 c 128,-1,39
 449 504 449 504 422 487 c 1,40,41
 402 464 402 464 641 448 c 1,42,-1
 600 664 l 1,34,35
EndSplineSet
EndChar

StartChar: afii57448
Encoding: 1608 1608 254
Width: 898
GlyphClass: 2
Flags: W
AnchorPoint: "Anchor-3" 420 -915 basechar 0
AnchorPoint: "Anchor-2" 600 1080 basechar 0
LayerCount: 2
Fore
SplineSet
658 469 m 1,0,1
 658 506 658 506 642 546.5 c 128,-1,2
 626 587 626 587 594 587 c 0,3,4
 558 587 558 587 533 563 c 0,5,6
 500 528 500 528 491 506 c 1,7,8
 530 443 530 443 596 443 c 0,9,10
 636 443 636 443 658 469 c 1,0,1
24 -182 m 0,11,12
 19 -175 19 -175 16.5 -168.5 c 128,-1,13
 14 -162 14 -162 15 -158.5 c 128,-1,14
 16 -155 16 -155 21.5 -154.5 c 128,-1,15
 27 -154 27 -154 38 -160 c 0,16,17
 93 -193 93 -193 150 -204 c 0,18,19
 191 -211 191 -211 270 -211 c 0,20,21
 368 -211 368 -211 442.5 -162 c 128,-1,22
 517 -113 517 -113 538 -89 c 2,23,-1
 580 -42 l 2,24,25
 732 127 732 127 732 258 c 1,26,-1
 722 232 l 1,27,-1
 709 204 l 2,28,29
 680 138 680 138 655 115 c 0,30,31
 624 86 624 86 560 79 c 1,32,-1
 533 79 l 2,33,34
 413 79 413 79 359 182 c 0,35,36
 338 224 338 224 335 271 c 128,-1,37
 332 318 332 318 341 378 c 0,38,39
 356 452 356 452 366 487 c 0,40,41
 395 598 395 598 441.5 683.5 c 128,-1,42
 488 769 488 769 575 860 c 1,43,44
 624 905 624 905 653 905 c 0,45,46
 688 905 688 905 734 848 c 128,-1,47
 780 791 780 791 816 680 c 1,48,49
 856 518 856 518 852 403 c 1,50,51
 852 209 852 209 805 22 c 0,52,53
 764 -140 764 -140 706.5 -243.5 c 128,-1,54
 649 -347 649 -347 629 -366 c 0,55,56
 553 -455 553 -455 469 -452 c 0,57,58
 395 -451 395 -451 251.5 -365.5 c 128,-1,59
 108 -280 108 -280 24 -182 c 0,11,12
EndSplineSet
Substitution2: "'fina' Terminal Forms in Arabic lookup 2 subtable" afii62829
EndChar

StartChar: afii62829
Encoding: 65262 65262 255
Width: 866
GlyphClass: 2
Flags: W
AnchorPoint: "Anchor-3" 345 -900 basechar 0
AnchorPoint: "Anchor-2" 525 1050 basechar 0
LayerCount: 2
Fore
SplineSet
599 410 m 1,0,1
 599 448 599 448 567 493.5 c 128,-1,2
 535 539 535 539 503 546 c 0,3,4
 493 546 493 546 468.5 525 c 128,-1,5
 444 504 444 504 439 490 c 1,6,7
 439 474 439 474 477 442 c 128,-1,8
 515 410 515 410 599 410 c 1,0,1
446 -450 m 0,9,10
 350 -450 350 -450 205 -354 c 1,11,12
 44 -241 44 -241 4 -182 c 1,13,14
 -10 -152 -10 -152 18 -160 c 1,15,16
 37 -171 37 -171 63.5 -182.5 c 128,-1,17
 90 -194 90 -194 125 -203 c 0,18,19
 168 -211 168 -211 247 -211 c 0,20,21
 364 -211 364 -211 443 -150 c 128,-1,22
 522 -89 522 -89 592 32 c 1,23,24
 572 23 572 23 545 16.5 c 128,-1,25
 518 10 518 10 486 10 c 0,26,27
 419 12 419 12 360.5 49 c 128,-1,28
 302 86 302 86 286 148 c 1,29,-1
 280 187 l 1,30,-1
 276 239 l 1,31,32
 280 329 280 329 293.5 397.5 c 128,-1,33
 307 466 307 466 328 536.5 c 128,-1,34
 349 607 349 607 367 647 c 0,35,36
 406 745 406 745 460.5 810 c 128,-1,37
 515 875 515 875 571 875 c 0,38,39
 618 875 618 875 652 832 c 0,40,41
 661 820 661 820 695.5 746.5 c 128,-1,42
 730 673 730 673 754 577 c 1,43,44
 778 457 778 457 778 410 c 1,45,-1
 913 410 l 1,46,-1
 913 0 l 1,47,-1
 739 0 l 1,48,49
 695 -162 695 -162 633.5 -267.5 c 128,-1,50
 572 -373 572 -373 515 -425 c 1,51,52
 480 -450 480 -450 446 -450 c 0,9,10
EndSplineSet
PairPos2: "'kern' Horizontal Kerning in Arabic lookup 0 subtable" afii57422 dx=0 dy=0 dh=0 dv=0 dx=0 dy=0 dh=60 dv=0
PairPos2: "'kern' Horizontal Kerning in Arabic lookup 0 subtable" afii57421 dx=0 dy=0 dh=0 dv=0 dx=0 dy=0 dh=60 dv=0
PairPos2: "'kern' Horizontal Kerning in Arabic lookup 0 subtable" afii57420 dx=0 dy=0 dh=0 dv=0 dx=0 dy=0 dh=60 dv=0
PairPos2: "'kern' Horizontal Kerning in Arabic lookup 0 subtable" afii57507 dx=0 dy=0 dh=0 dv=0 dx=0 dy=0 dh=60 dv=0
EndChar

StartChar: afii62840
Encoding: 65275 65275 268
Width: 1141
GlyphClass: 3
Flags: W
AnchorPoint: "Anchor-1" 825 -435 baselig 0
AnchorPoint: "Anchor-0" 810 1470 baselig 0
AnchorPoint: "Anchor-1" 300 -480 baselig 1
AnchorPoint: "Anchor-0" 285 1500 baselig 1
LayerCount: 2
Fore
SplineSet
750 347 m 1,0,1
 752 366 752 366 740 406 c 1,2,-1
 722 430 l 1,3,-1
 676 389 l 1,4,-1
 619 347 l 1,5,-1
 642 344 l 1,6,-1
 673 344 l 1,7,-1
 750 347 l 1,0,1
947 818 m 0,8,9
 919 696 919 696 844 572 c 1,10,11
 900 406 900 406 919 319 c 1,12,-1
 922 265 l 1,13,-1
 922 28 l 2,14,15
 922 5 922 5 895 0 c 1,16,-1
 332 0 l 1,17,-1
 302 2 l 2,18,19
 300 5 300 5 295 19 c 1,20,21
 298 56 298 56 307 89 c 0,22,23
 359 283 359 283 379 380 c 1,24,25
 410 380 410 380 428 389 c 0,26,27
 502 432 502 432 546 465.5 c 128,-1,28
 590 499 590 499 644 558 c 1,29,30
 560 666 560 666 506 715 c 1,31,-1
 497 694 l 1,32,-1
 485 673 l 2,33,34
 467 647 467 647 445 647 c 1,35,-1
 241 784 l 2,36,37
 175 828 175 828 152 858 c 0,38,39
 118 902 118 902 118 968 c 0,40,41
 118 1049 118 1049 148 1130 c 1,42,43
 187 1217 187 1217 227 1280 c 1,44,45
 371 1241 371 1241 536 1057 c 0,46,47
 661 917 661 917 762 739 c 1,48,49
 797 794 797 794 797 868 c 0,50,51
 797 898 797 898 792 934 c 1,52,53
 757 1062 757 1062 732 1118 c 1,54,-1
 863 1339 l 1,55,56
 882 1264 882 1264 953.5 1177.5 c 128,-1,57
 1025 1091 1025 1091 1097 1049 c 1,58,59
 961 877 961 877 947 818 c 0,8,9
EndSplineSet
Ligature2: "'rlig' Required Ligatures in Arabic lookup 6 subtable" afii62817 afii62760
Substitution2: "'fina' Terminal Forms in Arabic lookup 2 subtable" afii62841
EndChar

StartChar: afii62841
Encoding: 65276 65276 269
Width: 1292
GlyphClass: 3
Flags: W
AnchorPoint: "Anchor-1" 990 -465 baselig 0
AnchorPoint: "Anchor-0" 990 1470 baselig 0
AnchorPoint: "Anchor-1" 420 -600 baselig 1
AnchorPoint: "Anchor-0" 345 1470 baselig 1
LayerCount: 2
Fore
SplineSet
1128 0 m 1,0,-1
 1105 5 l 2,1,2
 1084 10 1084 10 1066.5 33 c 128,-1,3
 1049 56 1049 56 1034 150 c 0,4,5
 1007 337 1007 337 995 373 c 1,6,7
 984 329 984 329 972.5 288.5 c 128,-1,8
 961 248 961 248 918 165.5 c 128,-1,9
 875 83 875 83 811 30 c 0,10,11
 683 -79 683 -79 491 -122 c 0,12,13
 383 -148 383 -148 214 -148 c 2,14,-1
 167 -148 l 2,15,16
 142 -146 142 -146 135.5 -139.5 c 128,-1,17
 129 -133 129 -133 143 -122 c 2,18,-1
 326 5 l 1,19,-1
 488 122 l 2,20,21
 518 145 518 145 533 155 c 0,22,23
 610 211 610 211 660 267.5 c 128,-1,24
 710 324 710 324 710 368 c 0,25,26
 710 386 710 386 682 465 c 128,-1,27
 654 544 654 544 614.5 612 c 128,-1,28
 575 680 575 680 502 752 c 1,29,30
 486 678 486 678 474 673 c 1,31,-1
 376 752 l 2,32,33
 317 802 317 802 287 828 c 1,34,35
 233 889 233 889 233 961 c 0,36,37
 233 1044 233 1044 258 1135 c 2,38,-1
 319 1337 l 1,39,40
 408 1288 408 1288 535 1158 c 0,41,42
 776 910 776 910 805 607 c 1,43,-1
 818 373 l 1,44,45
 892 436 892 436 923 532.5 c 128,-1,46
 954 629 954 629 960 776 c 1,47,48
 950 1086 950 1086 946 1142 c 1,49,50
 1075 1368 1075 1368 1093 1342 c 1,51,-1
 1187 410 l 1,52,-1
 1312 410 l 1,53,-1
 1312 0 l 1,54,-1
 1128 0 l 1,0,-1
EndSplineSet
Ligature2: "'rlig' Required Ligatures in Arabic lookup 6 subtable" afii62818 afii62760
PairPos2: "'kern' Horizontal Kerning in Arabic lookup 0 subtable" afii57422 dx=0 dy=0 dh=0 dv=0 dx=0 dy=0 dh=-100 dv=0
PairPos2: "'kern' Horizontal Kerning in Arabic lookup 0 subtable" afii57421 dx=0 dy=0 dh=0 dv=0 dx=0 dy=0 dh=-100 dv=0
PairPos2: "'kern' Horizontal Kerning in Arabic lookup 0 subtable" afii57420 dx=0 dy=0 dh=0 dv=0 dx=0 dy=0 dh=-100 dv=0
PairPos2: "'kern' Horizontal Kerning in Arabic lookup 0 subtable" afii57507 dx=0 dy=0 dh=0 dv=0 dx=0 dy=0 dh=-100 dv=0
EndChar

StartChar: afii59759
Encoding: 3663 3663 276
Width: 1233
GlyphClass: 2
Flags: W
LayerCount: 2
Fore
SplineSet
616 983 m 0,0,1
 823 983 823 983 969.5 836.5 c 128,-1,2
 1116 690 1116 690 1116 483 c 0,3,4
 1116 277 1116 277 969.5 130.5 c 128,-1,5
 823 -16 823 -16 616 -16 c 0,6,7
 410 -16 410 -16 263.5 130.5 c 128,-1,8
 117 277 117 277 117 483 c 0,9,10
 117 690 117 690 263.5 836.5 c 128,-1,11
 410 983 410 983 616 983 c 0,0,1
616 147 m 0,12,13
 758 147 758 147 849 242 c 128,-1,14
 940 337 940 337 940 483 c 256,15,16
 940 629 940 629 849 724 c 128,-1,17
 758 819 758 819 616 819 c 0,18,19
 475 819 475 819 384 724 c 128,-1,20
 293 629 293 629 293 483 c 256,21,22
 293 337 293 337 384 242 c 128,-1,23
 475 147 475 147 616 147 c 0,12,13
616 598 m 0,24,25
 664 598 664 598 697.5 565 c 128,-1,26
 731 532 731 532 731 485 c 256,27,28
 731 438 731 438 697.5 404.5 c 128,-1,29
 664 371 664 371 616 371 c 0,30,31
 569 371 569 371 535.5 404.5 c 128,-1,32
 502 438 502 438 502 485 c 256,33,34
 502 532 502 532 535.5 565 c 128,-1,35
 569 598 569 598 616 598 c 0,24,25
EndSplineSet
EndChar

StartChar: afii59760
Encoding: 3664 3664 277
Width: 1233
GlyphClass: 2
Flags: W
LayerCount: 2
Fore
SplineSet
616 924 m 0,0,1
 834 924 834 924 975 794.5 c 128,-1,2
 1116 665 1116 665 1116 453 c 0,3,4
 1116 242 1116 242 975 113 c 128,-1,5
 834 -16 834 -16 616 -16 c 0,6,7
 399 -16 399 -16 258 113 c 128,-1,8
 117 242 117 242 117 453 c 0,9,10
 117 665 117 665 258 794.5 c 128,-1,11
 399 924 399 924 616 924 c 0,0,1
616 150 m 0,12,13
 765 150 765 150 852.5 231 c 128,-1,14
 940 312 940 312 940 453 c 256,15,16
 940 594 940 594 852 677 c 128,-1,17
 764 760 764 760 616 760 c 0,18,19
 469 760 469 760 381 677 c 128,-1,20
 293 594 293 594 293 453 c 0,21,22
 293 310 293 310 381.5 230 c 128,-1,23
 470 150 470 150 616 150 c 0,12,13
EndSplineSet
EndChar

StartChar: glyph279
Encoding: 65559 -1 279
Width: 0
GlyphClass: 2
Flags: W
LayerCount: 2
Fore
SplineSet
36 1831 m 1,0,-1
 36 863 l 1,1,-1
 -36 863 l 1,2,-1
 -36 1831 l 1,3,-1
 36 1831 l 1,0,-1
36 543 m 1,4,-1
 36 -423 l 1,5,-1
 -36 -423 l 1,6,-1
 -36 543 l 1,7,-1
 36 543 l 1,4,-1
EndSplineSet
EndChar

StartChar: glyph280
Encoding: 65560 -1 280
Width: 0
GlyphClass: 2
Flags: W
LayerCount: 2
Fore
SplineSet
-234 -423 m 1,0,-1
 -234 -352 l 1,1,-1
 -36 -352 l 1,2,-1
 -36 1760 l 1,3,-1
 -234 1760 l 1,4,-1
 -234 1831 l 1,5,-1
 234 1831 l 1,6,-1
 234 1760 l 1,7,-1
 36 1760 l 1,8,-1
 36 -352 l 1,9,-1
 234 -352 l 1,10,-1
 234 -423 l 1,11,-1
 -234 -423 l 1,0,-1
EndSplineSet
EndChar

StartChar: glyph281
Encoding: 65561 -1 281
Width: 0
GlyphClass: 2
Flags: W
LayerCount: 2
Fore
SplineSet
224 1646 m 1,0,-1
 36 1504 l 1,1,-1
 36 -423 l 1,2,-1
 -36 -423 l 1,3,-1
 -36 1831 l 1,4,-1
 224 1646 l 1,0,-1
EndSplineSet
EndChar

StartChar: glyph282
Encoding: 65562 -1 282
Width: 0
GlyphClass: 2
Flags: W
LayerCount: 2
Fore
SplineSet
36 1831 m 1,0,-1
 36 -423 l 1,1,-1
 -36 -423 l 1,2,-1
 -36 1504 l 1,3,-1
 -224 1646 l 1,4,-1
 36 1831 l 1,0,-1
EndSplineSet
EndChar

StartChar: glyph283
Encoding: 65563 -1 283
Width: 0
GlyphClass: 2
Flags: W
LayerCount: 2
Fore
SplineSet
36 1831 m 1,0,-1
 36 -352 l 1,1,-1
 234 -352 l 1,2,-1
 234 -423 l 1,3,-1
 -36 -423 l 1,4,-1
 -36 1831 l 1,5,-1
 36 1831 l 1,0,-1
EndSplineSet
EndChar

StartChar: glyph284
Encoding: 65564 -1 284
Width: 0
GlyphClass: 2
Flags: W
LayerCount: 2
Fore
SplineSet
224 1646 m 1,0,-1
 36 1504 l 1,1,-1
 36 -423 l 1,2,-1
 -36 -423 l 1,3,-1
 -36 1504 l 1,4,-1
 -224 1641 l 1,5,-1
 0 1831 l 1,6,-1
 224 1646 l 1,0,-1
EndSplineSet
EndChar

StartChar: uni0670
Encoding: 1648 1648 297
Width: 0
GlyphClass: 4
Flags: W
AnchorPoint: "Anchor-2" 0 0 mark 0
AnchorPoint: "Anchor-0" 0 0 mark 0
LayerCount: 2
Fore
SplineSet
-16 6 m 1,0,1
 -25 205 -25 205 -36 285 c 1,2,-1
 20 381 l 1,3,4
 36 203 36 203 43 114 c 1,5,-1
 -16 6 l 1,0,1
EndSplineSet
EndChar

StartChar: glyph298
Encoding: 65565 -1 298
Width: 586
GlyphClass: 2
Flags: W
LayerCount: 2
Fore
SplineSet
289 1412 m 2,0,1
 330 1443 330 1443 367 1450 c 128,-1,2
 404 1457 404 1457 432.5 1442.5 c 128,-1,3
 461 1428 461 1428 478 1394.5 c 128,-1,4
 495 1361 495 1361 495 1312 c 2,5,-1
 494 1205 l 1,6,-1
 69 1205 l 1,7,-1
 69 1282 l 1,8,-1
 141 1282 l 1,9,-1
 289 1412 l 2,0,1
247 1282 m 1,10,-1
 417 1282 l 1,11,-1
 417 1322 l 2,12,13
 415 1360 415 1360 391 1371 c 128,-1,14
 367 1382 367 1382 326 1353 c 1,15,-1
 247 1282 l 1,10,-1
EndSplineSet
EndChar

StartChar: glyph299
Encoding: 65566 -1 299
Width: 1093
GlyphClass: 2
Flags: W
LayerCount: 2
Fore
SplineSet
1032 145 m 0,0,1
 1020 54 1020 54 971 -62.5 c 128,-1,2
 922 -179 922 -179 911 -190 c 0,3,4
 872 -241 872 -241 840 -268 c 0,5,6
 746 -352 746 -352 568 -376 c 0,7,8
 529 -380 529 -380 450 -379 c 128,-1,9
 371 -378 371 -378 310 -352 c 0,10,11
 137 -268 137 -268 137 -14 c 0,12,13
 136 61 136 61 154 131 c 0,14,15
 156 145 156 145 190 252 c 128,-1,16
 224 359 224 359 252 416.5 c 128,-1,17
 280 474 280 474 329 558 c 1,18,19
 343 574 343 574 354.5 579 c 128,-1,20
 366 584 366 584 372.5 581 c 128,-1,21
 379 578 379 578 381 568.5 c 128,-1,22
 383 559 383 559 379 546 c 0,23,24
 295 361 295 361 282 199 c 1,25,26
 282 89 282 89 353.5 27 c 128,-1,27
 425 -35 425 -35 535 -35 c 0,28,29
 680 -35 680 -35 754 -6.5 c 128,-1,30
 828 22 828 22 926 122 c 1,31,32
 924 178 924 178 915 224 c 128,-1,33
 906 270 906 270 896 290 c 1,34,-1
 833 209 l 2,35,36
 788 152 788 152 730 152 c 0,37,38
 655 152 655 152 597.5 210 c 128,-1,39
 540 268 540 268 540 337 c 0,40,41
 540 432 540 432 577 546 c 0,42,43
 631 710 631 710 732 846 c 0,44,45
 769 894 769 894 818 894 c 0,46,47
 847 894 847 894 880 868 c 0,48,49
 962 799 962 799 1020 572 c 0,50,51
 1049 450 1049 450 1046 329 c 0,52,53
 1045 283 1045 283 1042.5 237 c 128,-1,54
 1040 191 1040 191 1032 145 c 0,0,1
833 455 m 1,55,56
 821 556 821 556 751 568 c 0,57,58
 713 575 713 575 692 518 c 1,59,60
 688 487 688 487 739 467 c 0,61,62
 779 455 779 455 818 455 c 2,63,-1
 833 455 l 1,55,56
EndSplineSet
EndChar

StartChar: uni06DD
Encoding: 1757 1757 388
Width: 2300
GlyphClass: 2
Flags: W
LayerCount: 2
Fore
SplineSet
2250 715 m 256,0,1
 2250 469 2250 469 2146 249 c 0,2,3
 2046 35 2046 35 1867 -119 c 1,4,5
 1870 -133 1870 -133 1870 -148 c 0,6,7
 1870 -203 1870 -203 1831 -241.5 c 128,-1,8
 1792 -280 1792 -280 1737 -280 c 0,9,10
 1697 -280 1697 -280 1664 -258 c 1,11,12
 1424 -385 1424 -385 1149 -385 c 0,13,14
 876 -385 876 -385 636 -258 c 1,15,16
 603 -280 603 -280 563 -280 c 0,17,18
 508 -280 508 -280 469 -241.5 c 128,-1,19
 430 -203 430 -203 430 -148 c 0,20,21
 430 -133 430 -133 433 -119 c 1,22,23
 254 35 254 35 154 249 c 0,24,25
 50 469 50 469 50 715 c 256,26,27
 50 961 50 961 154 1181 c 0,28,29
 254 1394 254 1394 433 1548 c 1,30,31
 430 1562 430 1562 430 1577 c 0,32,33
 430 1632 430 1632 469 1670.5 c 128,-1,34
 508 1709 508 1709 563 1709 c 0,35,36
 603 1709 603 1709 636 1687 c 1,37,38
 876 1814 876 1814 1151 1814 c 0,39,40
 1424 1814 1424 1814 1664 1687 c 1,41,42
 1697 1709 1697 1709 1737 1709 c 0,43,44
 1792 1709 1792 1709 1831 1670.5 c 128,-1,45
 1870 1632 1870 1632 1870 1577 c 0,46,47
 1870 1562 1870 1562 1867 1548 c 1,48,49
 2046 1394 2046 1394 2146 1181 c 0,50,51
 2250 961 2250 961 2250 715 c 256,0,1
1816 1576 m 0,52,53
 1816 1609 1816 1609 1793 1632 c 128,-1,54
 1770 1655 1770 1655 1738 1655 c 256,55,56
 1706 1655 1706 1655 1682.5 1631.5 c 128,-1,57
 1659 1608 1659 1608 1659 1576 c 256,58,59
 1659 1544 1659 1544 1682 1521 c 128,-1,60
 1705 1498 1705 1498 1738 1498 c 0,61,62
 1770 1498 1770 1498 1793 1521 c 128,-1,63
 1816 1544 1816 1544 1816 1576 c 0,52,53
1602 1595 m 1,64,65
 1390 1704 1390 1704 1151 1704 c 0,66,67
 910 1704 910 1704 698 1595 c 1,68,-1
 1602 1595 l 1,64,65
641 1576 m 256,69,70
 641 1608 641 1608 617.5 1631.5 c 128,-1,71
 594 1655 594 1655 562 1655 c 256,72,73
 530 1655 530 1655 507 1632 c 128,-1,74
 484 1609 484 1609 484 1576 c 0,75,76
 484 1544 484 1544 507 1521 c 128,-1,77
 530 1498 530 1498 562 1498 c 0,78,79
 595 1498 595 1498 618 1521 c 128,-1,80
 641 1544 641 1544 641 1576 c 256,69,70
2140 714 m 0,81,82
 2140 933 2140 933 2048 1131 c 0,83,84
 1960 1321 1960 1321 1801 1460 c 1,85,86
 1772 1444 1772 1444 1737 1444 c 0,87,88
 1681 1444 1681 1444 1642 1485 c 1,89,-1
 658 1485 l 1,90,91
 619 1444 619 1444 563 1444 c 0,92,93
 528 1444 528 1444 499 1460 c 1,94,95
 340 1321 340 1321 252 1131 c 0,96,97
 160 933 160 933 160 714 c 0,98,99
 160 265 160 265 499 -31 c 1,100,101
 528 -15 528 -15 563 -15 c 0,102,103
 619 -15 619 -15 658 -56 c 1,104,-1
 1642 -56 l 1,105,106
 1681 -15 1681 -15 1737 -15 c 0,107,108
 1772 -15 1772 -15 1801 -31 c 1,109,110
 2140 265 2140 265 2140 714 c 0,81,82
1816 -147 m 0,111,112
 1816 -115 1816 -115 1793 -92 c 128,-1,113
 1770 -69 1770 -69 1738 -69 c 0,114,115
 1705 -69 1705 -69 1682 -92 c 128,-1,116
 1659 -115 1659 -115 1659 -147 c 256,117,118
 1659 -179 1659 -179 1682.5 -202.5 c 128,-1,119
 1706 -226 1706 -226 1738 -226 c 256,120,121
 1770 -226 1770 -226 1793 -203 c 128,-1,122
 1816 -180 1816 -180 1816 -147 c 0,111,112
1602 -166 m 1,123,-1
 698 -166 l 1,124,125
 910 -275 910 -275 1151 -275 c 0,126,127
 1390 -275 1390 -275 1602 -166 c 1,123,-1
641 -147 m 256,128,129
 641 -115 641 -115 618 -92 c 128,-1,130
 595 -69 595 -69 562 -69 c 0,131,132
 530 -69 530 -69 507 -92 c 128,-1,133
 484 -115 484 -115 484 -147 c 0,134,135
 484 -180 484 -180 507 -203 c 128,-1,136
 530 -226 530 -226 562 -226 c 256,137,138
 594 -226 594 -226 617.5 -202.5 c 128,-1,139
 641 -179 641 -179 641 -147 c 256,128,129
EndSplineSet
EndChar

StartChar: uni06DE
Encoding: 1758 1758 389
Width: 2221
GlyphClass: 2
Flags: W
LayerCount: 2
Fore
SplineSet
2171 750 m 1,0,-1
 1861 439 l 1,1,-1
 1861 0 l 1,2,-1
 1421 0 l 1,3,-1
 1111 -311 l 1,4,-1
 800 0 l 1,5,-1
 361 0 l 1,6,-1
 361 439 l 1,7,-1
 50 750 l 1,8,-1
 361 1061 l 1,9,-1
 361 1500 l 1,10,-1
 800 1500 l 1,11,-1
 1111 1811 l 1,12,-1
 1421 1500 l 1,13,-1
 1861 1500 l 1,14,-1
 1861 1061 l 1,15,-1
 2171 750 l 1,0,-1
436 364 m 1,16,-1
 436 75 l 1,17,-1
 725 75 l 1,18,-1
 436 364 l 1,16,-1
725 1425 m 1,19,-1
 436 1425 l 1,20,-1
 436 1136 l 1,21,-1
 725 1425 l 1,19,-1
1786 1136 m 1,22,-1
 1786 1425 l 1,23,-1
 1496 1425 l 1,24,-1
 1786 1136 l 1,22,-1
1786 75 m 1,25,-1
 1786 364 l 1,26,-1
 1496 75 l 1,27,-1
 1786 75 l 1,25,-1
906 0 m 1,28,-1
 1111 -205 l 1,29,-1
 1315 0 l 1,30,-1
 906 0 l 1,28,-1
361 955 m 1,31,-1
 156 750 l 1,32,-1
 361 545 l 1,33,-1
 361 955 l 1,31,-1
1315 1500 m 1,34,-1
 1111 1705 l 1,35,-1
 906 1500 l 1,36,-1
 1315 1500 l 1,34,-1
1786 1030 m 1,37,-1
 1390 1425 l 1,38,-1
 831 1425 l 1,39,-1
 436 1030 l 1,40,-1
 436 470 l 1,41,-1
 831 75 l 1,42,-1
 1390 75 l 1,43,-1
 1786 470 l 1,44,-1
 1786 1030 l 1,37,-1
2065 750 m 1,45,-1
 1861 955 l 1,46,-1
 1861 545 l 1,47,-1
 2065 750 l 1,45,-1
1328 750 m 256,48,49
 1328 660 1328 660 1264.5 596 c 128,-1,50
 1201 532 1201 532 1111 532 c 256,51,52
 1021 532 1021 532 957 596 c 128,-1,53
 893 660 893 660 893 750 c 256,54,55
 893 840 893 840 957 903.5 c 128,-1,56
 1021 967 1021 967 1111 967 c 256,57,58
 1201 967 1201 967 1264.5 903.5 c 128,-1,59
 1328 840 1328 840 1328 750 c 256,48,49
1253 750 m 256,60,61
 1253 809 1253 809 1211 850.5 c 128,-1,62
 1169 892 1169 892 1110 892 c 256,63,64
 1051 892 1051 892 1009 850.5 c 128,-1,65
 967 809 967 809 967 750 c 256,66,67
 967 691 967 691 1009 649 c 128,-1,68
 1051 607 1051 607 1110 607 c 256,69,70
 1169 607 1169 607 1211 649 c 128,-1,71
 1253 691 1253 691 1253 750 c 256,60,61
EndSplineSet
EndChar

StartChar: uni06DF
Encoding: 1759 1759 390
Width: 0
GlyphClass: 2
Flags: W
LayerCount: 2
Fore
SplineSet
75 1429 m 256,0,1
 75 1398 75 1398 53 1376 c 128,-1,2
 31 1354 31 1354 0 1354 c 256,3,4
 -31 1354 -31 1354 -53 1376 c 128,-1,5
 -75 1398 -75 1398 -75 1429 c 256,6,7
 -75 1460 -75 1460 -53 1482 c 128,-1,8
 -31 1504 -31 1504 0 1504 c 256,9,10
 31 1504 31 1504 53 1482 c 128,-1,11
 75 1460 75 1460 75 1429 c 256,0,1
EndSplineSet
EndChar

StartChar: uni06E9
Encoding: 1769 1769 391
Width: 1229
GlyphClass: 2
Flags: W
LayerCount: 2
Fore
SplineSet
1179 0 m 1,0,-1
 50 0 l 1,1,-1
 278 261 l 1,2,-1
 278 849 l 1,3,-1
 50 1108 l 1,4,-1
 614 1676 l 1,5,-1
 1179 1108 l 1,6,-1
 951 849 l 1,7,-1
 951 261 l 1,8,-1
 1179 0 l 1,0,-1
1101 1108 m 1,9,-1
 614 1598 l 1,10,-1
 128 1108 l 1,11,-1
 338 871 l 1,12,-1
 338 239 l 1,13,-1
 178 56 l 1,14,-1
 1051 56 l 1,15,-1
 891 239 l 1,16,-1
 891 871 l 1,17,-1
 1101 1108 l 1,9,-1
995 1108 m 1,18,-1
 845 937 l 1,19,-1
 845 131 l 1,20,-1
 384 131 l 1,21,-1
 384 937 l 1,22,-1
 234 1108 l 1,23,-1
 614 1489 l 1,24,-1
 995 1108 l 1,18,-1
922 1108 m 1,25,-1
 614 1416 l 1,26,-1
 307 1108 l 1,27,-1
 433 968 l 1,28,-1
 433 186 l 1,29,-1
 796 186 l 1,30,-1
 796 968 l 1,31,-1
 922 1108 l 1,25,-1
833 1108 m 1,32,-1
 745 1011 l 1,33,-1
 745 267 l 1,34,-1
 484 267 l 1,35,-1
 484 1011 l 1,36,-1
 396 1108 l 1,37,-1
 614 1331 l 1,38,-1
 833 1108 l 1,32,-1
780 1108 m 1,39,-1
 614 1278 l 1,40,-1
 449 1108 l 1,41,-1
 523 1027 l 1,42,-1
 523 309 l 1,43,-1
 705 309 l 1,44,-1
 705 1027 l 1,45,-1
 780 1108 l 1,39,-1
EndSplineSet
EndChar

StartChar: uni06EB
Encoding: 1771 1771 393
Width: 0
GlyphClass: 2
Flags: W
LayerCount: 2
Fore
SplineSet
168 1522 m 1,0,-1
 -1 1354 l 1,1,-1
 -168 1521 l 1,2,-1
 1 1689 l 1,3,-1
 168 1522 l 1,0,-1
104 1522 m 1,4,-1
 0 1626 l 1,5,-1
 -104 1521 l 1,6,-1
 0 1417 l 1,7,-1
 104 1522 l 1,4,-1
EndSplineSet
EndChar

StartChar: comma
Encoding: 44 44 402
Width: 424
Flags: W
LayerCount: 2
Fore
SplineSet
426 225 m 1,0,-1
 227 -222 l 1,1,-1
 69 -219 l 1,2,-1
 195 224 l 1,3,-1
 426 225 l 1,0,-1
EndSplineSet
EndChar

StartChar: afii57407
Encoding: 1567 1567 403
Width: 1189
GlyphClass: 2
Flags: W
LayerCount: 2
Fore
SplineSet
702 1332 m 0,0,1
 784 1332 784 1332 926 1253 c 0,2,3
 1086 1165 1086 1165 1086 1106 c 0,4,5
 1086 1001 1086 1001 1062 926 c 1,6,7
 978 1081 978 1081 702 1133 c 1,8,-1
 692 1133 l 2,9,10
 636 1133 636 1133 605 1055 c 0,11,12
 580 992 580 992 580 919 c 0,13,14
 580 851 580 851 702 811 c 0,15,16
 912 742 912 742 936 727 c 0,17,18
 1062 661 1062 661 1062 526 c 0,19,20
 1062 398 1062 398 955 246 c 1,21,-1
 1062 152 l 1,22,-1
 926 -22 l 1,23,-1
 725 122 l 1,24,-1
 858 305 l 1,25,-1
 906 277 l 1,26,27
 985 386 985 386 985 408 c 0,28,29
 985 476 985 476 850 539 c 1,30,31
 725 582 725 582 599 629 c 0,32,33
 464 676 464 676 464 718 c 0,34,35
 464 830 464 830 542 1067 c 0,36,37
 631 1332 631 1332 702 1332 c 0,0,1
EndSplineSet
EndChar

StartChar: afii57392
Encoding: 1776 1776 404
Width: 685
Flags: W
LayerCount: 2
Fore
SplineSet
530 506 m 1,0,-1
 469 389 l 2,1,2
 449 349 449 349 427 317 c 2,3,-1
 397 268 l 1,4,-1
 272 389 l 2,5,6
 211 448 211 448 101 494 c 1,7,-1
 137 568 l 2,8,9
 184 668 184 668 211 718 c 0,10,11
 253 806 253 806 277 826 c 1,12,13
 341 821 341 821 440.5 734 c 128,-1,14
 540 647 540 647 568 582 c 1,15,-1
 530 506 l 1,0,-1
EndSplineSet
EndChar

StartChar: afii57393
Encoding: 1777 1777 405
Width: 696
Flags: W
LayerCount: 2
Fore
SplineSet
578 265 m 0,0,1
 578 125 578 125 527 -71 c 1,2,3
 504 -101 504 -101 492 -101 c 0,4,5
 487 -101 487 -101 485.5 -96.5 c 128,-1,6
 484 -92 484 -92 482 -89 c 2,7,-1
 443 106 l 2,8,9
 421 206 421 206 408 253 c 0,10,11
 344 511 344 511 283 647 c 2,12,-1
 229 767 l 2,13,14
 206 818 206 818 170 880 c 1,15,-1
 194 936 l 1,16,-1
 229 1003 l 2,17,18
 298 1133 298 1133 328 1156 c 1,19,20
 382 1088 382 1088 450 892 c 0,21,22
 504 734 504 734 534 607 c 0,23,24
 578 418 578 418 578 265 c 0,0,1
EndSplineSet
EndChar

StartChar: afii57394
Encoding: 1778 1778 406
Width: 872
Flags: W
LayerCount: 2
Fore
SplineSet
767 1111 m 0,0,1
 767 1025 767 1025 760 968 c 0,2,3
 742 811 742 811 653 712 c 0,4,5
 628 686 628 686 596 672 c 128,-1,6
 564 658 564 658 498 652 c 1,7,8
 514 610 514 610 530.5 537 c 128,-1,9
 547 464 547 464 556 319 c 1,10,11
 556 89 556 89 506 -59 c 1,12,13
 484 -103 484 -103 474 -79 c 1,14,-1
 436 82 l 2,15,16
 359 394 359 394 274.5 577 c 128,-1,17
 190 760 190 760 96 870 c 1,18,19
 216 1135 216 1135 244 1150 c 1,20,-1
 354 1025 l 2,21,22
 410 962 410 962 472 956 c 1,23,24
 562 955 562 955 595 976 c 0,25,26
 666 1013 666 1013 718 1126 c 0,27,28
 725 1142 725 1142 739 1146 c 0,29,30
 755 1148 755 1148 761 1140 c 128,-1,31
 767 1132 767 1132 767 1111 c 0,0,1
EndSplineSet
EndChar

StartChar: afii57395
Encoding: 1779 1779 407
Width: 872
Flags: W
LayerCount: 2
Fore
SplineSet
761 1140 m 1,0,1
 787 1106 787 1106 791 961 c 0,2,3
 791 870 791 870 767 784 c 1,4,5
 730 694 730 694 664 694 c 0,6,7
 607 694 607 694 568 732 c 1,8,9
 551 698 551 698 515 679.5 c 128,-1,10
 479 661 479 661 452 656 c 1,11,12
 518 497 518 497 518 319 c 0,13,14
 518 86 518 86 464 -59 c 1,15,-1
 452 -79 l 2,16,17
 448 -79 448 -79 445 -82 c 0,18,19
 443 -82 443 -82 438 -79 c 1,20,21
 380 180 380 180 337.5 320 c 128,-1,22
 295 460 295 460 218.5 612 c 128,-1,23
 142 764 142 764 59 865 c 1,24,25
 184 1165 184 1165 204 1142 c 1,26,27
 253 1049 253 1049 288 1010 c 0,28,29
 340 949 340 949 398 949 c 0,30,31
 450 949 450 949 480 1006 c 1,32,-1
 509 1123 l 2,33,34
 514 1142 514 1142 530 1142 c 256,35,36
 546 1142 546 1142 553 1123 c 2,37,-1
 575 1034 l 1,38,39
 599 959 599 959 647 961 c 0,40,41
 673 962 673 962 695.5 990 c 128,-1,42
 718 1018 718 1018 725 1096 c 0,43,44
 728 1163 728 1163 761 1140 c 1,0,1
EndSplineSet
EndChar

StartChar: afii62843
Encoding: 1780 1780 408
Width: 876
Flags: W
LayerCount: 2
Fore
SplineSet
780 821 m 0,0,1
 768 773 768 773 735.5 728 c 128,-1,2
 703 683 703 683 659.5 649.5 c 128,-1,3
 616 616 616 616 563.5 595.5 c 128,-1,4
 511 575 511 575 460 571 c 1,5,6
 496 403 496 403 496 268 c 0,7,8
 496 113 496 113 437 -68 c 1,9,-1
 427 -88 l 1,10,-1
 402 -94 l 1,11,-1
 398 -88 l 1,12,13
 313 301 313 301 286 414 c 1,14,15
 208 671 208 671 84 881 c 1,16,17
 176 1106 176 1106 238 1159 c 1,18,19
 317 1064 317 1064 370 935 c 1,20,21
 398 1049 398 1049 459.5 1104 c 128,-1,22
 521 1159 521 1159 608 1159 c 0,23,24
 630 1159 630 1159 657 1146 c 128,-1,25
 684 1133 684 1133 708 1114.5 c 128,-1,26
 732 1096 732 1096 748 1072 c 128,-1,27
 764 1048 764 1048 764 1025 c 0,28,29
 764 998 764 998 727 998 c 0,30,31
 716 998 716 998 704 1000.5 c 128,-1,32
 692 1003 692 1003 678 1006 c 2,33,-1
 652 1012 l 2,34,35
 636 1016 636 1016 626 1016 c 0,36,37
 607 1016 607 1016 582.5 1008.5 c 128,-1,38
 558 1001 558 1001 534.5 987 c 128,-1,39
 511 973 511 973 496 952.5 c 128,-1,40
 481 932 481 932 481 908 c 0,41,42
 481 892 481 892 505.5 881 c 128,-1,43
 530 870 530 870 564 866 c 128,-1,44
 598 862 598 862 632 866 c 128,-1,45
 666 870 666 870 684 882 c 0,46,47
 703 895 703 895 724 899.5 c 128,-1,48
 745 904 745 904 760.5 898 c 128,-1,49
 776 892 776 892 784 874 c 128,-1,50
 792 856 792 856 780 821 c 0,0,1
EndSplineSet
EndChar

StartChar: afii62844
Encoding: 1781 1781 409
Width: 971
Flags: W
LayerCount: 2
Fore
SplineSet
875 336 m 0,0,1
 894 229 894 229 865 134.5 c 128,-1,2
 836 40 836 40 777.5 -15 c 128,-1,3
 719 -70 719 -70 637.5 -74.5 c 128,-1,4
 556 -79 556 -79 476 -4 c 1,5,6
 412 -61 412 -61 343 -76 c 128,-1,7
 274 -91 274 -91 215.5 -69.5 c 128,-1,8
 157 -48 157 -48 117.5 6 c 128,-1,9
 78 60 78 60 78 133 c 0,10,11
 78 224 78 224 104 317 c 128,-1,12
 130 410 130 410 167 498.5 c 128,-1,13
 204 587 204 587 241 663 c 128,-1,14
 278 739 278 739 299 793 c 1,15,16
 288 805 288 805 281.5 812.5 c 128,-1,17
 275 820 275 820 271 821 c 0,18,19
 250 833 250 833 248 850 c 1,20,21
 260 876 260 876 273.5 910 c 128,-1,22
 287 944 287 944 304.5 979.5 c 128,-1,23
 322 1015 322 1015 340 1047.5 c 128,-1,24
 358 1080 358 1080 378 1106 c 0,25,26
 391 1121 391 1121 401.5 1125.5 c 128,-1,27
 412 1130 412 1130 438 1100 c 0,28,29
 496 1032 496 1032 567 936.5 c 128,-1,30
 638 841 638 841 704 739 c 128,-1,31
 770 637 770 637 815 532.5 c 128,-1,32
 860 428 860 428 875 336 c 0,0,1
746 287 m 1,33,34
 743 312 743 312 723.5 352 c 128,-1,35
 704 392 704 392 675.5 436 c 128,-1,36
 647 480 647 480 611 524.5 c 128,-1,37
 575 569 575 569 540 606 c 128,-1,38
 505 643 505 643 475.5 670 c 128,-1,39
 446 697 446 697 426 703 c 1,40,41
 391 664 391 664 357 603 c 128,-1,42
 323 542 323 542 296 483 c 128,-1,43
 269 424 269 424 253.5 374 c 128,-1,44
 238 324 238 324 238 305 c 0,45,46
 238 246 238 246 269.5 226 c 128,-1,47
 301 206 301 206 343 212 c 128,-1,48
 385 218 385 218 423 245 c 128,-1,49
 461 272 461 272 476 310 c 1,50,51
 490 265 490 265 531 238 c 128,-1,52
 572 211 572 211 617 204 c 128,-1,53
 662 197 662 197 699.5 215.5 c 128,-1,54
 737 234 737 234 746 287 c 1,33,34
EndSplineSet
EndChar

StartChar: afii62845
Encoding: 1782 1782 410
Width: 871
Flags: W
LayerCount: 2
Fore
SplineSet
744 502 m 2,0,1
 742 494 742 494 738 486.5 c 128,-1,2
 734 479 734 479 719 470 c 0,3,4
 626 420 626 420 546.5 369 c 128,-1,5
 467 318 467 318 395 255.5 c 128,-1,6
 323 193 323 193 261 118 c 128,-1,7
 199 43 199 43 143 -55 c 0,8,9
 136 -74 136 -74 126 -80 c 128,-1,10
 116 -86 116 -86 102 -86 c 256,11,12
 88 -86 88 -86 81 -80 c 128,-1,13
 74 -74 74 -74 74 -55 c 0,14,15
 74 59 74 59 135.5 194 c 128,-1,16
 197 329 197 329 305 461 c 1,17,18
 287 467 287 467 248.5 482.5 c 128,-1,19
 210 498 210 498 170.5 520 c 128,-1,20
 131 542 131 542 101.5 573.5 c 128,-1,21
 72 605 72 605 72 644 c 0,22,23
 72 698 72 698 89.5 757 c 128,-1,24
 107 816 107 816 136.5 872 c 128,-1,25
 166 928 166 928 204 978 c 128,-1,26
 242 1028 242 1028 282.5 1065 c 128,-1,27
 323 1102 323 1102 362.5 1124.5 c 128,-1,28
 402 1147 402 1147 431 1147 c 0,29,30
 515 1147 515 1147 581.5 1102.5 c 128,-1,31
 648 1058 648 1058 676 982 c 1,32,33
 682 943 682 943 663 939 c 128,-1,34
 644 935 644 935 622 943 c 0,35,36
 607 947 607 947 552.5 947 c 128,-1,37
 498 947 498 947 438.5 933 c 128,-1,38
 379 919 379 919 332.5 894 c 128,-1,39
 286 869 286 869 286 826 c 0,40,41
 286 811 286 811 299 801 c 128,-1,42
 312 791 312 791 333.5 780 c 128,-1,43
 355 769 355 769 380.5 760.5 c 128,-1,44
 406 752 406 752 431 745 c 0,45,46
 496 731 496 731 543 734.5 c 128,-1,47
 590 738 590 738 630 750 c 128,-1,48
 670 762 670 762 704 775 c 128,-1,49
 738 788 738 788 775 798 c 1,50,51
 817 803 817 803 817 768 c 1,52,-1
 744 502 l 2,0,1
EndSplineSet
EndChar

StartChar: afii57399
Encoding: 1783 1783 411
Width: 983
Flags: W
LayerCount: 2
Fore
SplineSet
889 797 m 1,0,1
 860 784 860 784 820.5 734.5 c 128,-1,2
 781 685 781 685 732 568 c 0,3,4
 666 415 666 415 636.5 302.5 c 128,-1,5
 607 190 607 190 546 -56 c 0,6,7
 539 -91 539 -91 520 -91 c 0,8,9
 505 -91 505 -91 496 -59 c 0,10,11
 448 180 448 180 334.5 426.5 c 128,-1,12
 221 673 221 673 174 728.5 c 128,-1,13
 127 784 127 784 110 786 c 1,14,15
 110 846 110 846 132 973 c 0,16,17
 157 1121 157 1121 174 1140 c 1,18,19
 235 1121 235 1121 283.5 1059 c 128,-1,20
 332 997 332 997 377 898 c 0,21,22
 427 779 427 779 504 521 c 1,23,24
 524 625 524 625 559 734.5 c 128,-1,25
 594 844 594 844 634 941 c 1,26,27
 671 1020 671 1020 706 1064 c 0,28,29
 758 1124 758 1124 818 1142 c 1,30,-1
 889 797 l 1,0,1
EndSplineSet
EndChar

StartChar: afii57400
Encoding: 1784 1784 412
Width: 983
Flags: W
LayerCount: 2
Fore
SplineSet
110 254 m 1,0,1
 139 268 139 268 178.5 317 c 128,-1,2
 218 366 218 366 268 484 c 0,3,4
 334 636 334 636 363 749 c 128,-1,5
 392 862 392 862 454 1108 c 0,6,7
 461 1142 461 1142 480 1142 c 0,8,9
 494 1142 494 1142 504 1110 c 0,10,11
 552 871 552 871 665.5 624.5 c 128,-1,12
 779 378 779 378 825.5 323 c 128,-1,13
 872 268 872 268 889 265 c 1,14,15
 889 205 889 205 868 78 c 0,16,17
 842 -70 842 -70 826 -89 c 1,18,19
 764 -70 764 -70 715.5 -8 c 128,-1,20
 667 54 667 54 623 154 c 0,21,22
 572 272 572 272 496 530 c 1,23,24
 476 426 476 426 441 316.5 c 128,-1,25
 406 207 406 207 366 110 c 1,26,27
 329 31 329 31 294 -13 c 0,28,29
 241 -73 241 -73 181 -91 c 1,30,-1
 110 254 l 1,0,1
EndSplineSet
EndChar

StartChar: afii57401
Encoding: 1785 1785 413
Width: 880
Flags: W
LayerCount: 2
Fore
SplineSet
776 157 m 1,0,1
 769 106 769 106 703 10 c 0,2,3
 643 -76 643 -76 619 -91 c 1,4,5
 592 -71 592 -71 575 -52 c 0,6,7
 497 44 497 44 474 244 c 0,8,9
 467 307 467 307 467 481 c 2,10,-1
 467 541 l 1,11,-1
 422 474 l 1,12,-1
 392 427 l 1,13,14
 344 365 344 365 272 368 c 0,15,16
 192 368 192 368 118 432 c 0,17,18
 52 490 52 490 52 563 c 0,19,20
 52 875 52 875 256 1093 c 0,21,22
 300 1140 300 1140 361 1140 c 0,23,24
 488 1140 488 1140 540 983 c 0,25,26
 560 924 560 924 580 806 c 2,27,-1
 614 600 l 2,28,29
 634 479 634 479 663 394.5 c 128,-1,30
 692 310 692 310 714.5 271 c 128,-1,31
 737 232 737 232 776 157 c 1,0,1
427 694 m 1,32,33
 427 713 427 713 401.5 789 c 128,-1,34
 376 865 376 865 312 870 c 0,35,36
 272 870 272 870 229 829 c 128,-1,37
 186 788 186 788 179 772 c 0,38,39
 174 748 174 748 258 708 c 0,40,41
 326 673 326 673 376 666 c 1,42,43
 415 670 415 670 427 694 c 1,32,33
EndSplineSet
EndChar

StartChar: afii57392.001
Encoding: 1632 1632 414
Width: 685
Flags: W
LayerCount: 2
Fore
SplineSet
530 506 m 1,0,-1
 469 389 l 2,1,2
 449 349 449 349 427 317 c 2,3,-1
 397 268 l 1,4,-1
 272 389 l 2,5,6
 211 448 211 448 101 494 c 1,7,-1
 137 568 l 2,8,9
 184 668 184 668 211 718 c 0,10,11
 253 806 253 806 277 826 c 1,12,13
 341 821 341 821 440.5 734 c 128,-1,14
 540 647 540 647 568 582 c 1,15,-1
 530 506 l 1,0,-1
EndSplineSet
EndChar

StartChar: afii57393.001
Encoding: 1633 1633 415
Width: 696
Flags: W
LayerCount: 2
Fore
SplineSet
578 265 m 0,0,1
 578 125 578 125 527 -71 c 1,2,3
 504 -101 504 -101 492 -101 c 0,4,5
 487 -101 487 -101 485.5 -96.5 c 128,-1,6
 484 -92 484 -92 482 -89 c 2,7,-1
 443 106 l 2,8,9
 421 206 421 206 408 253 c 0,10,11
 344 511 344 511 283 647 c 2,12,-1
 229 767 l 2,13,14
 206 818 206 818 170 880 c 1,15,-1
 194 936 l 1,16,-1
 229 1003 l 2,17,18
 298 1133 298 1133 328 1156 c 1,19,20
 382 1088 382 1088 450 892 c 0,21,22
 504 734 504 734 534 607 c 0,23,24
 578 418 578 418 578 265 c 0,0,1
EndSplineSet
EndChar

StartChar: afii57394.001
Encoding: 1634 1634 416
Width: 872
Flags: W
LayerCount: 2
Fore
SplineSet
767 1111 m 0,0,1
 767 1025 767 1025 760 968 c 0,2,3
 742 811 742 811 653 712 c 0,4,5
 628 686 628 686 596 672 c 128,-1,6
 564 658 564 658 498 652 c 1,7,8
 514 610 514 610 530.5 537 c 128,-1,9
 547 464 547 464 556 319 c 1,10,11
 556 89 556 89 506 -59 c 1,12,13
 484 -103 484 -103 474 -79 c 1,14,-1
 436 82 l 2,15,16
 359 394 359 394 274.5 577 c 128,-1,17
 190 760 190 760 96 870 c 1,18,19
 216 1135 216 1135 244 1150 c 1,20,-1
 354 1025 l 2,21,22
 410 962 410 962 472 956 c 1,23,24
 562 955 562 955 595 976 c 0,25,26
 666 1013 666 1013 718 1126 c 0,27,28
 725 1142 725 1142 739 1146 c 0,29,30
 755 1148 755 1148 761 1140 c 128,-1,31
 767 1132 767 1132 767 1111 c 0,0,1
EndSplineSet
EndChar

StartChar: afii57395.001
Encoding: 1635 1635 417
Width: 872
Flags: W
LayerCount: 2
Fore
SplineSet
761 1140 m 1,0,1
 787 1106 787 1106 791 961 c 0,2,3
 791 870 791 870 767 784 c 1,4,5
 730 694 730 694 664 694 c 0,6,7
 607 694 607 694 568 732 c 1,8,9
 551 698 551 698 515 679.5 c 128,-1,10
 479 661 479 661 452 656 c 1,11,12
 518 497 518 497 518 319 c 0,13,14
 518 86 518 86 464 -59 c 1,15,-1
 452 -79 l 2,16,17
 448 -79 448 -79 445 -82 c 0,18,19
 443 -82 443 -82 438 -79 c 1,20,21
 380 180 380 180 337.5 320 c 128,-1,22
 295 460 295 460 218.5 612 c 128,-1,23
 142 764 142 764 59 865 c 1,24,25
 184 1165 184 1165 204 1142 c 1,26,27
 253 1049 253 1049 288 1010 c 0,28,29
 340 949 340 949 398 949 c 0,30,31
 450 949 450 949 480 1006 c 1,32,-1
 509 1123 l 2,33,34
 514 1142 514 1142 530 1142 c 256,35,36
 546 1142 546 1142 553 1123 c 2,37,-1
 575 1034 l 1,38,39
 599 959 599 959 647 961 c 0,40,41
 673 962 673 962 695.5 990 c 128,-1,42
 718 1018 718 1018 725 1096 c 0,43,44
 728 1163 728 1163 761 1140 c 1,0,1
EndSplineSet
EndChar

StartChar: afii57396
Encoding: 1636 1636 418
Width: 748
Flags: W
LayerCount: 2
Fore
SplineSet
574 -12 m 2,0,1
 492 -89 492 -89 452 -115 c 1,2,-1
 295 -32 l 2,3,4
 202 17 202 17 142 92 c 128,-1,5
 82 167 82 167 82 234 c 2,6,-1
 82 268 l 1,7,-1
 91 283 l 2,8,9
 96 290 96 290 98 298 c 0,10,11
 124 342 124 342 217 440 c 2,12,-1
 271 497 l 1,13,-1
 318 548 l 1,14,-1
 206 626 l 2,15,16
 173 652 173 652 148 676 c 0,17,18
 96 727 96 727 96 772 c 2,19,-1
 96 791 l 1,20,-1
 103 816 l 1,21,22
 121 842 121 842 131 853 c 0,23,24
 217 952 217 952 295 1025 c 0,25,26
 382 1106 382 1106 494 1182 c 1,27,-1
 506 1182 l 1,28,-1
 509 1156 l 1,29,-1
 509 1135 l 2,30,31
 509 1121 509 1121 506 1114 c 2,32,-1
 499 1074 l 2,33,34
 490 1025 490 1025 482 1018 c 0,35,36
 464 985 464 985 401 949 c 2,37,-1
 335 912 l 1,38,39
 335 884 335 884 424 826 c 2,40,-1
 558 734 l 2,41,42
 586 718 586 718 586 680 c 0,43,44
 586 656 586 656 563 626 c 2,45,-1
 520 570 l 1,46,-1
 490 530 l 1,47,-1
 370 391 l 2,48,49
 365 386 365 386 361 364 c 0,50,51
 361 347 361 347 374 335 c 2,52,-1
 556 187 l 2,53,54
 652 110 652 110 672 82 c 1,55,-1
 574 -12 l 2,0,1
EndSplineSet
EndChar

StartChar: afii57397
Encoding: 1637 1637 419
Width: 799
Flags: W
LayerCount: 2
Fore
SplineSet
701 226 m 2,0,1
 701 199 701 199 682 136 c 0,2,3
 652 35 652 35 617 -12 c 0,4,5
 565 -82 565 -82 302 -71 c 0,6,7
 222 -66 222 -66 197 -61 c 0,8,9
 140 -47 140 -47 114 -5 c 0,10,11
 49 94 49 94 49 232 c 0,12,13
 49 539 49 539 229 905 c 0,14,15
 241 929 241 929 256 952 c 0,16,17
 320 1039 320 1039 386 1039 c 0,18,19
 445 1039 445 1039 502 959 c 0,20,21
 581 848 581 848 642 626 c 0,22,23
 701 425 701 425 701 244 c 2,24,-1
 701 226 l 2,0,1
574 305 m 1,25,26
 574 376 574 376 502.5 518.5 c 128,-1,27
 431 661 431 661 347 696 c 0,28,29
 325 706 325 706 253 587 c 0,30,31
 190 481 190 481 170 378 c 2,32,-1
 166 354 l 1,33,-1
 166 326 l 2,34,35
 166 307 166 307 175 277 c 0,36,37
 194 232 194 232 239 214 c 0,38,39
 260 206 260 206 330 202 c 0,40,41
 431 194 431 194 478 211 c 0,42,43
 551 239 551 239 574 305 c 1,25,26
EndSplineSet
EndChar

StartChar: afii57398
Encoding: 1638 1638 420
Width: 1096
Flags: W
LayerCount: 2
Fore
SplineSet
934 160 m 1,0,1
 894 68 894 68 857 12 c 0,2,3
 786 -101 786 -101 767 -108 c 1,4,5
 718 -61 718 -61 688 -12 c 1,6,-1
 643 84 l 2,7,8
 631 110 631 110 619 167 c 2,9,-1
 617 180 l 2,10,11
 604 239 604 239 599 275 c 2,12,-1
 584 391 l 2,13,14
 577 445 577 445 577 516 c 2,15,-1
 575 818 l 1,16,-1
 530 776 l 1,17,18
 462 706 462 706 371 706 c 0,19,20
 292 706 292 706 247 725 c 1,21,22
 191 757 191 757 152 833 c 1,23,-1
 146 853 l 1,24,-1
 144 884 l 1,25,-1
 142 973 l 1,26,-1
 142 1074 l 1,27,-1
 144 1140 l 1,28,-1
 155 1142 l 1,29,-1
 172 1140 l 1,30,31
 206 1106 206 1106 278 1085 c 128,-1,32
 350 1064 350 1064 439 1064 c 0,33,34
 589 1064 589 1064 671 1114 c 1,35,-1
 695 1086 l 1,36,-1
 704 894 l 2,37,38
 707 853 707 853 707 830 c 2,39,-1
 713 760 l 1,40,-1
 734 626 l 2,41,42
 761 462 761 462 798 386 c 2,43,-1
 823 335 l 1,44,-1
 857 272 l 2,45,46
 899 197 899 197 934 160 c 1,0,1
EndSplineSet
EndChar

StartChar: afii57399.001
Encoding: 1639 1639 421
Width: 983
Flags: W
LayerCount: 2
Fore
SplineSet
889 797 m 1,0,1
 860 784 860 784 820.5 734.5 c 128,-1,2
 781 685 781 685 732 568 c 0,3,4
 666 415 666 415 636.5 302.5 c 128,-1,5
 607 190 607 190 546 -56 c 0,6,7
 539 -91 539 -91 520 -91 c 0,8,9
 505 -91 505 -91 496 -59 c 0,10,11
 448 180 448 180 334.5 426.5 c 128,-1,12
 221 673 221 673 174 728.5 c 128,-1,13
 127 784 127 784 110 786 c 1,14,15
 110 846 110 846 132 973 c 0,16,17
 157 1121 157 1121 174 1140 c 1,18,19
 235 1121 235 1121 283.5 1059 c 128,-1,20
 332 997 332 997 377 898 c 0,21,22
 427 779 427 779 504 521 c 1,23,24
 524 625 524 625 559 734.5 c 128,-1,25
 594 844 594 844 634 941 c 1,26,27
 671 1020 671 1020 706 1064 c 0,28,29
 758 1124 758 1124 818 1142 c 1,30,-1
 889 797 l 1,0,1
EndSplineSet
EndChar

StartChar: afii57400.001
Encoding: 1640 1640 422
Width: 983
Flags: W
LayerCount: 2
Fore
SplineSet
110 254 m 1,0,1
 139 268 139 268 178.5 317 c 128,-1,2
 218 366 218 366 268 484 c 0,3,4
 334 636 334 636 363 749 c 128,-1,5
 392 862 392 862 454 1108 c 0,6,7
 461 1142 461 1142 480 1142 c 0,8,9
 494 1142 494 1142 504 1110 c 0,10,11
 552 871 552 871 665.5 624.5 c 128,-1,12
 779 378 779 378 825.5 323 c 128,-1,13
 872 268 872 268 889 265 c 1,14,15
 889 205 889 205 868 78 c 0,16,17
 842 -70 842 -70 826 -89 c 1,18,19
 764 -70 764 -70 715.5 -8 c 128,-1,20
 667 54 667 54 623 154 c 0,21,22
 572 272 572 272 496 530 c 1,23,24
 476 426 476 426 441 316.5 c 128,-1,25
 406 207 406 207 366 110 c 1,26,27
 329 31 329 31 294 -13 c 0,28,29
 241 -73 241 -73 181 -91 c 1,30,-1
 110 254 l 1,0,1
EndSplineSet
EndChar

StartChar: afii57401.001
Encoding: 1641 1641 423
Width: 880
Flags: W
LayerCount: 2
Fore
SplineSet
776 157 m 1,0,1
 769 106 769 106 703 10 c 0,2,3
 643 -76 643 -76 619 -91 c 1,4,5
 592 -71 592 -71 575 -52 c 0,6,7
 497 44 497 44 474 244 c 0,8,9
 467 307 467 307 467 481 c 2,10,-1
 467 541 l 1,11,-1
 422 474 l 1,12,-1
 392 427 l 1,13,14
 344 365 344 365 272 368 c 0,15,16
 192 368 192 368 118 432 c 0,17,18
 52 490 52 490 52 563 c 0,19,20
 52 875 52 875 256 1093 c 0,21,22
 300 1140 300 1140 361 1140 c 0,23,24
 488 1140 488 1140 540 983 c 0,25,26
 560 924 560 924 580 806 c 2,27,-1
 614 600 l 2,28,29
 634 479 634 479 663 394.5 c 128,-1,30
 692 310 692 310 714.5 271 c 128,-1,31
 737 232 737 232 776 157 c 1,0,1
427 694 m 1,32,33
 427 713 427 713 401.5 789 c 128,-1,34
 376 865 376 865 312 870 c 0,35,36
 272 870 272 870 229 829 c 128,-1,37
 186 788 186 788 179 772 c 0,38,39
 174 748 174 748 258 708 c 0,40,41
 326 673 326 673 376 666 c 1,42,43
 415 670 415 670 427 694 c 1,32,33
EndSplineSet
EndChar

StartChar: guillemotleft
Encoding: 171 171 424
Width: 836
Flags: W
LayerCount: 2
Fore
SplineSet
442 616 m 1,0,1
 387 507 387 507 387 393 c 0,2,3
 387 255 387 255 518 82 c 1,4,-1
 518 83 l 1,5,6
 538 60 538 60 547.5 44 c 128,-1,7
 557 28 557 28 560 20 c 0,8,9
 560 -5 560 -5 534 -5 c 0,10,11
 528 -5 528 -5 513 1 c 0,12,13
 377 71 377 71 294 168 c 1,14,-1
 294 167 l 1,15,16
 202 276 202 276 202 396 c 0,17,18
 203 448 203 448 222.5 500 c 128,-1,19
 242 552 242 552 280 603 c 0,20,21
 307 640 307 640 344.5 676.5 c 128,-1,22
 382 713 382 713 426 745 c 0,23,24
 499 799 499 799 528 799 c 0,25,26
 563 799 563 799 563 775 c 0,27,28
 563 765 563 765 555 757 c 0,29,30
 528 730 528 730 509 708 c 128,-1,31
 490 686 490 686 477 668.5 c 128,-1,32
 464 651 464 651 455.5 638 c 128,-1,33
 447 625 447 625 441 615 c 2,34,-1
 442 616 l 1,0,1
721 616 m 1,35,36
 666 507 666 507 666 393 c 0,37,38
 666 255 666 255 797 82 c 1,39,-1
 797 83 l 1,40,41
 817 60 817 60 826.5 44 c 128,-1,42
 836 28 836 28 839 20 c 0,43,44
 839 -5 839 -5 813 -5 c 0,45,46
 806 -5 806 -5 793 1 c 0,47,48
 725 36 725 36 670 77 c 128,-1,49
 615 118 615 118 573 168 c 1,50,-1
 573 167 l 1,51,52
 481 276 481 276 481 396 c 0,53,54
 482 448 482 448 501.5 500 c 128,-1,55
 521 552 521 552 559 603 c 0,56,57
 586 640 586 640 623.5 676.5 c 128,-1,58
 661 713 661 713 705 745 c 0,59,60
 778 799 778 799 807 799 c 0,61,62
 842 799 842 799 842 775 c 0,63,64
 842 765 842 765 834 757 c 0,65,66
 807 730 807 730 788 708 c 128,-1,67
 769 686 769 686 756 668.5 c 128,-1,68
 743 651 743 651 734.5 638 c 128,-1,69
 726 625 726 625 720 615 c 2,70,-1
 721 616 l 1,35,36
EndSplineSet
EndChar

StartChar: guillemotright
Encoding: 187 187 425
Width: 836
Flags: W
LayerCount: 2
Fore
SplineSet
573 622 m 1,0,1
 561 641 561 641 537.5 674.5 c 128,-1,2
 514 708 514 708 460 762 c 0,3,4
 452 770 452 770 452 780 c 0,5,6
 452 804 452 804 487 804 c 0,7,8
 514 804 514 804 588 751 c 0,9,10
 631 719 631 719 668 683 c 128,-1,11
 705 647 705 647 732 610 c 0,12,13
 769 559 769 559 788.5 508 c 128,-1,14
 808 457 808 457 809 406 c 0,15,16
 809 287 809 287 718 179 c 1,17,-1
 718 180 l 1,18,19
 636 83 636 83 501 15 c 0,20,21
 487 9 487 9 481 9 c 0,22,23
 455 9 455 9 455 34 c 0,24,25
 458 42 458 42 467.5 57.5 c 128,-1,26
 477 73 477 73 497 96 c 1,27,-1
 497 95 l 1,28,29
 626 266 626 266 626 403 c 0,30,31
 626 515 626 515 572 623 c 1,32,-1
 573 622 l 1,0,1
297 622 m 1,33,34
 285 641 285 641 261.5 674.5 c 128,-1,35
 238 708 238 708 184 762 c 0,36,37
 176 770 176 770 176 780 c 0,38,39
 176 804 176 804 211 804 c 0,40,41
 238 804 238 804 312 751 c 0,42,43
 355 719 355 719 392 683 c 128,-1,44
 429 647 429 647 456 610 c 0,45,46
 493 559 493 559 512.5 508 c 128,-1,47
 532 457 532 457 533 406 c 0,48,49
 533 287 533 287 442 179 c 1,50,-1
 442 180 l 1,51,52
 360 83 360 83 225 15 c 0,53,54
 211 9 211 9 205 9 c 0,55,56
 179 9 179 9 179 34 c 0,57,58
 182 42 182 42 191.5 57.5 c 128,-1,59
 201 73 201 73 221 96 c 1,60,-1
 221 95 l 1,61,62
 350 266 350 266 350 403 c 0,63,64
 350 515 350 515 296 623 c 1,65,-1
 297 622 l 1,33,34
EndSplineSet
EndChar

StartChar: quoteleft
Encoding: 8216 8216 426
Width: 466
Flags: W
LayerCount: 2
Fore
SplineSet
143 1071 m 0,0,1
 145 1154 145 1154 201 1235.5 c 128,-1,2
 257 1317 257 1317 326 1350 c 1,3,-1
 366 1276 l 1,4,5
 346 1264 346 1264 317.5 1233.5 c 128,-1,6
 289 1203 289 1203 276 1154 c 1,7,8
 361 1118 361 1118 357 1048 c 0,9,10
 357 1027 357 1027 349 1008.5 c 128,-1,11
 341 990 341 990 327 976 c 128,-1,12
 313 962 313 962 294.5 954 c 128,-1,13
 276 946 276 946 255 946 c 0,14,15
 228 946 228 946 207.5 956.5 c 128,-1,16
 187 967 187 967 172.5 984.5 c 128,-1,17
 158 1002 158 1002 150.5 1024.5 c 128,-1,18
 143 1047 143 1047 143 1071 c 0,0,1
EndSplineSet
EndChar

StartChar: quoteright
Encoding: 8217 8217 427
Width: 470
Flags: W
LayerCount: 2
Fore
SplineSet
349 1225 m 0,0,1
 347 1142 347 1142 291 1060.5 c 128,-1,2
 235 979 235 979 166 946 c 1,3,-1
 126 1020 l 1,4,5
 146 1032 146 1032 174.5 1062.5 c 128,-1,6
 203 1093 203 1093 216 1142 c 1,7,8
 131 1178 131 1178 135 1248 c 0,9,10
 135 1269 135 1269 143 1287.5 c 128,-1,11
 151 1306 151 1306 165 1320 c 128,-1,12
 179 1334 179 1334 197.5 1342 c 128,-1,13
 216 1350 216 1350 237 1350 c 0,14,15
 264 1350 264 1350 284.5 1339.5 c 128,-1,16
 305 1329 305 1329 319.5 1311.5 c 128,-1,17
 334 1294 334 1294 341.5 1271.5 c 128,-1,18
 349 1249 349 1249 349 1225 c 0,0,1
EndSplineSet
EndChar

StartChar: afii57451
Encoding: 1611 1611 428
Width: 0
GlyphClass: 4
Flags: W
AnchorPoint: "Anchor-2" 0 0 mark 0
AnchorPoint: "Anchor-0" 0 0 mark 0
LayerCount: 2
Fore
SplineSet
192 332 m 1,0,1
 192 234 192 234 141 204 c 2,2,-1
 -217 3 l 1,3,4
 -217 58 -217 58 -199.5 86 c 128,-1,5
 -182 114 -182 114 -120 152 c 2,6,-1
 192 332 l 1,0,1
192 528 m 1,7,8
 192 430 192 430 141 400 c 2,9,-1
 -217 199 l 1,10,11
 -217 254 -217 254 -199.5 282 c 128,-1,12
 -182 310 -182 310 -120 348 c 2,13,-1
 192 528 l 1,7,8
EndSplineSet
EndChar

StartChar: afii57454
Encoding: 1614 1614 429
Width: 0
GlyphClass: 4
Flags: W
AnchorPoint: "Anchor-2" 0 0 mark 0
AnchorPoint: "Anchor-0" 0 0 mark 0
LayerCount: 2
Fore
SplineSet
200 332 m 1,0,1
 200 234 200 234 149 204 c 2,2,-1
 -209 3 l 1,3,4
 -209 58 -209 58 -191.5 86 c 128,-1,5
 -174 114 -174 114 -112 152 c 2,6,-1
 200 332 l 1,0,1
EndSplineSet
EndChar

StartChar: afii57455
Encoding: 1615 1615 430
Width: 0
GlyphClass: 4
Flags: W
AnchorPoint: "Anchor-2" 0 0 mark 0
AnchorPoint: "Anchor-0" 0 0 mark 0
LayerCount: 2
Fore
SplineSet
180 238 m 1,0,-1
 170 116 l 1,1,-1
 123 145 l 1,2,-1
 70 181 l 1,3,4
 0 98 0 98 -51 55 c 0,5,6
 -118 1 -118 1 -176 1 c 0,7,8
 -194 1 -194 1 -219 8 c 2,9,-1
 -249 16 l 1,10,11
 -167 61 -167 61 -119 94 c 0,12,13
 -78 122 -78 122 16 209 c 1,14,15
 -27 243 -27 243 -43 267 c 128,-1,16
 -59 291 -59 291 -59 321 c 0,17,18
 -59 379 -59 379 -14 459 c 0,19,20
 8 497 8 497 33 514 c 128,-1,21
 58 531 58 531 86 531 c 0,22,23
 170 531 170 531 170 421 c 0,24,25
 170 391 170 391 161.5 358.5 c 128,-1,26
 153 326 153 326 132 275 c 1,27,-1
 180 238 l 1,0,-1
93 347 m 0,28,29
 93 376 93 376 72.5 400 c 128,-1,30
 52 424 52 424 26 424 c 0,31,32
 21 424 21 424 12 417 c 0,33,34
 7 412 7 412 4 399 c 0,35,36
 4 375 4 375 18.5 359 c 128,-1,37
 33 343 33 343 86 307 c 1,38,39
 93 331 93 331 93 347 c 0,28,29
EndSplineSet
EndChar

StartChar: afii57452
Encoding: 1612 1612 431
Width: 0
GlyphClass: 4
Flags: W
AnchorPoint: "Anchor-2" 0 0 mark 0
AnchorPoint: "Anchor-0" 0 0 mark 0
LayerCount: 2
Fore
SplineSet
170 105 m 1,0,-1
 116 133 l 1,1,-1
 58 175 l 1,2,3
 -26 87 -26 87 -87 50 c 128,-1,4
 -148 13 -148 13 -230 0 c 1,5,6
 -214 35 -214 35 -204.5 56 c 128,-1,7
 -195 77 -195 77 -187 103 c 128,-1,8
 -179 129 -179 129 -179 155 c 0,9,10
 -179 179 -179 179 -196.5 200.5 c 128,-1,11
 -214 222 -214 222 -238 222 c 0,12,13
 -255 222 -255 222 -274 195.5 c 128,-1,14
 -293 169 -293 169 -297 130 c 1,15,-1
 -306 166 l 1,16,-1
 -309 192 l 1,17,18
 -309 247 -309 247 -280 286 c 128,-1,19
 -251 325 -251 325 -207 325 c 0,20,21
 -167 325 -167 325 -146.5 294 c 128,-1,22
 -126 263 -126 263 -126 204 c 1,23,-1
 -129 172 l 1,24,-1
 -134 94 l 1,25,26
 -87 113 -87 113 -61 132 c 128,-1,27
 -35 151 -35 151 15 202 c 1,28,29
 -30 233 -30 233 -48 258 c 0,30,31
 -64 286 -64 286 -64 316 c 0,32,33
 -64 379 -64 379 -16.5 435.5 c 128,-1,34
 31 492 31 492 82 492 c 0,35,36
 110 492 110 492 137 461.5 c 128,-1,37
 164 431 164 431 164 396 c 0,38,39
 164 359 164 359 151 325 c 2,40,-1
 124 259 l 1,41,42
 153 238 153 238 162 220.5 c 128,-1,43
 171 203 171 203 171 175 c 2,44,-1
 170 105 l 1,0,-1
80 348 m 2,45,46
 80 378 80 378 67 395 c 128,-1,47
 54 412 54 412 31 412 c 0,48,49
 18 412 18 412 9.5 404.5 c 128,-1,50
 1 397 1 397 0 384 c 0,51,52
 0 359 0 359 31 333 c 2,53,-1
 75 301 l 1,54,-1
 79 324 l 1,55,-1
 80 348 l 2,45,46
EndSplineSet
EndChar

StartChar: afii57456
Encoding: 1616 1616 432
Width: 0
GlyphClass: 4
Flags: W
AnchorPoint: "Anchor-3" 0 0 mark 0
AnchorPoint: "Anchor-1" 0 0 mark 0
LayerCount: 2
Fore
SplineSet
200 332 m 1,0,1
 200 234 200 234 149 204 c 2,2,-1
 -209 3 l 1,3,4
 -209 58 -209 58 -191.5 86 c 128,-1,5
 -174 114 -174 114 -112 152 c 2,6,-1
 200 332 l 1,0,1
EndSplineSet
EndChar

StartChar: afii57457
Encoding: 1617 1617 433
Width: 0
GlyphClass: 4
Flags: W
AnchorPoint: "Anchor-2" 0 0 mark 0
AnchorPoint: "Anchor-0" 0 0 mark 0
LayerCount: 2
Fore
SplineSet
181 259 m 1,0,1
 181 175 181 175 151 126.5 c 128,-1,2
 121 78 121 78 68 78 c 0,3,4
 44 78 44 78 31.5 83 c 128,-1,5
 19 88 19 88 0 100 c 1,6,7
 -8 65 -8 65 -42 36 c 128,-1,8
 -76 7 -76 7 -113 7 c 0,9,10
 -152 7 -152 7 -177 39.5 c 128,-1,11
 -202 72 -202 72 -202 124 c 0,12,13
 -202 156 -202 156 -190 196 c 2,14,-1
 -178 233 l 1,15,-1
 -153 238 l 1,16,17
 -153 175 -153 175 -143.5 146.5 c 128,-1,18
 -134 118 -134 118 -111 118 c 0,19,20
 -76 118 -76 118 -53 158 c 128,-1,21
 -30 198 -30 198 -14 293 c 1,22,-1
 6 299 l 1,23,24
 19 240 19 240 33.5 216.5 c 128,-1,25
 48 193 48 193 68 193 c 0,26,27
 140 193 140 193 140 352 c 1,28,-1
 165 362 l 1,29,-1
 177 305 l 1,30,-1
 181 259 l 1,0,1
EndSplineSet
EndChar

StartChar: afii57458
Encoding: 1618 1618 434
Width: 0
GlyphClass: 4
Flags: W
AnchorPoint: "Anchor-2" 0 0 mark 0
AnchorPoint: "Anchor-0" 0 0 mark 0
LayerCount: 2
Fore
SplineSet
196 227 m 0,0,1
 196 141 196 141 135 73 c 128,-1,2
 74 5 74 5 -8 5 c 0,3,4
 -76 5 -76 5 -114.5 46.5 c 128,-1,5
 -153 88 -153 88 -153 169 c 0,6,7
 -153 283 -153 283 -101.5 354.5 c 128,-1,8
 -50 426 -50 426 33 426 c 0,9,10
 95 426 95 426 145.5 365.5 c 128,-1,11
 196 305 196 305 196 227 c 0,0,1
123 195 m 0,12,13
 123 227 123 227 64 268.5 c 128,-1,14
 5 310 5 310 -28 310 c 0,15,16
 -63 310 -63 310 -85.5 284 c 128,-1,17
 -108 258 -108 258 -108 219 c 0,18,19
 -108 138 -108 138 17 138 c 0,20,21
 69 138 69 138 96 153.5 c 128,-1,22
 123 169 123 169 123 195 c 0,12,13
EndSplineSet
EndChar

StartChar: exclam
Encoding: 33 33 437
Width: 955
GlyphClass: 2
Flags: W
LayerCount: 2
Fore
SplineSet
874 781 m 0,0,1
 874 671 874 671 836 568 c 0,2,3
 794 450 794 450 721 354 c 0,4,5
 719 354 719 354 701 366 c 1,6,-1
 686 386 l 1,7,8
 703 487 703 487 703 539 c 0,9,10
 706 546 706 546 701 572 c 2,11,-1
 694 617 l 2,12,13
 684 671 684 671 667 725 c 0,14,15
 625 848 625 848 475 1064 c 1,16,17
 482 1096 482 1096 538.5 1217.5 c 128,-1,18
 595 1339 595 1339 616 1364 c 1,19,20
 724 1256 724 1256 814 1030 c 0,21,22
 874 882 874 882 874 781 c 0,0,1
710 -35 m 1,23,-1
 492 148 l 1,24,-1
 637 403 l 1,25,-1
 858 209 l 1,26,-1
 710 -35 l 1,23,-1
EndSplineSet
EndChar

StartChar: afii64060
Encoding: 64830 64830 438
Width: 764
GlyphClass: 2
Flags: W
LayerCount: 2
Fore
SplineSet
65 484 m 0,0,1
 65 793 65 793 171 1008 c 0,2,3
 281 1229 281 1229 607 1423 c 1,4,5
 516 1276 516 1276 472 1201 c 0,6,7
 452 1163 452 1163 402 1036.5 c 128,-1,8
 352 910 352 910 331 750 c 0,9,10
 317 626 317 626 317 479 c 0,11,12
 317 150 317 150 383 -10 c 1,13,14
 425 -185 425 -185 619 -450 c 1,15,16
 288 -268 288 -268 178 -49 c 0,17,18
 65 176 65 176 65 484 c 0,0,1
EndSplineSet
EndChar

StartChar: afii64061
Encoding: 64831 64831 439
Width: 764
GlyphClass: 2
Flags: W
LayerCount: 2
Fore
SplineSet
619 484 m 0,0,1
 619 176 619 176 506 -49 c 0,2,3
 396 -268 396 -268 65 -450 c 1,4,5
 259 -185 259 -185 301 -10 c 1,6,7
 367 150 367 150 367 479 c 0,8,9
 367 626 367 626 353 750 c 0,10,11
 332 910 332 910 282 1036.5 c 128,-1,12
 232 1163 232 1163 212 1201 c 0,13,14
 168 1276 168 1276 77 1423 c 1,15,16
 403 1229 403 1229 513 1008 c 0,17,18
 619 793 619 793 619 484 c 0,0,1
EndSplineSet
EndChar

StartChar: afii62821
Encoding: 65252 65252 440
Width: 838
GlyphClass: 2
Flags: W
AnchorPoint: "Anchor-3" 420 -630 basechar 0
AnchorPoint: "Anchor-2" 420 990 basechar 0
LayerCount: 2
Fore
SplineSet
505 364 m 1,0,1
 505 373 505 373 463 497 c 0,2,3
 443 558 443 558 407 558 c 0,4,5
 365 558 365 558 336 506 c 1,6,-1
 505 364 l 1,0,1
751 0 m 2,7,8
 733 0 733 0 724 10 c 0,9,10
 670 54 670 54 653 79 c 1,11,12
 652 54 652 54 619.5 -17.5 c 128,-1,13
 587 -89 587 -89 566 -108 c 1,14,15
 461 -40 461 -40 414 0 c 2,16,-1
 179 190 l 1,17,18
 162 187 162 187 138.5 93.5 c 128,-1,19
 115 0 115 0 85 0 c 2,20,-1
 -23 0 l 1,21,-1
 -23 410 l 1,22,-1
 151 410 l 1,23,-1
 176 504 l 2,24,25
 210 624 210 624 292 703 c 0,26,27
 407 814 407 814 524 814 c 0,28,29
 535 814 535 814 558.5 799 c 128,-1,30
 582 784 582 784 584 769 c 2,31,-1
 582 737 l 2,32,33
 574 649 574 649 625 544 c 0,34,35
 662 464 662 464 719 410 c 1,36,-1
 859 410 l 1,37,-1
 859 0 l 1,38,-1
 751 0 l 2,7,8
EndSplineSet
EndChar

StartChar: uni25CC
Encoding: 9676 9676 441
Width: 911
Flags: W
AnchorPoint: "Anchor-3" 495 -540 basechar 0
AnchorPoint: "Anchor-2" 420 1035 basechar 0
LayerCount: 2
Fore
SplineSet
771 629 m 256,0,1
 771 592 771 592 734 592 c 0,2,3
 695 592 695 592 695 629 c 256,4,5
 695 666 695 666 734 666 c 0,6,7
 771 666 771 666 771 629 c 256,0,1
658 703 m 0,8,9
 658 666 658 666 621 666 c 0,10,11
 582 666 582 666 582 703 c 0,12,13
 582 742 582 742 621 742 c 0,14,15
 658 742 658 742 658 703 c 0,8,9
847 516 m 0,16,17
 847 477 847 477 808 477 c 0,18,19
 771 477 771 477 771 516 c 0,20,21
 771 553 771 553 810 553 c 0,22,23
 847 553 847 553 847 516 c 0,16,17
873 384 m 256,24,25
 873 347 873 347 836 347 c 0,26,27
 797 347 797 347 797 384 c 256,28,29
 797 421 797 421 836 421 c 0,30,31
 873 421 873 421 873 384 c 256,24,25
525 731 m 0,32,33
 525 692 525 692 488 692 c 256,34,35
 451 692 451 692 451 731 c 0,36,37
 451 768 451 768 488 768 c 256,38,39
 525 768 525 768 525 731 c 0,32,33
847 251 m 0,40,41
 847 214 847 214 808 214 c 0,42,43
 771 214 771 214 771 251 c 0,44,45
 771 290 771 290 808 290 c 0,46,47
 847 290 847 290 847 251 c 0,40,41
394 703 m 0,48,49
 394 666 394 666 356 666 c 0,50,51
 319 666 319 666 319 703 c 0,52,53
 319 742 319 742 356 742 c 0,54,55
 394 742 394 742 394 703 c 0,48,49
282 629 m 256,56,57
 282 592 282 592 243 592 c 0,58,59
 206 592 206 592 206 627 c 0,60,61
 206 666 206 666 243 666 c 0,62,63
 282 666 282 666 282 629 c 256,56,57
771 138 m 0,64,65
 771 101 771 101 734 101 c 256,66,67
 697 101 697 101 697 138 c 0,68,69
 697 177 697 177 734 177 c 256,70,71
 771 177 771 177 771 138 c 0,64,65
658 64 m 0,72,73
 658 27 658 27 621 27 c 256,74,75
 584 27 584 27 584 64 c 0,76,77
 584 103 584 103 621 103 c 256,78,79
 658 103 658 103 658 64 c 0,72,73
206 516 m 0,80,81
 206 477 206 477 171 477 c 0,82,83
 132 477 132 477 132 516 c 0,84,85
 132 553 132 553 169 553 c 256,86,87
 206 553 206 553 206 516 c 0,80,81
180 384 m 256,88,89
 180 347 180 347 143 347 c 0,90,91
 104 347 104 347 104 384 c 256,92,93
 104 421 104 421 143 421 c 0,94,95
 180 421 180 421 180 384 c 256,88,89
525 38 m 0,96,97
 525 -1 525 -1 488 -1 c 256,98,99
 451 -1 451 -1 451 38 c 0,100,101
 451 75 451 75 488 75 c 256,102,103
 525 75 525 75 525 38 c 0,96,97
394 66 m 0,104,105
 394 27 394 27 356 27 c 0,106,107
 319 27 319 27 319 64 c 0,108,109
 319 103 319 103 356 103 c 0,110,111
 394 103 394 103 394 66 c 0,104,105
206 251 m 0,112,113
 206 214 206 214 169 214 c 256,114,115
 132 214 132 214 132 251 c 0,116,117
 132 290 132 290 169 290 c 256,118,119
 206 290 206 290 206 251 c 0,112,113
282 138 m 0,120,121
 282 101 282 101 245 101 c 0,122,123
 206 101 206 101 206 138 c 0,124,125
 206 177 206 177 243 177 c 0,126,127
 282 177 282 177 282 138 c 0,120,121
EndSplineSet
EndChar

StartChar: afii62819
Encoding: 65246 65246 442
Width: 1142
GlyphClass: 2
Flags: W
AnchorPoint: "Anchor-3" 450 -780 basechar 0
AnchorPoint: "Anchor-2" 450 1170 basechar 0
LayerCount: 2
Fore
SplineSet
962 0 m 1,0,1
 943 -79 943 -79 885 -165 c 128,-1,2
 827 -251 827 -251 787 -290 c 1,3,4
 695 -398 695 -398 514 -398 c 0,5,6
 443 -397 443 -397 407 -390.5 c 128,-1,7
 371 -384 371 -384 329 -365 c 0,8,9
 275 -340 275 -340 242 -308 c 128,-1,10
 209 -276 209 -276 192 -251 c 0,11,12
 140 -161 140 -161 140 -89 c 0,13,14
 134 89 134 89 190 244 c 0,15,16
 223 337 223 337 253.5 384.5 c 128,-1,17
 284 432 284 432 329 487 c 0,18,19
 339 497 339 497 347 497.5 c 128,-1,20
 355 498 355 498 359.5 493 c 128,-1,21
 364 488 364 488 365 478.5 c 128,-1,22
 366 469 366 469 361 460 c 2,23,-1
 310 342 l 2,24,25
 284 280 284 280 282 218 c 0,26,27
 284 150 284 150 299 112 c 128,-1,28
 314 74 314 74 361 35 c 0,29,30
 418 -14 418 -14 538 -14 c 0,31,32
 631 -14 631 -14 723.5 15 c 128,-1,33
 816 44 816 44 854 94 c 1,34,-1
 774 1072 l 1,35,36
 868 1280 868 1280 886 1311 c 128,-1,37
 904 1342 904 1342 914 1354 c 1,38,39
 959 1280 959 1280 984 607 c 0,40,41
 990 443 990 443 1018 410 c 1,42,-1
 1166 410 l 1,43,-1
 1166 0 l 1,44,-1
 962 0 l 1,0,1
EndSplineSet
EndChar

StartChar: braceright
Encoding: 125 125 445
Width: 685
GlyphClass: 2
Flags: W
LayerCount: 2
Fore
SplineSet
77 -351 m 1,0,-1
 77 -312 l 1,1,2
 161 -296 161 -296 202 -252.5 c 128,-1,3
 243 -209 243 -209 243 -153 c 0,4,5
 243 -96 243 -96 222 -12 c 128,-1,6
 201 72 201 72 201 135 c 0,7,8
 201 193 201 193 235 253 c 128,-1,9
 269 313 269 313 335 355 c 0,10,11
 379 384 379 384 478 411 c 1,12,13
 373 444 373 444 325 477 c 0,14,15
 262 519 262 519 230.5 578 c 128,-1,16
 199 637 199 637 199 689 c 0,17,18
 199 740 199 740 220 824.5 c 128,-1,19
 241 909 241 909 241 972 c 0,20,21
 241 1032 241 1032 202.5 1075.5 c 128,-1,22
 164 1119 164 1119 77 1137 c 1,23,-1
 77 1177 l 1,24,-1
 107 1177 l 2,25,26
 193 1178 193 1178 271 1137 c 128,-1,27
 349 1096 349 1096 388 1032.5 c 128,-1,28
 427 969 427 969 427 907 c 0,29,30
 427 850 427 850 401 748 c 0,31,32
 382 672 382 672 382 613 c 0,33,34
 382 546 382 546 423.5 499 c 128,-1,35
 465 452 465 452 548 439 c 1,36,-1
 548 387 l 1,37,38
 465 373 465 373 423.5 324 c 128,-1,39
 382 275 382 275 382 205 c 0,40,41
 382 146 382 146 401 74 c 0,42,43
 426 -27 426 -27 426 -78 c 0,44,45
 426 -135 426 -135 393 -191.5 c 128,-1,46
 360 -248 360 -248 310.5 -283.5 c 128,-1,47
 261 -319 261 -319 201 -335 c 0,48,49
 155 -348 155 -348 77 -351 c 1,0,-1
EndSplineSet
EndChar

StartChar: uni0656
Encoding: 1622 1622 452
Width: 0
GlyphClass: 4
Flags: W
AnchorPoint: "Anchor-3" 0 0 mark 0
AnchorPoint: "Anchor-1" 0 0 mark 0
LayerCount: 2
Fore
SplineSet
-16 6 m 1,0,1
 -25 205 -25 205 -36 285 c 1,2,-1
 20 381 l 1,3,4
 36 203 36 203 43 114 c 1,5,-1
 -16 6 l 1,0,1
EndSplineSet
EndChar

StartChar: E005
Encoding: 65578 -1 470
Width: 476
GlyphClass: 3
Flags: W
LayerCount: 2
Fore
SplineSet
-43 0 m 1,0,-1
 -43 207 l 1,1,-1
 581 207 l 1,2,-1
 581 0 l 1,3,-1
 -43 0 l 1,0,-1
EndSplineSet
EndChar

StartChar: afii57470
Encoding: 1726 1726 480
Width: 923
Flags: W
AnchorPoint: "Anchor-3" 315 -570 basechar 0
AnchorPoint: "Anchor-2" 390 1290 basechar 0
LayerCount: 2
Fore
SplineSet
860 410 m 1,0,1
 840 157 840 157 762 35 c 1,2,3
 727 0 727 0 688 0 c 1,4,-1
 312 54 l 1,5,6
 286 31 286 31 254.5 14.5 c 128,-1,7
 223 -2 223 -2 176 0 c 2,8,-1
 -23 0 l 1,9,-1
 -23 408 l 1,10,-1
 101 408 l 1,11,12
 101 548 101 548 161 688 c 128,-1,13
 221 828 221 828 260 851 c 1,14,15
 265 941 265 941 289.5 1024.5 c 128,-1,16
 314 1108 314 1108 342 1102 c 1,17,18
 469 1039 469 1039 600 907 c 0,19,20
 860 642 860 642 860 410 c 1,0,1
720 386 m 1,21,22
 709 452 709 452 670 499 c 128,-1,23
 631 546 631 546 607 546 c 0,24,25
 582 546 582 546 555 489 c 128,-1,26
 528 432 528 432 530 425 c 0,27,28
 527 410 527 410 614 394.5 c 128,-1,29
 701 379 701 379 720 386 c 1,21,22
432 541 m 0,30,31
 432 570 432 570 406 608.5 c 128,-1,32
 380 647 380 647 338 647 c 0,33,34
 295 647 295 647 255.5 586.5 c 128,-1,35
 216 526 216 526 216 506 c 0,36,37
 216 490 216 490 266.5 458.5 c 128,-1,38
 317 427 317 427 334 427 c 0,39,40
 354 427 354 427 393 476.5 c 128,-1,41
 432 526 432 526 432 541 c 0,30,31
EndSplineSet
Substitution2: "'medi' Medial Forms in Arabic lookup 3 subtable" afii62827
Substitution2: "'fina' Terminal Forms in Arabic lookup 2 subtable" afii62827
Substitution2: "'init' Initial Forms in Arabic lookup 1 subtable" afii57470
EndChar

StartChar: at
Encoding: 64 64 489
Width: 1615
Flags: W
LayerCount: 2
Fore
SplineSet
1000 784 m 1,0,-1
 1206 793 l 1,1,-1
 1052 261 l 2,2,3
 1025 172 1025 172 1025 128 c 0,4,5
 1025 101 1025 101 1045 81 c 128,-1,6
 1065 61 1065 61 1094 61 c 0,7,8
 1152 61 1152 61 1245 128.5 c 128,-1,9
 1338 196 1338 196 1399 321 c 128,-1,10
 1460 446 1460 446 1460 587 c 0,11,12
 1460 821 1460 821 1309.5 972 c 128,-1,13
 1159 1123 1159 1123 917 1123 c 0,14,15
 708 1123 708 1123 537.5 1024.5 c 128,-1,16
 367 926 367 926 267 739.5 c 128,-1,17
 167 553 167 553 167 340 c 0,18,19
 167 47 167 47 354 -140.5 c 128,-1,20
 541 -328 541 -328 830 -328 c 0,21,22
 1068 -328 1068 -328 1257.5 -199.5 c 128,-1,23
 1447 -71 1447 -71 1525 140 c 1,24,-1
 1577 140 l 1,25,26
 1476 -109 1476 -109 1281 -242 c 128,-1,27
 1086 -375 1086 -375 829 -375 c 0,28,29
 502 -375 502 -375 290 -164 c 128,-1,30
 78 47 78 47 78 370 c 0,31,32
 78 591 78 591 183 781 c 128,-1,33
 288 971 288 971 478 1074 c 128,-1,34
 668 1177 668 1177 899 1177 c 0,35,36
 1086 1177 1086 1177 1226.5 1101.5 c 128,-1,37
 1367 1026 1367 1026 1437 890.5 c 128,-1,38
 1507 755 1507 755 1507 604 c 0,39,40
 1507 428 1507 428 1431.5 283 c 128,-1,41
 1356 138 1356 138 1243 69 c 128,-1,42
 1130 0 1130 0 999 0 c 0,43,44
 915 0 915 0 871 41.5 c 128,-1,45
 827 83 827 83 827 148 c 0,46,47
 827 194 827 194 847 268 c 1,48,49
 777 151 777 151 738 106 c 0,50,51
 685 46 685 46 632 18 c 0,52,53
 598 0 598 0 554 0 c 0,54,55
 494 0 494 0 453 47.5 c 128,-1,56
 412 95 412 95 412 189 c 256,57,58
 412 283 412 283 439.5 374 c 128,-1,59
 467 465 467 465 514.5 545 c 128,-1,60
 562 625 562 625 624.5 689 c 128,-1,61
 687 753 687 753 765 795 c 0,62,63
 805 816 805 816 850 816 c 0,64,65
 898 816 898 816 929 786.5 c 128,-1,66
 960 757 960 757 971 684 c 1,67,-1
 1000 784 l 1,0,-1
871 756 m 0,68,69
 840 756 840 756 808 720 c 0,70,71
 765 672 765 672 718 559 c 0,72,73
 631 356 631 356 631 233 c 0,74,75
 631 196 631 196 646.5 175.5 c 128,-1,76
 662 155 662 155 681 155 c 0,77,78
 697 155 697 155 727 179 c 0,79,80
 771 212 771 212 820 291 c 128,-1,81
 869 370 869 370 900.5 466 c 128,-1,82
 932 562 932 562 932 643 c 0,83,84
 932 702 932 702 909 732 c 0,85,86
 894 756 894 756 871 756 c 0,68,69
EndSplineSet
EndChar

StartChar: A
Encoding: 65 65 490
Width: 1254
Flags: W
LayerCount: 2
Fore
SplineSet
708 321 m 1,0,-1
 310 321 l 1,1,-1
 263 211 l 2,2,3
 240 156 240 156 240 121 c 0,4,5
 240 72 240 72 278 51 c 0,6,7
 300 37 300 37 389 31 c 1,8,-1
 389 0 l 1,9,-1
 14 0 l 1,10,-1
 14 31 l 1,11,12
 74 39 74 39 113.5 81 c 128,-1,13
 153 123 153 123 210 251 c 2,14,-1
 613 1150 l 1,15,-1
 629 1150 l 1,16,-1
 1035 226 l 2,17,18
 1093 94 1093 94 1131 60 c 0,19,20
 1159 35 1159 35 1211 31 c 1,21,-1
 1211 0 l 1,22,-1
 665 0 l 1,23,-1
 665 31 l 1,24,-1
 688 31 l 2,25,26
 754 31 754 31 779 49 c 0,27,28
 798 61 798 61 798 87 c 0,29,30
 798 103 798 103 793 119 c 0,31,32
 792 126 792 126 768 181 c 2,33,-1
 708 321 l 1,0,-1
679 383 m 1,34,-1
 513 771 l 1,35,-1
 339 383 l 1,36,-1
 679 383 l 1,34,-1
EndSplineSet
EndChar

StartChar: B
Encoding: 66 66 491
Width: 1159
Flags: W
LayerCount: 2
Fore
SplineSet
773 609 m 1,0,1
 936 571 936 571 1003 517 c 0,2,3
 1097 440 1097 440 1097 317 c 0,4,5
 1097 188 1097 188 993 103 c 0,6,7
 865 0 865 0 621 0 c 2,8,-1
 36 0 l 1,9,-1
 36 32 l 1,10,11
 117 32 117 32 145 46.5 c 128,-1,12
 173 61 173 61 184.5 84.5 c 128,-1,13
 196 108 196 108 196 201 c 2,14,-1
 196 948 l 2,15,16
 196 1041 196 1041 184.5 1065.5 c 128,-1,17
 173 1090 173 1090 144.5 1104 c 128,-1,18
 116 1118 116 1118 36 1118 c 1,19,-1
 36 1150 l 1,20,-1
 587 1150 l 2,21,22
 785 1150 785 1150 867.5 1114.5 c 128,-1,23
 950 1079 950 1079 997.5 1009 c 128,-1,24
 1045 939 1045 939 1045 861 c 0,25,26
 1045 778 1045 778 984.5 713 c 128,-1,27
 924 648 924 648 773 609 c 1,0,1
464 633 m 1,28,29
 584 633 584 633 641.5 660 c 128,-1,30
 699 687 699 687 729.5 736 c 128,-1,31
 760 785 760 785 760 862 c 0,32,33
 760 938 760 938 730 987 c 128,-1,34
 700 1036 700 1036 643.5 1061 c 128,-1,35
 587 1086 587 1086 464 1085 c 1,36,-1
 464 633 l 1,28,29
464 566 m 1,37,-1
 464 197 l 1,38,-1
 463 155 l 2,39,40
 463 109 463 109 486.5 86 c 128,-1,41
 510 63 510 63 555 63 c 0,42,43
 623 63 623 63 680.5 93 c 128,-1,44
 738 123 738 123 768.5 180 c 128,-1,45
 799 237 799 237 799 307 c 0,46,47
 799 388 799 388 761.5 452 c 128,-1,48
 724 516 724 516 659 541.5 c 128,-1,49
 594 567 594 567 464 566 c 1,37,-1
EndSplineSet
EndChar

StartChar: C
Encoding: 67 67 492
Width: 1254
Flags: W
LayerCount: 2
Fore
SplineSet
1160 1177 m 1,0,-1
 1160 778 l 1,1,-1
 1126 778 l 1,2,3
 1089 934 1089 934 987 1017 c 128,-1,4
 885 1100 885 1100 757 1100 c 0,5,6
 649 1100 649 1100 559 1038 c 128,-1,7
 469 976 469 976 427 876 c 0,8,9
 374 748 374 748 374 591 c 0,10,11
 374 437 374 437 413 310 c 128,-1,12
 452 183 452 183 535 118 c 128,-1,13
 618 53 618 53 750 53 c 0,14,15
 859 53 859 53 949.5 100.5 c 128,-1,16
 1040 148 1040 148 1139 265 c 1,17,-1
 1139 165 l 1,18,19
 1043 65 1043 65 938 19 c 128,-1,20
 833 -27 833 -27 693 -27 c 0,21,22
 510 -27 510 -27 367 47 c 128,-1,23
 224 121 224 121 146.5 259 c 128,-1,24
 69 397 69 397 69 553 c 0,25,26
 69 719 69 719 155 866 c 128,-1,27
 241 1013 241 1013 387 1095 c 128,-1,28
 533 1177 533 1177 697 1177 c 0,29,30
 819 1177 819 1177 954 1124 c 0,31,32
 1032 1093 1032 1093 1054 1093 c 0,33,34
 1080 1093 1080 1093 1100 1113 c 128,-1,35
 1120 1133 1120 1133 1126 1177 c 1,36,-1
 1160 1177 l 1,0,-1
EndSplineSet
EndChar

StartChar: D
Encoding: 68 68 493
Width: 1254
Flags: W
LayerCount: 2
Fore
SplineSet
23 0 m 1,0,-1
 23 32 l 1,1,-1
 61 32 l 2,2,3
 111 32 111 32 137.5 47.5 c 128,-1,4
 164 63 164 63 177 90 c 0,5,6
 184 108 184 108 184 197 c 2,7,-1
 184 953 l 2,8,9
 184 1041 184 1041 175 1063 c 128,-1,10
 166 1085 166 1085 137.5 1101.5 c 128,-1,11
 109 1118 109 1118 61 1118 c 2,12,-1
 23 1118 l 1,13,-1
 23 1150 l 1,14,-1
 537 1150 l 2,15,16
 744 1150 744 1150 869 1094 c 0,17,18
 1023 1025 1023 1025 1102 886 c 128,-1,19
 1181 747 1181 747 1181 571 c 0,20,21
 1181 450 1181 450 1142 348 c 128,-1,22
 1103 246 1103 246 1041 179 c 128,-1,23
 979 112 979 112 898 72 c 128,-1,24
 817 32 817 32 701 11 c 0,25,26
 649 0 649 0 537 0 c 2,27,-1
 23 0 l 1,0,-1
461 1084 m 1,28,-1
 461 188 l 2,29,30
 461 117 461 117 468 100.5 c 128,-1,31
 475 84 475 84 491 75 c 0,32,33
 514 63 514 63 558 63 c 0,34,35
 699 63 699 63 774 159 c 0,36,37
 876 290 876 290 876 565 c 0,38,39
 876 787 876 787 806 918 c 0,40,41
 750 1022 750 1022 664 1059 c 0,42,43
 603 1085 603 1085 461 1084 c 1,28,-1
EndSplineSet
EndChar

StartChar: E
Encoding: 69 69 494
Width: 1159
Flags: W
LayerCount: 2
Fore
SplineSet
473 1083 m 1,0,-1
 473 616 l 1,1,-1
 496 616 l 2,2,3
 605 616 605 616 654.5 684.5 c 128,-1,4
 704 753 704 753 718 887 c 1,5,-1
 749 887 l 1,6,-1
 749 285 l 1,7,-1
 718 285 l 1,8,9
 707 384 707 384 674.5 446.5 c 128,-1,10
 642 509 642 509 598.5 530.5 c 128,-1,11
 555 552 555 552 473 552 c 1,12,-1
 473 228 l 2,13,14
 473 134 473 134 481.5 112.5 c 128,-1,15
 490 91 490 91 511.5 77.5 c 128,-1,16
 533 64 533 64 583 64 c 2,17,-1
 651 64 l 2,18,19
 812 64 812 64 909.5 138.5 c 128,-1,20
 1007 213 1007 213 1049 366 c 1,21,-1
 1080 366 l 1,22,-1
 1028 0 l 1,23,-1
 35 0 l 1,24,-1
 35 32 l 1,25,-1
 73 32 l 2,26,27
 123 32 123 32 154 49 c 0,28,29
 176 61 176 61 188 90 c 0,30,31
 197 110 197 110 197 197 c 2,32,-1
 197 953 l 2,33,34
 197 1031 197 1031 193 1049 c 0,35,36
 184 1079 184 1079 161 1095 c 0,37,38
 129 1118 129 1118 73 1118 c 2,39,-1
 35 1118 l 1,40,-1
 35 1150 l 1,41,-1
 997 1150 l 1,42,-1
 997 810 l 1,43,-1
 965 810 l 1,44,45
 940 935 940 935 895.5 989 c 128,-1,46
 851 1043 851 1043 770 1068 c 0,47,48
 723 1083 723 1083 591 1083 c 2,49,-1
 473 1083 l 1,0,-1
EndSplineSet
EndChar

StartChar: F
Encoding: 70 70 495
Width: 1061
Flags: W
LayerCount: 2
Fore
SplineSet
477 1083 m 1,0,-1
 477 612 l 1,1,-1
 511 612 l 2,2,3
 587 612 587 612 635.5 634.5 c 128,-1,4
 684 657 684 657 717 711 c 128,-1,5
 750 765 750 765 761 859 c 1,6,-1
 791 859 l 1,7,-1
 791 281 l 1,8,-1
 761 281 l 1,9,10
 744 444 744 444 672.5 496.5 c 128,-1,11
 601 549 601 549 511 549 c 2,12,-1
 477 549 l 1,13,-1
 477 197 l 2,14,15
 477 108 477 108 487 86.5 c 128,-1,16
 497 65 497 65 525 48.5 c 128,-1,17
 553 32 553 32 602 32 c 2,18,-1
 640 32 l 1,19,-1
 640 0 l 1,20,-1
 39 0 l 1,21,-1
 39 32 l 1,22,-1
 77 32 l 2,23,24
 127 32 127 32 158 49 c 0,25,26
 180 61 180 61 192 90 c 0,27,28
 201 110 201 110 201 197 c 2,29,-1
 201 953 l 2,30,31
 201 1041 201 1041 191.5 1063 c 128,-1,32
 182 1085 182 1085 153.5 1101.5 c 128,-1,33
 125 1118 125 1118 77 1118 c 2,34,-1
 39 1118 l 1,35,-1
 39 1150 l 1,36,-1
 1009 1150 l 1,37,-1
 1009 820 l 1,38,-1
 974 820 l 1,39,40
 962 936 962 936 913.5 992 c 128,-1,41
 865 1048 865 1048 773 1071 c 0,42,43
 722 1083 722 1083 584 1083 c 2,44,-1
 477 1083 l 1,0,-1
EndSplineSet
EndChar

StartChar: G
Encoding: 71 71 496
Width: 1350
Flags: W
LayerCount: 2
Fore
SplineSet
1198 1177 m 1,0,-1
 1198 771 l 1,1,-1
 1167 771 l 1,2,3
 1110 937 1110 937 996.5 1023.5 c 128,-1,4
 883 1110 883 1110 748 1110 c 0,5,6
 619 1110 619 1110 533 1037.5 c 128,-1,7
 447 965 447 965 411.5 835.5 c 128,-1,8
 376 706 376 706 376 569 c 0,9,10
 376 404 376 404 415.5 279.5 c 128,-1,11
 455 155 455 155 542 96 c 128,-1,12
 629 37 629 37 748 37 c 0,13,14
 790 37 790 37 833.5 46 c 128,-1,15
 877 55 877 55 922 72 c 1,16,-1
 922 312 l 2,17,18
 922 379 922 379 913 399 c 128,-1,19
 904 419 904 419 875 435.5 c 128,-1,20
 846 452 846 452 803 452 c 2,21,-1
 774 452 l 1,22,-1
 774 482 l 1,23,-1
 1333 482 l 1,24,-1
 1333 452 l 1,25,26
 1270 447 1270 447 1244.5 434 c 128,-1,27
 1219 421 1219 421 1206 390 c 0,28,29
 1198 374 1198 374 1198 312 c 2,30,-1
 1198 72 l 1,31,32
 1088 23 1088 23 969 -2.5 c 128,-1,33
 850 -28 850 -28 722 -28 c 0,34,35
 558 -28 558 -28 449.5 16.5 c 128,-1,36
 341 61 341 61 258.5 134 c 128,-1,37
 176 207 176 207 129 298 c 0,38,39
 70 414 70 414 70 560 c 0,40,41
 70 819 70 819 252.5 998 c 128,-1,42
 435 1177 435 1177 711 1177 c 0,43,44
 797 1177 797 1177 866 1164 c 0,45,46
 903 1156 903 1156 987 1124.5 c 128,-1,47
 1071 1093 1071 1093 1085 1093 c 0,48,49
 1109 1093 1109 1093 1129.5 1110.5 c 128,-1,50
 1150 1128 1150 1128 1167 1177 c 1,51,-1
 1198 1177 l 1,0,-1
EndSplineSet
EndChar

StartChar: H
Encoding: 72 72 497
Width: 1350
Flags: W
LayerCount: 2
Fore
SplineSet
475 553 m 1,0,-1
 475 197 l 2,1,2
 475 108 475 108 484.5 86.5 c 128,-1,3
 494 65 494 65 522.5 48.5 c 128,-1,4
 551 32 551 32 600 32 c 2,5,-1
 638 32 l 1,6,-1
 638 0 l 1,7,-1
 36 0 l 1,8,-1
 36 32 l 1,9,-1
 74 32 l 2,10,11
 125 32 125 32 155 49 c 0,12,13
 177 61 177 61 189 90 c 0,14,15
 198 110 198 110 198 197 c 2,16,-1
 198 953 l 2,17,18
 198 1041 198 1041 189 1063 c 128,-1,19
 180 1085 180 1085 151.5 1101.5 c 128,-1,20
 123 1118 123 1118 74 1118 c 2,21,-1
 36 1118 l 1,22,-1
 36 1150 l 1,23,-1
 638 1150 l 1,24,-1
 638 1118 l 1,25,-1
 600 1118 l 2,26,27
 549 1118 549 1118 519 1100 c 0,28,29
 497 1089 497 1089 484 1060 c 0,30,31
 475 1040 475 1040 475 953 c 2,32,-1
 475 628 l 1,33,-1
 881 628 l 1,34,-1
 881 953 l 2,35,36
 881 1041 881 1041 872 1063 c 128,-1,37
 863 1085 863 1085 834 1101.5 c 128,-1,38
 805 1118 805 1118 757 1118 c 2,39,-1
 719 1118 l 1,40,-1
 719 1150 l 1,41,-1
 1320 1150 l 1,42,-1
 1320 1118 l 1,43,-1
 1283 1118 l 2,44,45
 1232 1118 1232 1118 1202 1100 c 0,46,47
 1180 1089 1180 1089 1167 1060 c 0,48,49
 1158 1040 1158 1040 1158 953 c 2,50,-1
 1158 197 l 2,51,52
 1158 108 1158 108 1167.5 86.5 c 128,-1,53
 1177 65 1177 65 1205.5 48.5 c 128,-1,54
 1234 32 1234 32 1283 32 c 2,55,-1
 1320 32 l 1,56,-1
 1320 0 l 1,57,-1
 719 0 l 1,58,-1
 719 32 l 1,59,-1
 757 32 l 2,60,61
 808 32 808 32 837 49 c 0,62,63
 859 61 859 61 871 90 c 0,64,65
 881 110 881 110 881 197 c 2,66,-1
 881 553 l 1,67,-1
 475 553 l 1,0,-1
EndSplineSet
EndChar

StartChar: I
Encoding: 73 73 498
Width: 676
Flags: W
LayerCount: 2
Fore
SplineSet
636 32 m 1,0,-1
 636 0 l 1,1,-1
 35 0 l 1,2,-1
 35 32 l 1,3,-1
 73 32 l 2,4,5
 123 32 123 32 154 49 c 0,6,7
 176 61 176 61 188 90 c 0,8,9
 197 110 197 110 197 197 c 2,10,-1
 197 953 l 2,11,12
 197 1041 197 1041 187.5 1063 c 128,-1,13
 178 1085 178 1085 149.5 1101.5 c 128,-1,14
 121 1118 121 1118 73 1118 c 2,15,-1
 35 1118 l 1,16,-1
 35 1150 l 1,17,-1
 636 1150 l 1,18,-1
 636 1118 l 1,19,-1
 598 1118 l 2,20,21
 548 1118 548 1118 517 1100 c 0,22,23
 495 1089 495 1089 482 1060 c 0,24,25
 473 1040 473 1040 473 953 c 2,26,-1
 473 197 l 2,27,28
 473 108 473 108 483 86.5 c 128,-1,29
 493 65 493 65 521 48.5 c 128,-1,30
 549 32 549 32 598 32 c 2,31,-1
 636 32 l 1,0,-1
EndSplineSet
EndChar

StartChar: J
Encoding: 74 74 499
Width: 868
Flags: W
LayerCount: 2
Fore
SplineSet
247 1118 m 1,0,-1
 247 1150 l 1,1,-1
 859 1150 l 1,2,-1
 859 1118 l 1,3,-1
 820 1118 l 2,4,5
 770 1118 770 1118 740 1100 c 0,6,7
 719 1089 719 1089 706 1060 c 0,8,9
 696 1040 696 1040 696 953 c 2,10,-1
 696 390 l 2,11,12
 696 225 696 225 663 149.5 c 128,-1,13
 630 74 630 74 545.5 23.5 c 128,-1,14
 461 -27 461 -27 342 -27 c 0,15,16
 197 -27 197 -27 108 49.5 c 128,-1,17
 19 126 19 126 19 218 c 0,18,19
 19 278 19 278 55 315 c 128,-1,20
 91 352 91 352 144 352 c 0,21,22
 196 352 196 352 231 319 c 128,-1,23
 266 286 266 286 266 237 c 0,24,25
 266 214 266 214 261 196 c 0,26,27
 257 188 257 188 233.5 153.5 c 128,-1,28
 210 119 210 119 210 104 c 0,29,30
 210 83 210 83 232 66 c 0,31,32
 265 42 265 42 316 42 c 0,33,34
 353 42 353 42 377 60.5 c 128,-1,35
 401 79 401 79 410.5 119 c 128,-1,36
 420 159 420 159 420 338 c 2,37,-1
 420 953 l 2,38,39
 420 1041 420 1041 410.5 1063 c 128,-1,40
 401 1085 401 1085 372 1101.5 c 128,-1,41
 343 1118 343 1118 295 1118 c 2,42,-1
 247 1118 l 1,0,-1
EndSplineSet
EndChar

StartChar: K
Encoding: 75 75 500
Width: 1350
Flags: W
LayerCount: 2
Fore
SplineSet
723 710 m 1,0,-1
 1128 204 l 2,1,2
 1214 96 1214 96 1275 58 c 0,3,4
 1321 32 1321 32 1371 32 c 1,5,-1
 1371 0 l 1,6,-1
 772 0 l 1,7,-1
 772 32 l 1,8,9
 829 36 829 36 845.5 48.5 c 128,-1,10
 862 61 862 61 862 81 c 0,11,12
 862 117 862 117 783 214 c 2,13,-1
 519 546 l 1,14,-1
 477 511 l 1,15,-1
 477 197 l 2,16,17
 477 107 477 107 487.5 85 c 128,-1,18
 498 63 498 63 526.5 47.5 c 128,-1,19
 555 32 555 32 619 32 c 1,20,-1
 619 0 l 1,21,-1
 39 0 l 1,22,-1
 39 32 l 1,23,-1
 77 32 l 2,24,25
 127 32 127 32 158 49 c 0,26,27
 180 61 180 61 192 90 c 0,28,29
 201 110 201 110 201 197 c 2,30,-1
 201 953 l 2,31,32
 201 1041 201 1041 191.5 1063 c 128,-1,33
 182 1085 182 1085 153.5 1101.5 c 128,-1,34
 125 1118 125 1118 77 1118 c 2,35,-1
 39 1118 l 1,36,-1
 39 1150 l 1,37,-1
 612 1150 l 1,38,-1
 612 1118 l 1,39,40
 553 1118 553 1118 523 1101 c 0,41,42
 500 1090 500 1090 488 1062 c 0,43,44
 477 1041 477 1041 477 953 c 2,45,-1
 477 596 l 1,46,-1
 904 940 l 2,47,48
 993 1012 993 1012 993 1056 c 0,49,50
 993 1088 993 1088 956 1107 c 0,51,52
 938 1116 938 1116 864 1118 c 1,53,-1
 864 1150 l 1,54,-1
 1312 1150 l 1,55,-1
 1312 1118 l 1,56,57
 1253 1114 1253 1114 1218.5 1096.5 c 128,-1,58
 1184 1079 1184 1079 1060 979 c 2,59,-1
 723 710 l 1,0,-1
EndSplineSet
EndChar

StartChar: L
Encoding: 76 76 501
Width: 1159
Flags: W
LayerCount: 2
Fore
SplineSet
1096 404 m 1,0,-1
 1054 0 l 1,1,-1
 32 0 l 1,2,-1
 32 32 l 1,3,-1
 70 32 l 2,4,5
 121 32 121 32 151 49 c 0,6,7
 173 61 173 61 184 90 c 0,8,9
 194 110 194 110 194 197 c 2,10,-1
 194 953 l 2,11,12
 194 1041 194 1041 185 1063 c 128,-1,13
 176 1085 176 1085 147.5 1101.5 c 128,-1,14
 119 1118 119 1118 70 1118 c 2,15,-1
 32 1118 l 1,16,-1
 32 1150 l 1,17,-1
 646 1150 l 1,18,-1
 646 1118 l 1,19,-1
 596 1118 l 2,20,21
 545 1118 545 1118 515 1100 c 0,22,23
 493 1089 493 1089 480 1060 c 0,24,25
 471 1040 471 1040 471 953 c 2,26,-1
 471 220 l 2,27,28
 471 132 471 132 481 108 c 128,-1,29
 491 84 491 84 520 72 c 0,30,31
 542 65 542 65 623 65 c 2,32,-1
 719 65 l 2,33,34
 811 65 811 65 872 97 c 128,-1,35
 933 129 933 129 977.5 198.5 c 128,-1,36
 1022 268 1022 268 1062 404 c 1,37,-1
 1096 404 l 1,0,-1
EndSplineSet
EndChar

StartChar: M
Encoding: 77 77 502
Width: 1639
Flags: W
LayerCount: 2
Fore
SplineSet
828 392 m 1,0,-1
 1139 1150 l 1,1,-1
 1608 1150 l 1,2,-1
 1608 1118 l 1,3,-1
 1571 1118 l 2,4,5
 1520 1118 1520 1118 1489 1100 c 0,6,7
 1468 1089 1468 1089 1455 1061 c 0,8,9
 1446 1041 1446 1041 1446 955 c 2,10,-1
 1446 197 l 2,11,12
 1446 108 1446 108 1455.5 86.5 c 128,-1,13
 1465 65 1465 65 1493.5 48.5 c 128,-1,14
 1522 32 1522 32 1571 32 c 2,15,-1
 1608 32 l 1,16,-1
 1608 0 l 1,17,-1
 1007 0 l 1,18,-1
 1007 32 l 1,19,-1
 1045 32 l 2,20,21
 1096 32 1096 32 1126 49 c 0,22,23
 1147 61 1147 61 1160 90 c 0,24,25
 1169 110 1169 110 1169 197 c 2,26,-1
 1169 1049 l 1,27,-1
 728 0 l 1,28,-1
 708 0 l 1,29,-1
 261 1041 l 1,30,-1
 261 231 l 2,31,32
 261 146 261 146 265 127 c 0,33,34
 276 85 276 85 313 58.5 c 128,-1,35
 350 32 350 32 428 32 c 1,36,-1
 428 0 l 1,37,-1
 35 0 l 1,38,-1
 35 32 l 1,39,-1
 47 32 l 2,40,41
 85 31 85 31 118 44 c 128,-1,42
 151 57 151 57 167.5 79 c 128,-1,43
 184 101 184 101 194 141 c 0,44,45
 196 151 196 151 196 227 c 2,46,-1
 196 955 l 2,47,48
 196 1042 196 1042 186.5 1063.5 c 128,-1,49
 177 1085 177 1085 148.5 1101.5 c 128,-1,50
 120 1118 120 1118 71 1118 c 2,51,-1
 35 1118 l 1,52,-1
 35 1150 l 1,53,-1
 505 1150 l 1,54,-1
 828 392 l 1,0,-1
EndSplineSet
EndChar

StartChar: N
Encoding: 78 78 503
Width: 1254
Flags: W
LayerCount: 2
Fore
SplineSet
432 1150 m 1,0,-1
 1000 437 l 1,1,-1
 1000 931 l 2,2,3
 1000 1035 1000 1035 970 1071 c 0,4,5
 930 1120 930 1120 833 1118 c 1,6,-1
 833 1150 l 1,7,-1
 1214 1150 l 1,8,-1
 1214 1118 l 1,9,10
 1141 1109 1141 1109 1116 1094 c 128,-1,11
 1091 1079 1091 1079 1076.5 1045.5 c 128,-1,12
 1062 1012 1062 1012 1062 931 c 2,13,-1
 1062 -27 l 1,14,-1
 1033 -27 l 1,15,-1
 257 931 l 1,16,-1
 257 200 l 2,17,18
 257 101 257 101 302 66.5 c 128,-1,19
 347 32 347 32 405 32 c 2,20,-1
 432 32 l 1,21,-1
 432 0 l 1,22,-1
 24 0 l 1,23,-1
 24 32 l 1,24,25
 120 32 120 32 157 70 c 128,-1,26
 194 108 194 108 194 200 c 2,27,-1
 194 1011 l 1,28,-1
 170 1042 l 2,29,30
 134 1088 134 1088 105.5 1102.5 c 128,-1,31
 77 1117 77 1117 24 1118 c 1,32,-1
 24 1150 l 1,33,-1
 432 1150 l 1,0,-1
EndSplineSet
EndChar

StartChar: O
Encoding: 79 79 504
Width: 1350
Flags: W
LayerCount: 2
Fore
SplineSet
671 1166 m 1,0,1
 946 1177 946 1177 1117.5 1006 c 128,-1,2
 1289 835 1289 835 1289 579 c 0,3,4
 1289 360 1289 360 1161 194 c 0,5,6
 991 -27 991 -27 682 -27 c 0,7,8
 371 -27 371 -27 201 184 c 0,9,10
 68 350 68 350 68 579 c 0,11,12
 68 834 68 834 242.5 1005.5 c 128,-1,13
 417 1177 417 1177 671 1166 c 1,0,1
681 1112 m 0,14,15
 524 1112 524 1112 441 951 c 0,16,17
 374 818 374 818 374 570 c 0,18,19
 374 277 374 277 477 136 c 0,20,21
 549 37 549 37 679 37 c 0,22,23
 766 37 766 37 825 79 c 0,24,25
 900 134 900 134 941.5 253 c 128,-1,26
 983 372 983 372 983 564 c 0,27,28
 983 792 983 792 940.5 905.5 c 128,-1,29
 898 1019 898 1019 832 1065.5 c 128,-1,30
 766 1112 766 1112 681 1112 c 0,14,15
EndSplineSet
EndChar

